<?xml version="1.0" encoding="utf-8" standalone="no"?>
<!DOCTYPE svg PUBLIC "-//W3C//DTD SVG 1.1//EN"
  "http://www.w3.org/Graphics/SVG/1.1/DTD/svg11.dtd">
<svg xmlns:xlink="http://www.w3.org/1999/xlink" width="601.701193pt" height="387.999687pt" viewBox="0 0 601.701193 387.999687" xmlns="http://www.w3.org/2000/svg" version="1.1">
 <metadata>
  <rdf:RDF xmlns:dc="http://purl.org/dc/elements/1.1/" xmlns:cc="http://creativecommons.org/ns#" xmlns:rdf="http://www.w3.org/1999/02/22-rdf-syntax-ns#">
   <cc:Work>
    <dc:type rdf:resource="http://purl.org/dc/dcmitype/StillImage"/>
    <dc:date>2024-03-08T16:30:05.753231</dc:date>
    <dc:format>image/svg+xml</dc:format>
    <dc:creator>
     <cc:Agent>
      <dc:title>Matplotlib v3.8.0, https://matplotlib.org/</dc:title>
     </cc:Agent>
    </dc:creator>
   </cc:Work>
  </rdf:RDF>
 </metadata>
 <defs>
  <style type="text/css">*{stroke-linejoin: round; stroke-linecap: butt}</style>
 </defs>
 <g id="figure_1">
  <g id="patch_1">
   <path d="M 0 387.999687 
L 601.701193 387.999687 
L 601.701193 0 
L 0 0 
z
" style="fill: #ffffff"/>
  </g>
  <g id="axes_1">
   <g id="patch_2">
    <path d="M 272.978182 201.6 
C 272.978182 185.715678 269.849317 169.985812 263.77065 155.310612 
C 257.691983 140.635412 248.78173 127.300275 237.549818 116.068364 
C 226.317907 104.836452 212.982769 95.926198 198.30757 89.847532 
C 183.63237 83.768865 167.902503 80.64 152.018182 80.64 
C 136.13386 80.64 120.403994 83.768865 105.728794 89.847532 
C 91.053594 95.926198 77.718457 104.836452 66.486546 116.068364 
C 55.254634 127.300275 46.34438 140.635412 40.265714 155.310612 
C 34.187047 169.985812 31.058182 185.715678 31.058182 201.6 
C 31.058182 217.484322 34.187047 233.214188 40.265714 247.889388 
C 46.34438 262.564588 55.254634 275.899725 66.486546 287.131636 
C 77.718457 298.363548 91.053594 307.273802 105.728794 313.352468 
C 120.403994 319.431135 136.13386 322.56 152.018182 322.56 
C 167.902503 322.56 183.63237 319.431135 198.30757 313.352468 
C 212.982769 307.273802 226.317907 298.363548 237.549818 287.131636 
C 248.78173 275.899725 257.691983 262.564588 263.77065 247.889388 
C 269.849317 233.214188 272.978182 217.484322 272.978182 201.6 
M 152.018182 201.6 
C 152.018182 201.6 152.018182 201.6 152.018182 201.6 
C 152.018182 201.6 152.018182 201.6 152.018182 201.6 
C 152.018182 201.6 152.018182 201.6 152.018182 201.6 
C 152.018182 201.6 152.018182 201.6 152.018182 201.6 
C 152.018182 201.6 152.018182 201.6 152.018182 201.6 
C 152.018182 201.6 152.018182 201.6 152.018182 201.6 
C 152.018182 201.6 152.018182 201.6 152.018182 201.6 
C 152.018182 201.6 152.018182 201.6 152.018182 201.6 
C 152.018182 201.6 152.018182 201.6 152.018182 201.6 
C 152.018182 201.6 152.018182 201.6 152.018182 201.6 
C 152.018182 201.6 152.018182 201.6 152.018182 201.6 
C 152.018182 201.6 152.018182 201.6 152.018182 201.6 
C 152.018182 201.6 152.018182 201.6 152.018182 201.6 
C 152.018182 201.6 152.018182 201.6 152.018182 201.6 
C 152.018182 201.6 152.018182 201.6 152.018182 201.6 
C 152.018182 201.6 152.018182 201.6 152.018182 201.6 
z
" style="fill: #ffffff"/>
   </g>
   <g id="matplotlib.axis_1">
    <g id="xtick_1">
     <g id="line2d_1">
      <path d="M 152.018182 201.6 
L 152.018182 80.64 
" clip-path="url(#p5cf64f9755)" style="fill: none; stroke: #dad8d7; stroke-opacity: 0.5; stroke-width: 0.8; stroke-linecap: square"/>
     </g>
     <g id="text_1">
      <!-- N -->
      <g transform="translate(148.277557 69.399375) scale(0.1 -0.1)">
       <defs>
        <path id="DejaVuSans-4e" d="M 628 4666 
L 1478 4666 
L 3547 763 
L 3547 4666 
L 4159 4666 
L 4159 0 
L 3309 0 
L 1241 3903 
L 1241 0 
L 628 0 
L 628 4666 
z
" transform="scale(0.015625)"/>
       </defs>
       <use xlink:href="#DejaVuSans-4e"/>
      </g>
     </g>
    </g>
    <g id="xtick_2">
     <g id="line2d_2">
      <path d="M 152.018182 201.6 
L 237.549818 116.068364 
" clip-path="url(#p5cf64f9755)" style="fill: none; stroke: #dad8d7; stroke-opacity: 0.5; stroke-width: 0.8; stroke-linecap: square"/>
     </g>
     <g id="text_2">
      <!-- NE -->
      <g transform="translate(240.549313 108.928244) scale(0.1 -0.1)">
       <defs>
        <path id="DejaVuSans-45" d="M 628 4666 
L 3578 4666 
L 3578 4134 
L 1259 4134 
L 1259 2753 
L 3481 2753 
L 3481 2222 
L 1259 2222 
L 1259 531 
L 3634 531 
L 3634 0 
L 628 0 
L 628 4666 
z
" transform="scale(0.015625)"/>
       </defs>
       <use xlink:href="#DejaVuSans-4e"/>
       <use xlink:href="#DejaVuSans-45" x="74.804688"/>
      </g>
     </g>
    </g>
    <g id="xtick_3">
     <g id="line2d_3">
      <path d="M 152.018182 201.6 
L 272.978182 201.6 
" clip-path="url(#p5cf64f9755)" style="fill: none; stroke: #dad8d7; stroke-opacity: 0.5; stroke-width: 0.8; stroke-linecap: square"/>
     </g>
     <g id="text_3">
      <!-- E -->
      <g transform="translate(283.818807 204.359375) scale(0.1 -0.1)">
       <use xlink:href="#DejaVuSans-45"/>
      </g>
     </g>
    </g>
    <g id="xtick_4">
     <g id="line2d_4">
      <path d="M 152.018182 201.6 
L 237.549818 287.131636 
" clip-path="url(#p5cf64f9755)" style="fill: none; stroke: #dad8d7; stroke-opacity: 0.5; stroke-width: 0.8; stroke-linecap: square"/>
     </g>
     <g id="text_4">
      <!-- SE -->
      <g transform="translate(241.115719 299.790506) scale(0.1 -0.1)">
       <defs>
        <path id="DejaVuSans-53" d="M 3425 4513 
L 3425 3897 
Q 3066 4069 2747 4153 
Q 2428 4238 2131 4238 
Q 1616 4238 1336 4038 
Q 1056 3838 1056 3469 
Q 1056 3159 1242 3001 
Q 1428 2844 1947 2747 
L 2328 2669 
Q 3034 2534 3370 2195 
Q 3706 1856 3706 1288 
Q 3706 609 3251 259 
Q 2797 -91 1919 -91 
Q 1588 -91 1214 -16 
Q 841 59 441 206 
L 441 856 
Q 825 641 1194 531 
Q 1563 422 1919 422 
Q 2459 422 2753 634 
Q 3047 847 3047 1241 
Q 3047 1584 2836 1778 
Q 2625 1972 2144 2069 
L 1759 2144 
Q 1053 2284 737 2584 
Q 422 2884 422 3419 
Q 422 4038 858 4394 
Q 1294 4750 2059 4750 
Q 2388 4750 2728 4690 
Q 3069 4631 3425 4513 
z
" transform="scale(0.015625)"/>
       </defs>
       <use xlink:href="#DejaVuSans-53"/>
       <use xlink:href="#DejaVuSans-45" x="63.476562"/>
      </g>
     </g>
    </g>
    <g id="xtick_5">
     <g id="line2d_5">
      <path d="M 152.018182 201.6 
L 152.018182 322.56 
" clip-path="url(#p5cf64f9755)" style="fill: none; stroke: #dad8d7; stroke-opacity: 0.5; stroke-width: 0.8; stroke-linecap: square"/>
     </g>
     <g id="text_5">
      <!-- S -->
      <g transform="translate(148.843963 339.319375) scale(0.1 -0.1)">
       <use xlink:href="#DejaVuSans-53"/>
      </g>
     </g>
    </g>
    <g id="xtick_6">
     <g id="line2d_6">
      <path d="M 152.018182 201.6 
L 66.486546 287.131636 
" clip-path="url(#p5cf64f9755)" style="fill: none; stroke: #dad8d7; stroke-opacity: 0.5; stroke-width: 0.8; stroke-linecap: square"/>
     </g>
     <g id="text_6">
      <!-- SW -->
      <g transform="translate(48.469082 299.790506) scale(0.1 -0.1)">
       <defs>
        <path id="DejaVuSans-57" d="M 213 4666 
L 850 4666 
L 1831 722 
L 2809 4666 
L 3519 4666 
L 4500 722 
L 5478 4666 
L 6119 4666 
L 4947 0 
L 4153 0 
L 3169 4050 
L 2175 0 
L 1381 0 
L 213 4666 
z
" transform="scale(0.015625)"/>
       </defs>
       <use xlink:href="#DejaVuSans-53"/>
       <use xlink:href="#DejaVuSans-57" x="63.476562"/>
      </g>
     </g>
    </g>
    <g id="xtick_7">
     <g id="line2d_7">
      <path d="M 152.018182 201.6 
L 31.058182 201.6 
" clip-path="url(#p5cf64f9755)" style="fill: none; stroke: #dad8d7; stroke-opacity: 0.5; stroke-width: 0.8; stroke-linecap: square"/>
     </g>
     <g id="text_7">
      <!-- W -->
      <g transform="translate(12.114432 204.359375) scale(0.1 -0.1)">
       <use xlink:href="#DejaVuSans-57"/>
      </g>
     </g>
    </g>
    <g id="xtick_8">
     <g id="line2d_8">
      <path d="M 152.018182 201.6 
L 66.486546 116.068364 
" clip-path="url(#p5cf64f9755)" style="fill: none; stroke: #dad8d7; stroke-opacity: 0.5; stroke-width: 0.8; stroke-linecap: square"/>
     </g>
     <g id="text_8">
      <!-- NW -->
      <g transform="translate(47.902676 108.928244) scale(0.1 -0.1)">
       <use xlink:href="#DejaVuSans-4e"/>
       <use xlink:href="#DejaVuSans-57" x="74.804688"/>
      </g>
     </g>
    </g>
   </g>
   <g id="matplotlib.axis_2">
    <g id="ytick_1">
     <g id="line2d_9">
      <path d="M 152.018182 141.12 
C 159.960343 141.12 167.825276 142.684433 175.162876 145.723766 
C 182.500476 148.763099 189.168044 153.218226 194.784 158.834182 
C 200.399956 164.450138 204.855083 171.117706 207.894416 178.455306 
C 210.933749 185.792906 212.498182 193.657839 212.498182 201.6 
C 212.498182 209.542161 210.933749 217.407094 207.894416 224.744694 
C 204.855083 232.082294 200.399956 238.749862 194.784 244.365818 
C 189.168044 249.981774 182.500476 254.436901 175.162876 257.476234 
C 167.825276 260.515567 159.960343 262.08 152.018182 262.08 
C 144.076021 262.08 136.211088 260.515567 128.873488 257.476234 
C 121.535888 254.436901 114.868319 249.981774 109.252364 244.365818 
C 103.636408 238.749862 99.181281 232.082294 96.141948 224.744694 
C 93.102614 217.407094 91.538182 209.542161 91.538182 201.6 
C 91.538182 193.657839 93.102614 185.792906 96.141948 178.455306 
C 99.181281 171.117706 103.636408 164.450138 109.252364 158.834182 
C 114.868319 153.218226 121.535888 148.763099 128.873488 145.723766 
C 136.211088 142.684433 144.076021 141.12 152.018182 141.12 
" clip-path="url(#p5cf64f9755)" style="fill: none; stroke: #dad8d7; stroke-opacity: 0.5; stroke-width: 0.8; stroke-linecap: square"/>
     </g>
     <g id="text_9">
      <!-- 25% -->
      <g transform="translate(175.162876 143.644078) scale(0.1 -0.1)">
       <defs>
        <path id="DejaVuSans-32" d="M 1228 531 
L 3431 531 
L 3431 0 
L 469 0 
L 469 531 
Q 828 903 1448 1529 
Q 2069 2156 2228 2338 
Q 2531 2678 2651 2914 
Q 2772 3150 2772 3378 
Q 2772 3750 2511 3984 
Q 2250 4219 1831 4219 
Q 1534 4219 1204 4116 
Q 875 4013 500 3803 
L 500 4441 
Q 881 4594 1212 4672 
Q 1544 4750 1819 4750 
Q 2544 4750 2975 4387 
Q 3406 4025 3406 3419 
Q 3406 3131 3298 2873 
Q 3191 2616 2906 2266 
Q 2828 2175 2409 1742 
Q 1991 1309 1228 531 
z
" transform="scale(0.015625)"/>
        <path id="DejaVuSans-35" d="M 691 4666 
L 3169 4666 
L 3169 4134 
L 1269 4134 
L 1269 2991 
Q 1406 3038 1543 3061 
Q 1681 3084 1819 3084 
Q 2600 3084 3056 2656 
Q 3513 2228 3513 1497 
Q 3513 744 3044 326 
Q 2575 -91 1722 -91 
Q 1428 -91 1123 -41 
Q 819 9 494 109 
L 494 744 
Q 775 591 1075 516 
Q 1375 441 1709 441 
Q 2250 441 2565 725 
Q 2881 1009 2881 1497 
Q 2881 1984 2565 2268 
Q 2250 2553 1709 2553 
Q 1456 2553 1204 2497 
Q 953 2441 691 2322 
L 691 4666 
z
" transform="scale(0.015625)"/>
        <path id="DejaVuSans-25" d="M 4653 2053 
Q 4381 2053 4226 1822 
Q 4072 1591 4072 1178 
Q 4072 772 4226 539 
Q 4381 306 4653 306 
Q 4919 306 5073 539 
Q 5228 772 5228 1178 
Q 5228 1588 5073 1820 
Q 4919 2053 4653 2053 
z
M 4653 2450 
Q 5147 2450 5437 2106 
Q 5728 1763 5728 1178 
Q 5728 594 5436 251 
Q 5144 -91 4653 -91 
Q 4153 -91 3862 251 
Q 3572 594 3572 1178 
Q 3572 1766 3864 2108 
Q 4156 2450 4653 2450 
z
M 1428 4353 
Q 1159 4353 1004 4120 
Q 850 3888 850 3481 
Q 850 3069 1003 2837 
Q 1156 2606 1428 2606 
Q 1700 2606 1854 2837 
Q 2009 3069 2009 3481 
Q 2009 3884 1853 4118 
Q 1697 4353 1428 4353 
z
M 4250 4750 
L 4750 4750 
L 1831 -91 
L 1331 -91 
L 4250 4750 
z
M 1428 4750 
Q 1922 4750 2215 4408 
Q 2509 4066 2509 3481 
Q 2509 2891 2217 2550 
Q 1925 2209 1428 2209 
Q 931 2209 642 2551 
Q 353 2894 353 3481 
Q 353 4063 643 4406 
Q 934 4750 1428 4750 
z
" transform="scale(0.015625)"/>
       </defs>
       <use xlink:href="#DejaVuSans-32"/>
       <use xlink:href="#DejaVuSans-35" x="63.623047"/>
       <use xlink:href="#DejaVuSans-25" x="127.246094"/>
      </g>
     </g>
    </g>
    <g id="ytick_2">
     <g id="line2d_10">
      <path d="M 152.018182 80.64 
C 167.902503 80.64 183.63237 83.768865 198.30757 89.847532 
C 212.982769 95.926198 226.317907 104.836452 237.549818 116.068364 
C 248.78173 127.300275 257.691983 140.635412 263.77065 155.310612 
C 269.849317 169.985812 272.978182 185.715678 272.978182 201.6 
C 272.978182 217.484322 269.849317 233.214188 263.77065 247.889388 
C 257.691983 262.564588 248.78173 275.899725 237.549818 287.131636 
C 226.317907 298.363548 212.982769 307.273802 198.30757 313.352468 
C 183.63237 319.431135 167.902503 322.56 152.018182 322.56 
C 136.13386 322.56 120.403994 319.431135 105.728794 313.352468 
C 91.053594 307.273802 77.718457 298.363548 66.486546 287.131636 
C 55.254634 275.899725 46.34438 262.564588 40.265714 247.889388 
C 34.187047 233.214188 31.058182 217.484322 31.058182 201.6 
C 31.058182 185.715678 34.187047 169.985812 40.265714 155.310612 
C 46.34438 140.635412 55.254634 127.300275 66.486546 116.068364 
C 77.718457 104.836452 91.053594 95.926198 105.728794 89.847532 
C 120.403994 83.768865 136.13386 80.64 152.018182 80.64 
" clip-path="url(#p5cf64f9755)" style="fill: none; stroke: #dad8d7; stroke-opacity: 0.5; stroke-width: 0.8; stroke-linecap: square"/>
     </g>
     <g id="text_10">
      <!-- 50% -->
      <g transform="translate(198.30757 87.767844) scale(0.1 -0.1)">
       <defs>
        <path id="DejaVuSans-30" d="M 2034 4250 
Q 1547 4250 1301 3770 
Q 1056 3291 1056 2328 
Q 1056 1369 1301 889 
Q 1547 409 2034 409 
Q 2525 409 2770 889 
Q 3016 1369 3016 2328 
Q 3016 3291 2770 3770 
Q 2525 4250 2034 4250 
z
M 2034 4750 
Q 2819 4750 3233 4129 
Q 3647 3509 3647 2328 
Q 3647 1150 3233 529 
Q 2819 -91 2034 -91 
Q 1250 -91 836 529 
Q 422 1150 422 2328 
Q 422 3509 836 4129 
Q 1250 4750 2034 4750 
z
" transform="scale(0.015625)"/>
       </defs>
       <use xlink:href="#DejaVuSans-35"/>
       <use xlink:href="#DejaVuSans-30" x="63.623047"/>
       <use xlink:href="#DejaVuSans-25" x="127.246094"/>
      </g>
     </g>
    </g>
   </g>
   <g id="patch_3">
    <path d="M 152.018182 201.6 
C 152.018182 201.6 152.018182 201.6 152.018182 201.6 
C 152.018182 201.6 152.018182 201.6 152.018182 201.6 
L 153.480552 194.24817 
C 152.998989 194.152381 152.509179 194.104139 152.018182 194.104139 
C 151.527185 194.104139 151.037374 194.152381 150.555812 194.24817 
z
" clip-path="url(#p5cf64f9755)" style="fill: #990d35"/>
   </g>
   <g id="patch_4">
    <path d="M 152.018182 201.6 
C 152.018182 201.6 152.018182 201.6 152.018182 201.6 
C 152.018182 201.6 152.018182 201.6 152.018182 201.6 
L 155.885197 195.812603 
C 155.506108 195.559305 155.103048 195.343865 154.681828 195.16939 
C 154.260608 194.994914 153.823262 194.862247 153.376097 194.7733 
z
" clip-path="url(#p5cf64f9755)" style="fill: #990d35"/>
   </g>
   <g id="patch_5">
    <path d="M 152.018182 201.6 
C 152.018182 201.6 152.018182 201.6 152.018182 201.6 
C 152.018182 201.6 152.018182 201.6 152.018182 201.6 
L 156.989407 198.278333 
C 156.77183 197.952706 156.522784 197.649243 156.245861 197.37232 
C 155.968938 197.095397 155.665475 196.846352 155.339848 196.628775 
z
" clip-path="url(#p5cf64f9755)" style="fill: #990d35"/>
   </g>
   <g id="patch_6">
    <path d="M 152.018182 201.6 
C 152.018182 201.6 152.018182 201.6 152.018182 201.6 
C 152.018182 201.6 152.018182 201.6 152.018182 201.6 
L 157.269489 200.55545 
C 157.201069 200.211477 157.099017 199.875057 156.964805 199.551041 
C 156.830594 199.227026 156.66487 198.91698 156.470025 198.625373 
z
" clip-path="url(#p5cf64f9755)" style="fill: #990d35"/>
   </g>
   <g id="patch_7">
    <path d="M 152.018182 201.6 
C 152.018182 201.6 152.018182 201.6 152.018182 201.6 
C 152.018182 201.6 152.018182 201.6 152.018182 201.6 
L 162.083188 203.602054 
C 162.214327 202.942772 162.280373 202.272198 162.280373 201.6 
C 162.280373 200.927802 162.214327 200.257228 162.083188 199.597946 
z
" clip-path="url(#p5cf64f9755)" style="fill: #990d35"/>
   </g>
   <g id="patch_8">
    <path d="M 152.018182 201.6 
C 152.018182 201.6 152.018182 201.6 152.018182 201.6 
C 152.018182 201.6 152.018182 201.6 152.018182 201.6 
L 159.957303 206.904751 
C 160.304776 206.38472 160.600316 205.831804 160.83966 205.253976 
C 161.079004 204.676148 161.260997 204.0762 161.383013 203.462781 
z
" clip-path="url(#p5cf64f9755)" style="fill: #990d35"/>
   </g>
   <g id="patch_9">
    <path d="M 152.018182 201.6 
C 152.018182 201.6 152.018182 201.6 152.018182 201.6 
C 152.018182 201.6 152.018182 201.6 152.018182 201.6 
L 155.934774 207.461594 
C 156.318722 207.205048 156.676537 206.911397 157.003058 206.584876 
C 157.329579 206.258355 157.62323 205.90054 157.879776 205.516592 
z
" clip-path="url(#p5cf64f9755)" style="fill: #990d35"/>
   </g>
   <g id="patch_10">
    <path d="M 152.018182 201.6 
C 152.018182 201.6 152.018182 201.6 152.018182 201.6 
C 152.018182 201.6 152.018182 201.6 152.018182 201.6 
L 153.619825 209.652005 
C 154.147251 209.547093 154.663094 209.390614 155.159918 209.184823 
C 155.656742 208.979031 156.132146 208.724923 156.579276 208.42616 
z
" clip-path="url(#p5cf64f9755)" style="fill: #990d35"/>
   </g>
   <g id="patch_11">
    <path d="M 152.018182 201.6 
C 152.018182 201.6 152.018182 201.6 152.018182 201.6 
C 152.018182 201.6 152.018182 201.6 152.018182 201.6 
L 149.702763 213.240398 
C 150.465236 213.392064 151.24077 213.468447 152.018182 213.468447 
C 152.795593 213.468447 153.571127 213.392064 154.333601 213.240398 
z
" clip-path="url(#p5cf64f9755)" style="fill: #990d35"/>
   </g>
   <g id="patch_12">
    <path d="M 152.018182 201.6 
C 152.018182 201.6 152.018182 201.6 152.018182 201.6 
C 152.018182 201.6 152.018182 201.6 152.018182 201.6 
L 144.829501 212.358622 
C 145.534216 212.829497 146.283494 213.229995 147.066532 213.55434 
C 147.84957 213.878685 148.662584 214.12531 149.493853 214.29066 
z
" clip-path="url(#p5cf64f9755)" style="fill: #990d35"/>
   </g>
   <g id="patch_13">
    <path d="M 152.018182 201.6 
C 152.018182 201.6 152.018182 201.6 152.018182 201.6 
C 152.018182 201.6 152.018182 201.6 152.018182 201.6 
L 148.456707 203.979701 
C 148.612583 204.212986 148.791004 204.430393 148.989396 204.628785 
C 149.187789 204.827178 149.405195 205.005599 149.63848 205.161475 
z
" clip-path="url(#p5cf64f9755)" style="fill: #990d35"/>
   </g>
   <g id="patch_14">
    <path d="M 152.018182 201.6 
C 152.018182 201.6 152.018182 201.6 152.018182 201.6 
C 152.018182 201.6 152.018182 201.6 152.018182 201.6 
L 144.753873 203.044961 
C 144.848522 203.52079 144.989693 203.986171 145.175353 204.434393 
C 145.361012 204.882614 145.590263 205.311512 145.859798 205.7149 
z
" clip-path="url(#p5cf64f9755)" style="fill: #990d35"/>
   </g>
   <g id="patch_15">
    <path d="M 152.018182 201.6 
C 152.018182 201.6 152.018182 201.6 152.018182 201.6 
C 152.018182 201.6 152.018182 201.6 152.018182 201.6 
L 60.120301 183.320375 
C 58.922943 189.339904 58.319915 195.462541 58.319915 201.6 
C 58.319915 207.737459 58.922943 213.860096 60.120301 219.879625 
z
" clip-path="url(#p5cf64f9755)" style="fill: #990d35"/>
   </g>
   <g id="patch_16">
    <path d="M 152.018182 201.6 
C 152.018182 201.6 152.018182 201.6 152.018182 201.6 
C 152.018182 201.6 152.018182 201.6 152.018182 201.6 
L 121.671449 181.322961 
C 120.343255 183.310744 119.213575 185.424227 118.298699 187.632933 
C 117.383823 189.841639 116.688169 192.134901 116.221769 194.479651 
z
" clip-path="url(#p5cf64f9755)" style="fill: #990d35"/>
   </g>
   <g id="patch_17">
    <path d="M 152.018182 201.6 
C 152.018182 201.6 152.018182 201.6 152.018182 201.6 
C 152.018182 201.6 152.018182 201.6 152.018182 201.6 
L 148.44863 196.257788 
C 148.098702 196.491602 147.772593 196.759233 147.475004 197.056822 
C 147.177415 197.354411 146.909784 197.68052 146.67597 198.030448 
z
" clip-path="url(#p5cf64f9755)" style="fill: #990d35"/>
   </g>
   <g id="patch_18">
    <path d="M 152.018182 201.6 
C 152.018182 201.6 152.018182 201.6 152.018182 201.6 
C 152.018182 201.6 152.018182 201.6 152.018182 201.6 
L 150.468766 193.810561 
C 149.958539 193.912051 149.459516 194.063428 148.978893 194.262509 
C 148.49827 194.461589 148.038368 194.707412 147.605819 194.996432 
z
" clip-path="url(#p5cf64f9755)" style="fill: #990d35"/>
   </g>
   <g id="text_11">
    <!-- Morning Wind Direction -->
    <g transform="translate(81.735682 55.800937) scale(0.12 -0.12)">
     <defs>
      <path id="DejaVuSans-4d" d="M 628 4666 
L 1569 4666 
L 2759 1491 
L 3956 4666 
L 4897 4666 
L 4897 0 
L 4281 0 
L 4281 4097 
L 3078 897 
L 2444 897 
L 1241 4097 
L 1241 0 
L 628 0 
L 628 4666 
z
" transform="scale(0.015625)"/>
      <path id="DejaVuSans-6f" d="M 1959 3097 
Q 1497 3097 1228 2736 
Q 959 2375 959 1747 
Q 959 1119 1226 758 
Q 1494 397 1959 397 
Q 2419 397 2687 759 
Q 2956 1122 2956 1747 
Q 2956 2369 2687 2733 
Q 2419 3097 1959 3097 
z
M 1959 3584 
Q 2709 3584 3137 3096 
Q 3566 2609 3566 1747 
Q 3566 888 3137 398 
Q 2709 -91 1959 -91 
Q 1206 -91 779 398 
Q 353 888 353 1747 
Q 353 2609 779 3096 
Q 1206 3584 1959 3584 
z
" transform="scale(0.015625)"/>
      <path id="DejaVuSans-72" d="M 2631 2963 
Q 2534 3019 2420 3045 
Q 2306 3072 2169 3072 
Q 1681 3072 1420 2755 
Q 1159 2438 1159 1844 
L 1159 0 
L 581 0 
L 581 3500 
L 1159 3500 
L 1159 2956 
Q 1341 3275 1631 3429 
Q 1922 3584 2338 3584 
Q 2397 3584 2469 3576 
Q 2541 3569 2628 3553 
L 2631 2963 
z
" transform="scale(0.015625)"/>
      <path id="DejaVuSans-6e" d="M 3513 2113 
L 3513 0 
L 2938 0 
L 2938 2094 
Q 2938 2591 2744 2837 
Q 2550 3084 2163 3084 
Q 1697 3084 1428 2787 
Q 1159 2491 1159 1978 
L 1159 0 
L 581 0 
L 581 3500 
L 1159 3500 
L 1159 2956 
Q 1366 3272 1645 3428 
Q 1925 3584 2291 3584 
Q 2894 3584 3203 3211 
Q 3513 2838 3513 2113 
z
" transform="scale(0.015625)"/>
      <path id="DejaVuSans-69" d="M 603 3500 
L 1178 3500 
L 1178 0 
L 603 0 
L 603 3500 
z
M 603 4863 
L 1178 4863 
L 1178 4134 
L 603 4134 
L 603 4863 
z
" transform="scale(0.015625)"/>
      <path id="DejaVuSans-67" d="M 2906 1791 
Q 2906 2416 2648 2759 
Q 2391 3103 1925 3103 
Q 1463 3103 1205 2759 
Q 947 2416 947 1791 
Q 947 1169 1205 825 
Q 1463 481 1925 481 
Q 2391 481 2648 825 
Q 2906 1169 2906 1791 
z
M 3481 434 
Q 3481 -459 3084 -895 
Q 2688 -1331 1869 -1331 
Q 1566 -1331 1297 -1286 
Q 1028 -1241 775 -1147 
L 775 -588 
Q 1028 -725 1275 -790 
Q 1522 -856 1778 -856 
Q 2344 -856 2625 -561 
Q 2906 -266 2906 331 
L 2906 616 
Q 2728 306 2450 153 
Q 2172 0 1784 0 
Q 1141 0 747 490 
Q 353 981 353 1791 
Q 353 2603 747 3093 
Q 1141 3584 1784 3584 
Q 2172 3584 2450 3431 
Q 2728 3278 2906 2969 
L 2906 3500 
L 3481 3500 
L 3481 434 
z
" transform="scale(0.015625)"/>
      <path id="DejaVuSans-20" transform="scale(0.015625)"/>
      <path id="DejaVuSans-64" d="M 2906 2969 
L 2906 4863 
L 3481 4863 
L 3481 0 
L 2906 0 
L 2906 525 
Q 2725 213 2448 61 
Q 2172 -91 1784 -91 
Q 1150 -91 751 415 
Q 353 922 353 1747 
Q 353 2572 751 3078 
Q 1150 3584 1784 3584 
Q 2172 3584 2448 3432 
Q 2725 3281 2906 2969 
z
M 947 1747 
Q 947 1113 1208 752 
Q 1469 391 1925 391 
Q 2381 391 2643 752 
Q 2906 1113 2906 1747 
Q 2906 2381 2643 2742 
Q 2381 3103 1925 3103 
Q 1469 3103 1208 2742 
Q 947 2381 947 1747 
z
" transform="scale(0.015625)"/>
      <path id="DejaVuSans-44" d="M 1259 4147 
L 1259 519 
L 2022 519 
Q 2988 519 3436 956 
Q 3884 1394 3884 2338 
Q 3884 3275 3436 3711 
Q 2988 4147 2022 4147 
L 1259 4147 
z
M 628 4666 
L 1925 4666 
Q 3281 4666 3915 4102 
Q 4550 3538 4550 2338 
Q 4550 1131 3912 565 
Q 3275 0 1925 0 
L 628 0 
L 628 4666 
z
" transform="scale(0.015625)"/>
      <path id="DejaVuSans-65" d="M 3597 1894 
L 3597 1613 
L 953 1613 
Q 991 1019 1311 708 
Q 1631 397 2203 397 
Q 2534 397 2845 478 
Q 3156 559 3463 722 
L 3463 178 
Q 3153 47 2828 -22 
Q 2503 -91 2169 -91 
Q 1331 -91 842 396 
Q 353 884 353 1716 
Q 353 2575 817 3079 
Q 1281 3584 2069 3584 
Q 2775 3584 3186 3129 
Q 3597 2675 3597 1894 
z
M 3022 2063 
Q 3016 2534 2758 2815 
Q 2500 3097 2075 3097 
Q 1594 3097 1305 2825 
Q 1016 2553 972 2059 
L 3022 2063 
z
" transform="scale(0.015625)"/>
      <path id="DejaVuSans-63" d="M 3122 3366 
L 3122 2828 
Q 2878 2963 2633 3030 
Q 2388 3097 2138 3097 
Q 1578 3097 1268 2742 
Q 959 2388 959 1747 
Q 959 1106 1268 751 
Q 1578 397 2138 397 
Q 2388 397 2633 464 
Q 2878 531 3122 666 
L 3122 134 
Q 2881 22 2623 -34 
Q 2366 -91 2075 -91 
Q 1284 -91 818 406 
Q 353 903 353 1747 
Q 353 2603 823 3093 
Q 1294 3584 2113 3584 
Q 2378 3584 2631 3529 
Q 2884 3475 3122 3366 
z
" transform="scale(0.015625)"/>
      <path id="DejaVuSans-74" d="M 1172 4494 
L 1172 3500 
L 2356 3500 
L 2356 3053 
L 1172 3053 
L 1172 1153 
Q 1172 725 1289 603 
Q 1406 481 1766 481 
L 2356 481 
L 2356 0 
L 1766 0 
Q 1100 0 847 248 
Q 594 497 594 1153 
L 594 3053 
L 172 3053 
L 172 3500 
L 594 3500 
L 594 4494 
L 1172 4494 
z
" transform="scale(0.015625)"/>
     </defs>
     <use xlink:href="#DejaVuSans-4d"/>
     <use xlink:href="#DejaVuSans-6f" x="86.279297"/>
     <use xlink:href="#DejaVuSans-72" x="147.460938"/>
     <use xlink:href="#DejaVuSans-6e" x="186.824219"/>
     <use xlink:href="#DejaVuSans-69" x="250.203125"/>
     <use xlink:href="#DejaVuSans-6e" x="277.986328"/>
     <use xlink:href="#DejaVuSans-67" x="341.365234"/>
     <use xlink:href="#DejaVuSans-20" x="404.841797"/>
     <use xlink:href="#DejaVuSans-57" x="436.628906"/>
     <use xlink:href="#DejaVuSans-69" x="533.255859"/>
     <use xlink:href="#DejaVuSans-6e" x="561.039062"/>
     <use xlink:href="#DejaVuSans-64" x="624.417969"/>
     <use xlink:href="#DejaVuSans-20" x="687.894531"/>
     <use xlink:href="#DejaVuSans-44" x="719.681641"/>
     <use xlink:href="#DejaVuSans-69" x="796.683594"/>
     <use xlink:href="#DejaVuSans-72" x="824.466797"/>
     <use xlink:href="#DejaVuSans-65" x="863.330078"/>
     <use xlink:href="#DejaVuSans-63" x="924.853516"/>
     <use xlink:href="#DejaVuSans-74" x="979.833984"/>
     <use xlink:href="#DejaVuSans-69" x="1019.042969"/>
     <use xlink:href="#DejaVuSans-6f" x="1046.826172"/>
     <use xlink:href="#DejaVuSans-6e" x="1108.007812"/>
    </g>
   </g>
  </g>
  <g id="axes_2">
   <g id="patch_19">
    <path d="M 577.341818 201.6 
C 577.341818 185.715678 574.212953 169.985812 568.134286 155.310612 
C 562.05562 140.635412 553.145366 127.300275 541.913454 116.068364 
C 530.681543 104.836452 517.346406 95.926198 502.671206 89.847532 
C 487.996006 83.768865 472.26614 80.64 456.381818 80.64 
C 440.497497 80.64 424.76763 83.768865 410.09243 89.847532 
C 395.417231 95.926198 382.082093 104.836452 370.850182 116.068364 
C 359.61827 127.300275 350.708017 140.635412 344.62935 155.310612 
C 338.550683 169.985812 335.421818 185.715678 335.421818 201.6 
C 335.421818 217.484322 338.550683 233.214188 344.62935 247.889388 
C 350.708017 262.564588 359.61827 275.899725 370.850182 287.131636 
C 382.082093 298.363548 395.417231 307.273802 410.09243 313.352468 
C 424.76763 319.431135 440.497497 322.56 456.381818 322.56 
C 472.26614 322.56 487.996006 319.431135 502.671206 313.352468 
C 517.346406 307.273802 530.681543 298.363548 541.913454 287.131636 
C 553.145366 275.899725 562.05562 262.564588 568.134286 247.889388 
C 574.212953 233.214188 577.341818 217.484322 577.341818 201.6 
M 456.381818 201.6 
C 456.381818 201.6 456.381818 201.6 456.381818 201.6 
C 456.381818 201.6 456.381818 201.6 456.381818 201.6 
C 456.381818 201.6 456.381818 201.6 456.381818 201.6 
C 456.381818 201.6 456.381818 201.6 456.381818 201.6 
C 456.381818 201.6 456.381818 201.6 456.381818 201.6 
C 456.381818 201.6 456.381818 201.6 456.381818 201.6 
C 456.381818 201.6 456.381818 201.6 456.381818 201.6 
C 456.381818 201.6 456.381818 201.6 456.381818 201.6 
C 456.381818 201.6 456.381818 201.6 456.381818 201.6 
C 456.381818 201.6 456.381818 201.6 456.381818 201.6 
C 456.381818 201.6 456.381818 201.6 456.381818 201.6 
C 456.381818 201.6 456.381818 201.6 456.381818 201.6 
C 456.381818 201.6 456.381818 201.6 456.381818 201.6 
C 456.381818 201.6 456.381818 201.6 456.381818 201.6 
C 456.381818 201.6 456.381818 201.6 456.381818 201.6 
C 456.381818 201.6 456.381818 201.6 456.381818 201.6 
z
" style="fill: #ffffff"/>
   </g>
   <g id="matplotlib.axis_3">
    <g id="xtick_9">
     <g id="line2d_11">
      <path d="M 456.381818 201.6 
L 456.381818 80.64 
" clip-path="url(#p9e441c65ae)" style="fill: none; stroke: #dad8d7; stroke-opacity: 0.5; stroke-width: 0.8; stroke-linecap: square"/>
     </g>
     <g id="text_12">
      <!-- N -->
      <g transform="translate(452.641193 69.399375) scale(0.1 -0.1)">
       <use xlink:href="#DejaVuSans-4e"/>
      </g>
     </g>
    </g>
    <g id="xtick_10">
     <g id="line2d_12">
      <path d="M 456.381818 201.6 
L 541.913454 116.068364 
" clip-path="url(#p9e441c65ae)" style="fill: none; stroke: #dad8d7; stroke-opacity: 0.5; stroke-width: 0.8; stroke-linecap: square"/>
     </g>
     <g id="text_13">
      <!-- NE -->
      <g transform="translate(544.912949 108.928244) scale(0.1 -0.1)">
       <use xlink:href="#DejaVuSans-4e"/>
       <use xlink:href="#DejaVuSans-45" x="74.804688"/>
      </g>
     </g>
    </g>
    <g id="xtick_11">
     <g id="line2d_13">
      <path d="M 456.381818 201.6 
L 577.341818 201.6 
" clip-path="url(#p9e441c65ae)" style="fill: none; stroke: #dad8d7; stroke-opacity: 0.5; stroke-width: 0.8; stroke-linecap: square"/>
     </g>
     <g id="text_14">
      <!-- E -->
      <g transform="translate(588.182443 204.359375) scale(0.1 -0.1)">
       <use xlink:href="#DejaVuSans-45"/>
      </g>
     </g>
    </g>
    <g id="xtick_12">
     <g id="line2d_14">
      <path d="M 456.381818 201.6 
L 541.913454 287.131636 
" clip-path="url(#p9e441c65ae)" style="fill: none; stroke: #dad8d7; stroke-opacity: 0.5; stroke-width: 0.8; stroke-linecap: square"/>
     </g>
     <g id="text_15">
      <!-- SE -->
      <g transform="translate(545.479356 299.790506) scale(0.1 -0.1)">
       <use xlink:href="#DejaVuSans-53"/>
       <use xlink:href="#DejaVuSans-45" x="63.476562"/>
      </g>
     </g>
    </g>
    <g id="xtick_13">
     <g id="line2d_15">
      <path d="M 456.381818 201.6 
L 456.381818 322.56 
" clip-path="url(#p9e441c65ae)" style="fill: none; stroke: #dad8d7; stroke-opacity: 0.5; stroke-width: 0.8; stroke-linecap: square"/>
     </g>
     <g id="text_16">
      <!-- S -->
      <g transform="translate(453.207599 339.319375) scale(0.1 -0.1)">
       <use xlink:href="#DejaVuSans-53"/>
      </g>
     </g>
    </g>
    <g id="xtick_14">
     <g id="line2d_16">
      <path d="M 456.381818 201.6 
L 370.850182 287.131636 
" clip-path="url(#p9e441c65ae)" style="fill: none; stroke: #dad8d7; stroke-opacity: 0.5; stroke-width: 0.8; stroke-linecap: square"/>
     </g>
     <g id="text_17">
      <!-- SW -->
      <g transform="translate(352.832718 299.790506) scale(0.1 -0.1)">
       <use xlink:href="#DejaVuSans-53"/>
       <use xlink:href="#DejaVuSans-57" x="63.476562"/>
      </g>
     </g>
    </g>
    <g id="xtick_15">
     <g id="line2d_17">
      <path d="M 456.381818 201.6 
L 335.421818 201.6 
" clip-path="url(#p9e441c65ae)" style="fill: none; stroke: #dad8d7; stroke-opacity: 0.5; stroke-width: 0.8; stroke-linecap: square"/>
     </g>
     <g id="text_18">
      <!-- W -->
      <g transform="translate(316.478068 204.359375) scale(0.1 -0.1)">
       <use xlink:href="#DejaVuSans-57"/>
      </g>
     </g>
    </g>
    <g id="xtick_16">
     <g id="line2d_18">
      <path d="M 456.381818 201.6 
L 370.850182 116.068364 
" clip-path="url(#p9e441c65ae)" style="fill: none; stroke: #dad8d7; stroke-opacity: 0.5; stroke-width: 0.8; stroke-linecap: square"/>
     </g>
     <g id="text_19">
      <!-- NW -->
      <g transform="translate(352.266312 108.928244) scale(0.1 -0.1)">
       <use xlink:href="#DejaVuSans-4e"/>
       <use xlink:href="#DejaVuSans-57" x="74.804688"/>
      </g>
     </g>
    </g>
   </g>
   <g id="matplotlib.axis_4">
    <g id="ytick_3">
     <g id="line2d_19">
      <path d="M 456.381818 141.12 
C 464.323979 141.12 472.188912 142.684433 479.526512 145.723766 
C 486.864112 148.763099 493.531681 153.218226 499.147636 158.834182 
C 504.763592 164.450138 509.218719 171.117706 512.258052 178.455306 
C 515.297386 185.792906 516.861818 193.657839 516.861818 201.6 
C 516.861818 209.542161 515.297386 217.407094 512.258052 224.744694 
C 509.218719 232.082294 504.763592 238.749862 499.147636 244.365818 
C 493.531681 249.981774 486.864112 254.436901 479.526512 257.476234 
C 472.188912 260.515567 464.323979 262.08 456.381818 262.08 
C 448.439657 262.08 440.574724 260.515567 433.237124 257.476234 
C 425.899524 254.436901 419.231956 249.981774 413.616 244.365818 
C 408.000044 238.749862 403.544917 232.082294 400.505584 224.744694 
C 397.466251 217.407094 395.901818 209.542161 395.901818 201.6 
C 395.901818 193.657839 397.466251 185.792906 400.505584 178.455306 
C 403.544917 171.117706 408.000044 164.450138 413.616 158.834182 
C 419.231956 153.218226 425.899524 148.763099 433.237124 145.723766 
C 440.574724 142.684433 448.439657 141.12 456.381818 141.12 
" clip-path="url(#p9e441c65ae)" style="fill: none; stroke: #dad8d7; stroke-opacity: 0.5; stroke-width: 0.8; stroke-linecap: square"/>
     </g>
     <g id="text_20">
      <!-- 25% -->
      <g transform="translate(479.526512 143.644078) scale(0.1 -0.1)">
       <use xlink:href="#DejaVuSans-32"/>
       <use xlink:href="#DejaVuSans-35" x="63.623047"/>
       <use xlink:href="#DejaVuSans-25" x="127.246094"/>
      </g>
     </g>
    </g>
    <g id="ytick_4">
     <g id="line2d_20">
      <path d="M 456.381818 80.64 
C 472.26614 80.64 487.996006 83.768865 502.671206 89.847532 
C 517.346406 95.926198 530.681543 104.836452 541.913454 116.068364 
C 553.145366 127.300275 562.05562 140.635412 568.134286 155.310612 
C 574.212953 169.985812 577.341818 185.715678 577.341818 201.6 
C 577.341818 217.484322 574.212953 233.214188 568.134286 247.889388 
C 562.05562 262.564588 553.145366 275.899725 541.913454 287.131636 
C 530.681543 298.363548 517.346406 307.273802 502.671206 313.352468 
C 487.996006 319.431135 472.26614 322.56 456.381818 322.56 
C 440.497497 322.56 424.76763 319.431135 410.09243 313.352468 
C 395.417231 307.273802 382.082093 298.363548 370.850182 287.131636 
C 359.61827 275.899725 350.708017 262.564588 344.62935 247.889388 
C 338.550683 233.214188 335.421818 217.484322 335.421818 201.6 
C 335.421818 185.715678 338.550683 169.985812 344.62935 155.310612 
C 350.708017 140.635412 359.61827 127.300275 370.850182 116.068364 
C 382.082093 104.836452 395.417231 95.926198 410.09243 89.847532 
C 424.76763 83.768865 440.497497 80.64 456.381818 80.64 
" clip-path="url(#p9e441c65ae)" style="fill: none; stroke: #dad8d7; stroke-opacity: 0.5; stroke-width: 0.8; stroke-linecap: square"/>
     </g>
     <g id="text_21">
      <!-- 50% -->
      <g transform="translate(502.671206 87.767844) scale(0.1 -0.1)">
       <use xlink:href="#DejaVuSans-35"/>
       <use xlink:href="#DejaVuSans-30" x="63.623047"/>
       <use xlink:href="#DejaVuSans-25" x="127.246094"/>
      </g>
     </g>
    </g>
   </g>
   <g id="patch_20">
    <path d="M 456.381818 201.6 
C 456.381818 201.6 456.381818 201.6 456.381818 201.6 
C 456.381818 201.6 456.381818 201.6 456.381818 201.6 
L 457.234867 197.311432 
C 456.953956 197.255556 456.668233 197.227414 456.381818 197.227414 
C 456.095403 197.227414 455.80968 197.255556 455.528769 197.311432 
z
" clip-path="url(#p9e441c65ae)" style="fill: #565a5c"/>
   </g>
   <g id="patch_21">
    <path d="M 456.381818 201.6 
C 456.381818 201.6 456.381818 201.6 456.381818 201.6 
C 456.381818 201.6 456.381818 201.6 456.381818 201.6 
L 458.76152 198.038525 
C 458.528235 197.882649 458.280197 197.750071 458.020985 197.642701 
C 457.761773 197.535332 457.492637 197.45369 457.217458 197.398954 
z
" clip-path="url(#p9e441c65ae)" style="fill: #565a5c"/>
   </g>
   <g id="patch_22">
    <path d="M 456.381818 201.6 
C 456.381818 201.6 456.381818 201.6 456.381818 201.6 
C 456.381818 201.6 456.381818 201.6 456.381818 201.6 
L 477.67647 187.371369 
C 476.74446 185.976519 475.677653 184.67661 474.491431 183.490388 
C 473.305208 182.304165 472.005299 181.237358 470.610449 180.305349 
z
" clip-path="url(#p9e441c65ae)" style="fill: #565a5c"/>
   </g>
   <g id="patch_23">
    <path d="M 456.381818 201.6 
C 456.381818 201.6 456.381818 201.6 456.381818 201.6 
C 456.381818 201.6 456.381818 201.6 456.381818 201.6 
L 482.113225 196.481705 
C 481.777964 194.796237 481.27791 193.14778 480.620273 191.560103 
C 479.962636 189.972427 479.150592 188.4532 478.195851 187.024329 
z
" clip-path="url(#p9e441c65ae)" style="fill: #565a5c"/>
   </g>
   <g id="patch_24">
    <path d="M 456.381818 201.6 
C 456.381818 201.6 456.381818 201.6 456.381818 201.6 
C 456.381818 201.6 456.381818 201.6 456.381818 201.6 
L 500.142714 210.304583 
C 500.712884 207.438141 501.00004 204.522599 501.00004 201.6 
C 501.00004 198.677401 500.712884 195.761859 500.142714 192.895417 
z
" clip-path="url(#p9e441c65ae)" style="fill: #565a5c"/>
   </g>
   <g id="patch_25">
    <path d="M 456.381818 201.6 
C 456.381818 201.6 456.381818 201.6 456.381818 201.6 
C 456.381818 201.6 456.381818 201.6 456.381818 201.6 
L 476.934496 215.33286 
C 477.834031 213.986611 478.599119 212.55523 479.21873 211.059359 
C 479.83834 209.563487 480.30948 208.010348 480.625354 206.422339 
z
" clip-path="url(#p9e441c65ae)" style="fill: #565a5c"/>
   </g>
   <g id="patch_26">
    <path d="M 456.381818 201.6 
C 456.381818 201.6 456.381818 201.6 456.381818 201.6 
C 456.381818 201.6 456.381818 201.6 456.381818 201.6 
L 464.909081 214.361951 
C 465.74502 213.803395 466.524059 213.164054 467.234966 212.453147 
C 467.945873 211.742241 468.585214 210.963201 469.14377 210.127263 
z
" clip-path="url(#p9e441c65ae)" style="fill: #565a5c"/>
   </g>
   <g id="patch_27">
    <path d="M 456.381818 201.6 
C 456.381818 201.6 456.381818 201.6 456.381818 201.6 
C 456.381818 201.6 456.381818 201.6 456.381818 201.6 
L 460.368517 221.64249 
C 461.681348 221.381352 462.96535 220.991854 464.20201 220.479613 
C 465.438669 219.967372 466.622013 219.334861 467.734977 218.591203 
z
" clip-path="url(#p9e441c65ae)" style="fill: #565a5c"/>
   </g>
   <g id="patch_28">
    <path d="M 456.381818 201.6 
C 456.381818 201.6 456.381818 201.6 456.381818 201.6 
C 456.381818 201.6 456.381818 201.6 456.381818 201.6 
L 452.79553 219.629489 
C 453.976504 219.864399 455.177707 219.982707 456.381818 219.982707 
C 457.585929 219.982707 458.787132 219.864399 459.968107 219.629489 
z
" clip-path="url(#p9e441c65ae)" style="fill: #565a5c"/>
   </g>
   <g id="patch_29">
    <path d="M 456.381818 201.6 
C 456.381818 201.6 456.381818 201.6 456.381818 201.6 
C 456.381818 201.6 456.381818 201.6 456.381818 201.6 
L 449.986371 211.171464 
C 450.613324 211.59038 451.279924 211.946685 451.976557 212.23524 
C 452.673191 212.523795 453.396494 212.743207 454.136036 212.890311 
z
" clip-path="url(#p9e441c65ae)" style="fill: #565a5c"/>
   </g>
   <g id="patch_30">
    <path d="M 456.381818 201.6 
C 456.381818 201.6 456.381818 201.6 456.381818 201.6 
C 456.381818 201.6 456.381818 201.6 456.381818 201.6 
L 453.933304 203.236045 
C 454.040469 203.396428 454.163133 203.545895 454.299528 203.68229 
C 454.435923 203.818685 454.58539 203.941349 454.745773 204.048514 
z
" clip-path="url(#p9e441c65ae)" style="fill: #565a5c"/>
   </g>
   <g id="patch_31">
    <path d="M 456.381818 201.6 
C 456.381818 201.6 456.381818 201.6 456.381818 201.6 
C 456.381818 201.6 456.381818 201.6 456.381818 201.6 
L 448.15477 203.236462 
C 448.261962 203.775353 448.421843 204.302411 448.632108 204.810035 
C 448.842373 205.317659 449.102006 205.803399 449.407263 206.260249 
z
" clip-path="url(#p9e441c65ae)" style="fill: #565a5c"/>
   </g>
   <g id="patch_32">
    <path d="M 456.381818 201.6 
C 456.381818 201.6 456.381818 201.6 456.381818 201.6 
C 456.381818 201.6 456.381818 201.6 456.381818 201.6 
L 442.028244 198.744897 
C 441.841228 199.68509 441.747041 200.641387 441.747041 201.6 
C 441.747041 202.558613 441.841228 203.51491 442.028244 204.455103 
z
" clip-path="url(#p9e441c65ae)" style="fill: #565a5c"/>
   </g>
   <g id="patch_33">
    <path d="M 456.381818 201.6 
C 456.381818 201.6 456.381818 201.6 456.381818 201.6 
C 456.381818 201.6 456.381818 201.6 456.381818 201.6 
L 444.065051 193.370199 
C 443.52598 194.176977 443.067479 195.034772 442.69616 195.931215 
C 442.324841 196.827658 442.042498 197.758419 441.853201 198.710078 
z
" clip-path="url(#p9e441c65ae)" style="fill: #565a5c"/>
   </g>
   <g id="patch_34">
    <path d="M 456.381818 201.6 
C 456.381818 201.6 456.381818 201.6 456.381818 201.6 
C 456.381818 201.6 456.381818 201.6 456.381818 201.6 
L 453.853385 197.815933 
C 453.60552 197.981551 453.374526 198.171123 453.163734 198.381916 
C 452.952942 198.592708 452.76337 198.823702 452.597751 199.071567 
z
" clip-path="url(#p9e441c65ae)" style="fill: #565a5c"/>
   </g>
   <g id="patch_35">
    <path d="M 456.381818 201.6 
C 456.381818 201.6 456.381818 201.6 456.381818 201.6 
C 456.381818 201.6 456.381818 201.6 456.381818 201.6 
L 455.807316 198.711781 
C 455.61813 198.749412 455.4331 198.805541 455.254891 198.879357 
C 455.076682 198.953174 454.906157 199.044321 454.745773 199.151486 
z
" clip-path="url(#p9e441c65ae)" style="fill: #565a5c"/>
   </g>
   <g id="text_22">
    <!-- Afternoon Wind Direction -->
    <g transform="translate(381.142756 55.800937) scale(0.12 -0.12)">
     <defs>
      <path id="DejaVuSans-41" d="M 2188 4044 
L 1331 1722 
L 3047 1722 
L 2188 4044 
z
M 1831 4666 
L 2547 4666 
L 4325 0 
L 3669 0 
L 3244 1197 
L 1141 1197 
L 716 0 
L 50 0 
L 1831 4666 
z
" transform="scale(0.015625)"/>
      <path id="DejaVuSans-66" d="M 2375 4863 
L 2375 4384 
L 1825 4384 
Q 1516 4384 1395 4259 
Q 1275 4134 1275 3809 
L 1275 3500 
L 2222 3500 
L 2222 3053 
L 1275 3053 
L 1275 0 
L 697 0 
L 697 3053 
L 147 3053 
L 147 3500 
L 697 3500 
L 697 3744 
Q 697 4328 969 4595 
Q 1241 4863 1831 4863 
L 2375 4863 
z
" transform="scale(0.015625)"/>
     </defs>
     <use xlink:href="#DejaVuSans-41"/>
     <use xlink:href="#DejaVuSans-66" x="64.783203"/>
     <use xlink:href="#DejaVuSans-74" x="98.238281"/>
     <use xlink:href="#DejaVuSans-65" x="137.447266"/>
     <use xlink:href="#DejaVuSans-72" x="198.970703"/>
     <use xlink:href="#DejaVuSans-6e" x="238.333984"/>
     <use xlink:href="#DejaVuSans-6f" x="301.712891"/>
     <use xlink:href="#DejaVuSans-6f" x="362.894531"/>
     <use xlink:href="#DejaVuSans-6e" x="424.076172"/>
     <use xlink:href="#DejaVuSans-20" x="487.455078"/>
     <use xlink:href="#DejaVuSans-57" x="519.242188"/>
     <use xlink:href="#DejaVuSans-69" x="615.869141"/>
     <use xlink:href="#DejaVuSans-6e" x="643.652344"/>
     <use xlink:href="#DejaVuSans-64" x="707.03125"/>
     <use xlink:href="#DejaVuSans-20" x="770.507812"/>
     <use xlink:href="#DejaVuSans-44" x="802.294922"/>
     <use xlink:href="#DejaVuSans-69" x="879.296875"/>
     <use xlink:href="#DejaVuSans-72" x="907.080078"/>
     <use xlink:href="#DejaVuSans-65" x="945.943359"/>
     <use xlink:href="#DejaVuSans-63" x="1007.466797"/>
     <use xlink:href="#DejaVuSans-74" x="1062.447266"/>
     <use xlink:href="#DejaVuSans-69" x="1101.65625"/>
     <use xlink:href="#DejaVuSans-6f" x="1129.439453"/>
     <use xlink:href="#DejaVuSans-6e" x="1190.621094"/>
    </g>
   </g>
  </g>
  <g id="text_23">
   <!-- Wind Direction in Sydney from February 2008 to June 2017 -->
   <g transform="translate(88.467031 17.837812) scale(0.14 -0.14)">
    <defs>
     <path id="DejaVuSans-79" d="M 2059 -325 
Q 1816 -950 1584 -1140 
Q 1353 -1331 966 -1331 
L 506 -1331 
L 506 -850 
L 844 -850 
Q 1081 -850 1212 -737 
Q 1344 -625 1503 -206 
L 1606 56 
L 191 3500 
L 800 3500 
L 1894 763 
L 2988 3500 
L 3597 3500 
L 2059 -325 
z
" transform="scale(0.015625)"/>
     <path id="DejaVuSans-6d" d="M 3328 2828 
Q 3544 3216 3844 3400 
Q 4144 3584 4550 3584 
Q 5097 3584 5394 3201 
Q 5691 2819 5691 2113 
L 5691 0 
L 5113 0 
L 5113 2094 
Q 5113 2597 4934 2840 
Q 4756 3084 4391 3084 
Q 3944 3084 3684 2787 
Q 3425 2491 3425 1978 
L 3425 0 
L 2847 0 
L 2847 2094 
Q 2847 2600 2669 2842 
Q 2491 3084 2119 3084 
Q 1678 3084 1418 2786 
Q 1159 2488 1159 1978 
L 1159 0 
L 581 0 
L 581 3500 
L 1159 3500 
L 1159 2956 
Q 1356 3278 1631 3431 
Q 1906 3584 2284 3584 
Q 2666 3584 2933 3390 
Q 3200 3197 3328 2828 
z
" transform="scale(0.015625)"/>
     <path id="DejaVuSans-46" d="M 628 4666 
L 3309 4666 
L 3309 4134 
L 1259 4134 
L 1259 2759 
L 3109 2759 
L 3109 2228 
L 1259 2228 
L 1259 0 
L 628 0 
L 628 4666 
z
" transform="scale(0.015625)"/>
     <path id="DejaVuSans-62" d="M 3116 1747 
Q 3116 2381 2855 2742 
Q 2594 3103 2138 3103 
Q 1681 3103 1420 2742 
Q 1159 2381 1159 1747 
Q 1159 1113 1420 752 
Q 1681 391 2138 391 
Q 2594 391 2855 752 
Q 3116 1113 3116 1747 
z
M 1159 2969 
Q 1341 3281 1617 3432 
Q 1894 3584 2278 3584 
Q 2916 3584 3314 3078 
Q 3713 2572 3713 1747 
Q 3713 922 3314 415 
Q 2916 -91 2278 -91 
Q 1894 -91 1617 61 
Q 1341 213 1159 525 
L 1159 0 
L 581 0 
L 581 4863 
L 1159 4863 
L 1159 2969 
z
" transform="scale(0.015625)"/>
     <path id="DejaVuSans-75" d="M 544 1381 
L 544 3500 
L 1119 3500 
L 1119 1403 
Q 1119 906 1312 657 
Q 1506 409 1894 409 
Q 2359 409 2629 706 
Q 2900 1003 2900 1516 
L 2900 3500 
L 3475 3500 
L 3475 0 
L 2900 0 
L 2900 538 
Q 2691 219 2414 64 
Q 2138 -91 1772 -91 
Q 1169 -91 856 284 
Q 544 659 544 1381 
z
M 1991 3584 
L 1991 3584 
z
" transform="scale(0.015625)"/>
     <path id="DejaVuSans-61" d="M 2194 1759 
Q 1497 1759 1228 1600 
Q 959 1441 959 1056 
Q 959 750 1161 570 
Q 1363 391 1709 391 
Q 2188 391 2477 730 
Q 2766 1069 2766 1631 
L 2766 1759 
L 2194 1759 
z
M 3341 1997 
L 3341 0 
L 2766 0 
L 2766 531 
Q 2569 213 2275 61 
Q 1981 -91 1556 -91 
Q 1019 -91 701 211 
Q 384 513 384 1019 
Q 384 1609 779 1909 
Q 1175 2209 1959 2209 
L 2766 2209 
L 2766 2266 
Q 2766 2663 2505 2880 
Q 2244 3097 1772 3097 
Q 1472 3097 1187 3025 
Q 903 2953 641 2809 
L 641 3341 
Q 956 3463 1253 3523 
Q 1550 3584 1831 3584 
Q 2591 3584 2966 3190 
Q 3341 2797 3341 1997 
z
" transform="scale(0.015625)"/>
     <path id="DejaVuSans-38" d="M 2034 2216 
Q 1584 2216 1326 1975 
Q 1069 1734 1069 1313 
Q 1069 891 1326 650 
Q 1584 409 2034 409 
Q 2484 409 2743 651 
Q 3003 894 3003 1313 
Q 3003 1734 2745 1975 
Q 2488 2216 2034 2216 
z
M 1403 2484 
Q 997 2584 770 2862 
Q 544 3141 544 3541 
Q 544 4100 942 4425 
Q 1341 4750 2034 4750 
Q 2731 4750 3128 4425 
Q 3525 4100 3525 3541 
Q 3525 3141 3298 2862 
Q 3072 2584 2669 2484 
Q 3125 2378 3379 2068 
Q 3634 1759 3634 1313 
Q 3634 634 3220 271 
Q 2806 -91 2034 -91 
Q 1263 -91 848 271 
Q 434 634 434 1313 
Q 434 1759 690 2068 
Q 947 2378 1403 2484 
z
M 1172 3481 
Q 1172 3119 1398 2916 
Q 1625 2713 2034 2713 
Q 2441 2713 2670 2916 
Q 2900 3119 2900 3481 
Q 2900 3844 2670 4047 
Q 2441 4250 2034 4250 
Q 1625 4250 1398 4047 
Q 1172 3844 1172 3481 
z
" transform="scale(0.015625)"/>
     <path id="DejaVuSans-4a" d="M 628 4666 
L 1259 4666 
L 1259 325 
Q 1259 -519 939 -900 
Q 619 -1281 -91 -1281 
L -331 -1281 
L -331 -750 
L -134 -750 
Q 284 -750 456 -515 
Q 628 -281 628 325 
L 628 4666 
z
" transform="scale(0.015625)"/>
     <path id="DejaVuSans-31" d="M 794 531 
L 1825 531 
L 1825 4091 
L 703 3866 
L 703 4441 
L 1819 4666 
L 2450 4666 
L 2450 531 
L 3481 531 
L 3481 0 
L 794 0 
L 794 531 
z
" transform="scale(0.015625)"/>
     <path id="DejaVuSans-37" d="M 525 4666 
L 3525 4666 
L 3525 4397 
L 1831 0 
L 1172 0 
L 2766 4134 
L 525 4134 
L 525 4666 
z
" transform="scale(0.015625)"/>
    </defs>
    <use xlink:href="#DejaVuSans-57"/>
    <use xlink:href="#DejaVuSans-69" x="96.626953"/>
    <use xlink:href="#DejaVuSans-6e" x="124.410156"/>
    <use xlink:href="#DejaVuSans-64" x="187.789062"/>
    <use xlink:href="#DejaVuSans-20" x="251.265625"/>
    <use xlink:href="#DejaVuSans-44" x="283.052734"/>
    <use xlink:href="#DejaVuSans-69" x="360.054688"/>
    <use xlink:href="#DejaVuSans-72" x="387.837891"/>
    <use xlink:href="#DejaVuSans-65" x="426.701172"/>
    <use xlink:href="#DejaVuSans-63" x="488.224609"/>
    <use xlink:href="#DejaVuSans-74" x="543.205078"/>
    <use xlink:href="#DejaVuSans-69" x="582.414062"/>
    <use xlink:href="#DejaVuSans-6f" x="610.197266"/>
    <use xlink:href="#DejaVuSans-6e" x="671.378906"/>
    <use xlink:href="#DejaVuSans-20" x="734.757812"/>
    <use xlink:href="#DejaVuSans-69" x="766.544922"/>
    <use xlink:href="#DejaVuSans-6e" x="794.328125"/>
    <use xlink:href="#DejaVuSans-20" x="857.707031"/>
    <use xlink:href="#DejaVuSans-53" x="889.494141"/>
    <use xlink:href="#DejaVuSans-79" x="952.970703"/>
    <use xlink:href="#DejaVuSans-64" x="1012.150391"/>
    <use xlink:href="#DejaVuSans-6e" x="1075.626953"/>
    <use xlink:href="#DejaVuSans-65" x="1139.005859"/>
    <use xlink:href="#DejaVuSans-79" x="1200.529297"/>
    <use xlink:href="#DejaVuSans-20" x="1259.708984"/>
    <use xlink:href="#DejaVuSans-66" x="1291.496094"/>
    <use xlink:href="#DejaVuSans-72" x="1326.701172"/>
    <use xlink:href="#DejaVuSans-6f" x="1365.564453"/>
    <use xlink:href="#DejaVuSans-6d" x="1426.746094"/>
    <use xlink:href="#DejaVuSans-20" x="1524.158203"/>
    <use xlink:href="#DejaVuSans-46" x="1555.945312"/>
    <use xlink:href="#DejaVuSans-65" x="1607.964844"/>
    <use xlink:href="#DejaVuSans-62" x="1669.488281"/>
    <use xlink:href="#DejaVuSans-72" x="1732.964844"/>
    <use xlink:href="#DejaVuSans-75" x="1774.078125"/>
    <use xlink:href="#DejaVuSans-61" x="1837.457031"/>
    <use xlink:href="#DejaVuSans-72" x="1898.736328"/>
    <use xlink:href="#DejaVuSans-79" x="1939.849609"/>
    <use xlink:href="#DejaVuSans-20" x="1999.029297"/>
    <use xlink:href="#DejaVuSans-32" x="2030.816406"/>
    <use xlink:href="#DejaVuSans-30" x="2094.439453"/>
    <use xlink:href="#DejaVuSans-30" x="2158.0625"/>
    <use xlink:href="#DejaVuSans-38" x="2221.685547"/>
    <use xlink:href="#DejaVuSans-20" x="2285.308594"/>
    <use xlink:href="#DejaVuSans-74" x="2317.095703"/>
    <use xlink:href="#DejaVuSans-6f" x="2356.304688"/>
    <use xlink:href="#DejaVuSans-20" x="2417.486328"/>
    <use xlink:href="#DejaVuSans-4a" x="2449.273438"/>
    <use xlink:href="#DejaVuSans-75" x="2478.765625"/>
    <use xlink:href="#DejaVuSans-6e" x="2542.144531"/>
    <use xlink:href="#DejaVuSans-65" x="2605.523438"/>
    <use xlink:href="#DejaVuSans-20" x="2667.046875"/>
    <use xlink:href="#DejaVuSans-32" x="2698.833984"/>
    <use xlink:href="#DejaVuSans-30" x="2762.457031"/>
    <use xlink:href="#DejaVuSans-31" x="2826.080078"/>
    <use xlink:href="#DejaVuSans-37" x="2889.703125"/>
   </g>
  </g>
  <g id="text_24">
   <!-- Source: https://www.kaggle.com/datasets/jsphyg/weather-dataset-rattle-package -->
   <g style="opacity: 0.7" transform="translate(7.2 378.72) scale(0.1 -0.1)">
    <defs>
     <path id="DejaVuSans-3a" d="M 750 794 
L 1409 794 
L 1409 0 
L 750 0 
L 750 794 
z
M 750 3309 
L 1409 3309 
L 1409 2516 
L 750 2516 
L 750 3309 
z
" transform="scale(0.015625)"/>
     <path id="DejaVuSans-68" d="M 3513 2113 
L 3513 0 
L 2938 0 
L 2938 2094 
Q 2938 2591 2744 2837 
Q 2550 3084 2163 3084 
Q 1697 3084 1428 2787 
Q 1159 2491 1159 1978 
L 1159 0 
L 581 0 
L 581 4863 
L 1159 4863 
L 1159 2956 
Q 1366 3272 1645 3428 
Q 1925 3584 2291 3584 
Q 2894 3584 3203 3211 
Q 3513 2838 3513 2113 
z
" transform="scale(0.015625)"/>
     <path id="DejaVuSans-70" d="M 1159 525 
L 1159 -1331 
L 581 -1331 
L 581 3500 
L 1159 3500 
L 1159 2969 
Q 1341 3281 1617 3432 
Q 1894 3584 2278 3584 
Q 2916 3584 3314 3078 
Q 3713 2572 3713 1747 
Q 3713 922 3314 415 
Q 2916 -91 2278 -91 
Q 1894 -91 1617 61 
Q 1341 213 1159 525 
z
M 3116 1747 
Q 3116 2381 2855 2742 
Q 2594 3103 2138 3103 
Q 1681 3103 1420 2742 
Q 1159 2381 1159 1747 
Q 1159 1113 1420 752 
Q 1681 391 2138 391 
Q 2594 391 2855 752 
Q 3116 1113 3116 1747 
z
" transform="scale(0.015625)"/>
     <path id="DejaVuSans-73" d="M 2834 3397 
L 2834 2853 
Q 2591 2978 2328 3040 
Q 2066 3103 1784 3103 
Q 1356 3103 1142 2972 
Q 928 2841 928 2578 
Q 928 2378 1081 2264 
Q 1234 2150 1697 2047 
L 1894 2003 
Q 2506 1872 2764 1633 
Q 3022 1394 3022 966 
Q 3022 478 2636 193 
Q 2250 -91 1575 -91 
Q 1294 -91 989 -36 
Q 684 19 347 128 
L 347 722 
Q 666 556 975 473 
Q 1284 391 1588 391 
Q 1994 391 2212 530 
Q 2431 669 2431 922 
Q 2431 1156 2273 1281 
Q 2116 1406 1581 1522 
L 1381 1569 
Q 847 1681 609 1914 
Q 372 2147 372 2553 
Q 372 3047 722 3315 
Q 1072 3584 1716 3584 
Q 2034 3584 2315 3537 
Q 2597 3491 2834 3397 
z
" transform="scale(0.015625)"/>
     <path id="DejaVuSans-2f" d="M 1625 4666 
L 2156 4666 
L 531 -594 
L 0 -594 
L 1625 4666 
z
" transform="scale(0.015625)"/>
     <path id="DejaVuSans-77" d="M 269 3500 
L 844 3500 
L 1563 769 
L 2278 3500 
L 2956 3500 
L 3675 769 
L 4391 3500 
L 4966 3500 
L 4050 0 
L 3372 0 
L 2619 2869 
L 1863 0 
L 1184 0 
L 269 3500 
z
" transform="scale(0.015625)"/>
     <path id="DejaVuSans-2e" d="M 684 794 
L 1344 794 
L 1344 0 
L 684 0 
L 684 794 
z
" transform="scale(0.015625)"/>
     <path id="DejaVuSans-6b" d="M 581 4863 
L 1159 4863 
L 1159 1991 
L 2875 3500 
L 3609 3500 
L 1753 1863 
L 3688 0 
L 2938 0 
L 1159 1709 
L 1159 0 
L 581 0 
L 581 4863 
z
" transform="scale(0.015625)"/>
     <path id="DejaVuSans-6c" d="M 603 4863 
L 1178 4863 
L 1178 0 
L 603 0 
L 603 4863 
z
" transform="scale(0.015625)"/>
     <path id="DejaVuSans-6a" d="M 603 3500 
L 1178 3500 
L 1178 -63 
Q 1178 -731 923 -1031 
Q 669 -1331 103 -1331 
L -116 -1331 
L -116 -844 
L 38 -844 
Q 366 -844 484 -692 
Q 603 -541 603 -63 
L 603 3500 
z
M 603 4863 
L 1178 4863 
L 1178 4134 
L 603 4134 
L 603 4863 
z
" transform="scale(0.015625)"/>
     <path id="DejaVuSans-2d" d="M 313 2009 
L 1997 2009 
L 1997 1497 
L 313 1497 
L 313 2009 
z
" transform="scale(0.015625)"/>
    </defs>
    <use xlink:href="#DejaVuSans-53"/>
    <use xlink:href="#DejaVuSans-6f" x="63.476562"/>
    <use xlink:href="#DejaVuSans-75" x="124.658203"/>
    <use xlink:href="#DejaVuSans-72" x="188.037109"/>
    <use xlink:href="#DejaVuSans-63" x="226.900391"/>
    <use xlink:href="#DejaVuSans-65" x="281.880859"/>
    <use xlink:href="#DejaVuSans-3a" x="343.404297"/>
    <use xlink:href="#DejaVuSans-20" x="377.095703"/>
    <use xlink:href="#DejaVuSans-68" x="408.882812"/>
    <use xlink:href="#DejaVuSans-74" x="472.261719"/>
    <use xlink:href="#DejaVuSans-74" x="511.470703"/>
    <use xlink:href="#DejaVuSans-70" x="550.679688"/>
    <use xlink:href="#DejaVuSans-73" x="614.15625"/>
    <use xlink:href="#DejaVuSans-3a" x="666.255859"/>
    <use xlink:href="#DejaVuSans-2f" x="699.947266"/>
    <use xlink:href="#DejaVuSans-2f" x="733.638672"/>
    <use xlink:href="#DejaVuSans-77" x="767.330078"/>
    <use xlink:href="#DejaVuSans-77" x="849.117188"/>
    <use xlink:href="#DejaVuSans-77" x="930.904297"/>
    <use xlink:href="#DejaVuSans-2e" x="1003.566406"/>
    <use xlink:href="#DejaVuSans-6b" x="1035.353516"/>
    <use xlink:href="#DejaVuSans-61" x="1091.513672"/>
    <use xlink:href="#DejaVuSans-67" x="1152.792969"/>
    <use xlink:href="#DejaVuSans-67" x="1216.269531"/>
    <use xlink:href="#DejaVuSans-6c" x="1279.746094"/>
    <use xlink:href="#DejaVuSans-65" x="1307.529297"/>
    <use xlink:href="#DejaVuSans-2e" x="1369.052734"/>
    <use xlink:href="#DejaVuSans-63" x="1400.839844"/>
    <use xlink:href="#DejaVuSans-6f" x="1455.820312"/>
    <use xlink:href="#DejaVuSans-6d" x="1517.001953"/>
    <use xlink:href="#DejaVuSans-2f" x="1614.414062"/>
    <use xlink:href="#DejaVuSans-64" x="1648.105469"/>
    <use xlink:href="#DejaVuSans-61" x="1711.582031"/>
    <use xlink:href="#DejaVuSans-74" x="1772.861328"/>
    <use xlink:href="#DejaVuSans-61" x="1812.070312"/>
    <use xlink:href="#DejaVuSans-73" x="1873.349609"/>
    <use xlink:href="#DejaVuSans-65" x="1925.449219"/>
    <use xlink:href="#DejaVuSans-74" x="1986.972656"/>
    <use xlink:href="#DejaVuSans-73" x="2026.181641"/>
    <use xlink:href="#DejaVuSans-2f" x="2078.28125"/>
    <use xlink:href="#DejaVuSans-6a" x="2111.972656"/>
    <use xlink:href="#DejaVuSans-73" x="2139.755859"/>
    <use xlink:href="#DejaVuSans-70" x="2191.855469"/>
    <use xlink:href="#DejaVuSans-68" x="2255.332031"/>
    <use xlink:href="#DejaVuSans-79" x="2318.710938"/>
    <use xlink:href="#DejaVuSans-67" x="2377.890625"/>
    <use xlink:href="#DejaVuSans-2f" x="2441.367188"/>
    <use xlink:href="#DejaVuSans-77" x="2475.058594"/>
    <use xlink:href="#DejaVuSans-65" x="2556.845703"/>
    <use xlink:href="#DejaVuSans-61" x="2618.369141"/>
    <use xlink:href="#DejaVuSans-74" x="2679.648438"/>
    <use xlink:href="#DejaVuSans-68" x="2718.857422"/>
    <use xlink:href="#DejaVuSans-65" x="2782.236328"/>
    <use xlink:href="#DejaVuSans-72" x="2843.759766"/>
    <use xlink:href="#DejaVuSans-2d" x="2878.498047"/>
    <use xlink:href="#DejaVuSans-64" x="2914.582031"/>
    <use xlink:href="#DejaVuSans-61" x="2978.058594"/>
    <use xlink:href="#DejaVuSans-74" x="3039.337891"/>
    <use xlink:href="#DejaVuSans-61" x="3078.546875"/>
    <use xlink:href="#DejaVuSans-73" x="3139.826172"/>
    <use xlink:href="#DejaVuSans-65" x="3191.925781"/>
    <use xlink:href="#DejaVuSans-74" x="3253.449219"/>
    <use xlink:href="#DejaVuSans-2d" x="3292.658203"/>
    <use xlink:href="#DejaVuSans-72" x="3328.742188"/>
    <use xlink:href="#DejaVuSans-61" x="3369.855469"/>
    <use xlink:href="#DejaVuSans-74" x="3431.134766"/>
    <use xlink:href="#DejaVuSans-74" x="3470.34375"/>
    <use xlink:href="#DejaVuSans-6c" x="3509.552734"/>
    <use xlink:href="#DejaVuSans-65" x="3537.335938"/>
    <use xlink:href="#DejaVuSans-2d" x="3598.859375"/>
    <use xlink:href="#DejaVuSans-70" x="3634.943359"/>
    <use xlink:href="#DejaVuSans-61" x="3698.419922"/>
    <use xlink:href="#DejaVuSans-63" x="3759.699219"/>
    <use xlink:href="#DejaVuSans-6b" x="3814.679688"/>
    <use xlink:href="#DejaVuSans-61" x="3870.839844"/>
    <use xlink:href="#DejaVuSans-67" x="3932.119141"/>
    <use xlink:href="#DejaVuSans-65" x="3995.595703"/>
   </g>
  </g>
 </g>
 <defs>
  <clipPath id="p5cf64f9755">
   <path d="M 272.978182 201.6 
C 272.978182 185.715678 269.849317 169.985812 263.77065 155.310612 
C 257.691983 140.635412 248.78173 127.300275 237.549818 116.068364 
C 226.317907 104.836452 212.982769 95.926198 198.30757 89.847532 
C 183.63237 83.768865 167.902503 80.64 152.018182 80.64 
C 136.13386 80.64 120.403994 83.768865 105.728794 89.847532 
C 91.053594 95.926198 77.718457 104.836452 66.486546 116.068364 
C 55.254634 127.300275 46.34438 140.635412 40.265714 155.310612 
C 34.187047 169.985812 31.058182 185.715678 31.058182 201.6 
C 31.058182 217.484322 34.187047 233.214188 40.265714 247.889388 
C 46.34438 262.564588 55.254634 275.899725 66.486546 287.131636 
C 77.718457 298.363548 91.053594 307.273802 105.728794 313.352468 
C 120.403994 319.431135 136.13386 322.56 152.018182 322.56 
C 167.902503 322.56 183.63237 319.431135 198.30757 313.352468 
C 212.982769 307.273802 226.317907 298.363548 237.549818 287.131636 
C 248.78173 275.899725 257.691983 262.564588 263.77065 247.889388 
C 269.849317 233.214188 272.978182 217.484322 272.978182 201.6 
M 152.018182 201.6 
C 152.018182 201.6 152.018182 201.6 152.018182 201.6 
C 152.018182 201.6 152.018182 201.6 152.018182 201.6 
C 152.018182 201.6 152.018182 201.6 152.018182 201.6 
C 152.018182 201.6 152.018182 201.6 152.018182 201.6 
C 152.018182 201.6 152.018182 201.6 152.018182 201.6 
C 152.018182 201.6 152.018182 201.6 152.018182 201.6 
C 152.018182 201.6 152.018182 201.6 152.018182 201.6 
C 152.018182 201.6 152.018182 201.6 152.018182 201.6 
C 152.018182 201.6 152.018182 201.6 152.018182 201.6 
C 152.018182 201.6 152.018182 201.6 152.018182 201.6 
C 152.018182 201.6 152.018182 201.6 152.018182 201.6 
C 152.018182 201.6 152.018182 201.6 152.018182 201.6 
C 152.018182 201.6 152.018182 201.6 152.018182 201.6 
C 152.018182 201.6 152.018182 201.6 152.018182 201.6 
C 152.018182 201.6 152.018182 201.6 152.018182 201.6 
C 152.018182 201.6 152.018182 201.6 152.018182 201.6 
z
"/>
  </clipPath>
  <clipPath id="p9e441c65ae">
   <path d="M 577.341818 201.6 
C 577.341818 185.715678 574.212953 169.985812 568.134286 155.310612 
C 562.05562 140.635412 553.145366 127.300275 541.913454 116.068364 
C 530.681543 104.836452 517.346406 95.926198 502.671206 89.847532 
C 487.996006 83.768865 472.26614 80.64 456.381818 80.64 
C 440.497497 80.64 424.76763 83.768865 410.09243 89.847532 
C 395.417231 95.926198 382.082093 104.836452 370.850182 116.068364 
C 359.61827 127.300275 350.708017 140.635412 344.62935 155.310612 
C 338.550683 169.985812 335.421818 185.715678 335.421818 201.6 
C 335.421818 217.484322 338.550683 233.214188 344.62935 247.889388 
C 350.708017 262.564588 359.61827 275.899725 370.850182 287.131636 
C 382.082093 298.363548 395.417231 307.273802 410.09243 313.352468 
C 424.76763 319.431135 440.497497 322.56 456.381818 322.56 
C 472.26614 322.56 487.996006 319.431135 502.671206 313.352468 
C 517.346406 307.273802 530.681543 298.363548 541.913454 287.131636 
C 553.145366 275.899725 562.05562 262.564588 568.134286 247.889388 
C 574.212953 233.214188 577.341818 217.484322 577.341818 201.6 
M 456.381818 201.6 
C 456.381818 201.6 456.381818 201.6 456.381818 201.6 
C 456.381818 201.6 456.381818 201.6 456.381818 201.6 
C 456.381818 201.6 456.381818 201.6 456.381818 201.6 
C 456.381818 201.6 456.381818 201.6 456.381818 201.6 
C 456.381818 201.6 456.381818 201.6 456.381818 201.6 
C 456.381818 201.6 456.381818 201.6 456.381818 201.6 
C 456.381818 201.6 456.381818 201.6 456.381818 201.6 
C 456.381818 201.6 456.381818 201.6 456.381818 201.6 
C 456.381818 201.6 456.381818 201.6 456.381818 201.6 
C 456.381818 201.6 456.381818 201.6 456.381818 201.6 
C 456.381818 201.6 456.381818 201.6 456.381818 201.6 
C 456.381818 201.6 456.381818 201.6 456.381818 201.6 
C 456.381818 201.6 456.381818 201.6 456.381818 201.6 
C 456.381818 201.6 456.381818 201.6 456.381818 201.6 
C 456.381818 201.6 456.381818 201.6 456.381818 201.6 
C 456.381818 201.6 456.381818 201.6 456.381818 201.6 
z
"/>
  </clipPath>
 </defs>
</svg>
