<?xml version="1.0" encoding="utf-8" standalone="no"?>
<!DOCTYPE svg PUBLIC "-//W3C//DTD SVG 1.1//EN"
  "http://www.w3.org/Graphics/SVG/1.1/DTD/svg11.dtd">
<svg xmlns:xlink="http://www.w3.org/1999/xlink" width="592.125pt" height="535.597812pt" viewBox="0 0 592.125 535.597812" xmlns="http://www.w3.org/2000/svg" version="1.1">
 <metadata>
  <rdf:RDF xmlns:dc="http://purl.org/dc/elements/1.1/" xmlns:cc="http://creativecommons.org/ns#" xmlns:rdf="http://www.w3.org/1999/02/22-rdf-syntax-ns#">
   <cc:Work>
    <dc:type rdf:resource="http://purl.org/dc/dcmitype/StillImage"/>
    <dc:date>2024-03-08T16:30:08.329303</dc:date>
    <dc:format>image/svg+xml</dc:format>
    <dc:creator>
     <cc:Agent>
      <dc:title>Matplotlib v3.8.0, https://matplotlib.org/</dc:title>
     </cc:Agent>
    </dc:creator>
   </cc:Work>
  </rdf:RDF>
 </metadata>
 <defs>
  <style type="text/css">*{stroke-linejoin: round; stroke-linecap: butt}</style>
 </defs>
 <g id="figure_1">
  <g id="patch_1">
   <path d="M 0 535.597812 
L 592.125 535.597812 
L 592.125 0 
L 0 0 
z
" style="fill: #ffffff"/>
  </g>
  <g id="axes_1">
   <g id="patch_2">
    <path d="M 26.925 483.118125 
L 584.925 483.118125 
L 584.925 22.318125 
L 26.925 22.318125 
z
" style="fill: #ffffff"/>
   </g>
   <g id="matplotlib.axis_1">
    <g id="xtick_1">
     <g id="line2d_1">
      <defs>
       <path id="mf6a4c2fa55" d="M 0 0 
L 0 3.5 
" style="stroke: #000000; stroke-width: 0.8"/>
      </defs>
      <g>
       <use xlink:href="#mf6a4c2fa55" x="136.834091" y="483.118125" style="stroke: #000000; stroke-width: 0.8"/>
      </g>
     </g>
     <g id="text_1">
      <!-- Morning -->
      <g transform="translate(116.591903 497.716562) scale(0.1 -0.1)">
       <defs>
        <path id="DejaVuSans-4d" d="M 628 4666 
L 1569 4666 
L 2759 1491 
L 3956 4666 
L 4897 4666 
L 4897 0 
L 4281 0 
L 4281 4097 
L 3078 897 
L 2444 897 
L 1241 4097 
L 1241 0 
L 628 0 
L 628 4666 
z
" transform="scale(0.015625)"/>
        <path id="DejaVuSans-6f" d="M 1959 3097 
Q 1497 3097 1228 2736 
Q 959 2375 959 1747 
Q 959 1119 1226 758 
Q 1494 397 1959 397 
Q 2419 397 2687 759 
Q 2956 1122 2956 1747 
Q 2956 2369 2687 2733 
Q 2419 3097 1959 3097 
z
M 1959 3584 
Q 2709 3584 3137 3096 
Q 3566 2609 3566 1747 
Q 3566 888 3137 398 
Q 2709 -91 1959 -91 
Q 1206 -91 779 398 
Q 353 888 353 1747 
Q 353 2609 779 3096 
Q 1206 3584 1959 3584 
z
" transform="scale(0.015625)"/>
        <path id="DejaVuSans-72" d="M 2631 2963 
Q 2534 3019 2420 3045 
Q 2306 3072 2169 3072 
Q 1681 3072 1420 2755 
Q 1159 2438 1159 1844 
L 1159 0 
L 581 0 
L 581 3500 
L 1159 3500 
L 1159 2956 
Q 1341 3275 1631 3429 
Q 1922 3584 2338 3584 
Q 2397 3584 2469 3576 
Q 2541 3569 2628 3553 
L 2631 2963 
z
" transform="scale(0.015625)"/>
        <path id="DejaVuSans-6e" d="M 3513 2113 
L 3513 0 
L 2938 0 
L 2938 2094 
Q 2938 2591 2744 2837 
Q 2550 3084 2163 3084 
Q 1697 3084 1428 2787 
Q 1159 2491 1159 1978 
L 1159 0 
L 581 0 
L 581 3500 
L 1159 3500 
L 1159 2956 
Q 1366 3272 1645 3428 
Q 1925 3584 2291 3584 
Q 2894 3584 3203 3211 
Q 3513 2838 3513 2113 
z
" transform="scale(0.015625)"/>
        <path id="DejaVuSans-69" d="M 603 3500 
L 1178 3500 
L 1178 0 
L 603 0 
L 603 3500 
z
M 603 4863 
L 1178 4863 
L 1178 4134 
L 603 4134 
L 603 4863 
z
" transform="scale(0.015625)"/>
        <path id="DejaVuSans-67" d="M 2906 1791 
Q 2906 2416 2648 2759 
Q 2391 3103 1925 3103 
Q 1463 3103 1205 2759 
Q 947 2416 947 1791 
Q 947 1169 1205 825 
Q 1463 481 1925 481 
Q 2391 481 2648 825 
Q 2906 1169 2906 1791 
z
M 3481 434 
Q 3481 -459 3084 -895 
Q 2688 -1331 1869 -1331 
Q 1566 -1331 1297 -1286 
Q 1028 -1241 775 -1147 
L 775 -588 
Q 1028 -725 1275 -790 
Q 1522 -856 1778 -856 
Q 2344 -856 2625 -561 
Q 2906 -266 2906 331 
L 2906 616 
Q 2728 306 2450 153 
Q 2172 0 1784 0 
Q 1141 0 747 490 
Q 353 981 353 1791 
Q 353 2603 747 3093 
Q 1141 3584 1784 3584 
Q 2172 3584 2450 3431 
Q 2728 3278 2906 2969 
L 2906 3500 
L 3481 3500 
L 3481 434 
z
" transform="scale(0.015625)"/>
       </defs>
       <use xlink:href="#DejaVuSans-4d"/>
       <use xlink:href="#DejaVuSans-6f" x="86.279297"/>
       <use xlink:href="#DejaVuSans-72" x="147.460938"/>
       <use xlink:href="#DejaVuSans-6e" x="186.824219"/>
       <use xlink:href="#DejaVuSans-69" x="250.203125"/>
       <use xlink:href="#DejaVuSans-6e" x="277.986328"/>
       <use xlink:href="#DejaVuSans-67" x="341.365234"/>
      </g>
     </g>
    </g>
    <g id="xtick_2">
     <g id="line2d_2">
      <g>
       <use xlink:href="#mf6a4c2fa55" x="475.015909" y="483.118125" style="stroke: #000000; stroke-width: 0.8"/>
      </g>
     </g>
     <g id="text_2">
      <!-- Afternoon -->
      <g transform="translate(450.643253 497.716562) scale(0.1 -0.1)">
       <defs>
        <path id="DejaVuSans-41" d="M 2188 4044 
L 1331 1722 
L 3047 1722 
L 2188 4044 
z
M 1831 4666 
L 2547 4666 
L 4325 0 
L 3669 0 
L 3244 1197 
L 1141 1197 
L 716 0 
L 50 0 
L 1831 4666 
z
" transform="scale(0.015625)"/>
        <path id="DejaVuSans-66" d="M 2375 4863 
L 2375 4384 
L 1825 4384 
Q 1516 4384 1395 4259 
Q 1275 4134 1275 3809 
L 1275 3500 
L 2222 3500 
L 2222 3053 
L 1275 3053 
L 1275 0 
L 697 0 
L 697 3053 
L 147 3053 
L 147 3500 
L 697 3500 
L 697 3744 
Q 697 4328 969 4595 
Q 1241 4863 1831 4863 
L 2375 4863 
z
" transform="scale(0.015625)"/>
        <path id="DejaVuSans-74" d="M 1172 4494 
L 1172 3500 
L 2356 3500 
L 2356 3053 
L 1172 3053 
L 1172 1153 
Q 1172 725 1289 603 
Q 1406 481 1766 481 
L 2356 481 
L 2356 0 
L 1766 0 
Q 1100 0 847 248 
Q 594 497 594 1153 
L 594 3053 
L 172 3053 
L 172 3500 
L 594 3500 
L 594 4494 
L 1172 4494 
z
" transform="scale(0.015625)"/>
        <path id="DejaVuSans-65" d="M 3597 1894 
L 3597 1613 
L 953 1613 
Q 991 1019 1311 708 
Q 1631 397 2203 397 
Q 2534 397 2845 478 
Q 3156 559 3463 722 
L 3463 178 
Q 3153 47 2828 -22 
Q 2503 -91 2169 -91 
Q 1331 -91 842 396 
Q 353 884 353 1716 
Q 353 2575 817 3079 
Q 1281 3584 2069 3584 
Q 2775 3584 3186 3129 
Q 3597 2675 3597 1894 
z
M 3022 2063 
Q 3016 2534 2758 2815 
Q 2500 3097 2075 3097 
Q 1594 3097 1305 2825 
Q 1016 2553 972 2059 
L 3022 2063 
z
" transform="scale(0.015625)"/>
       </defs>
       <use xlink:href="#DejaVuSans-41"/>
       <use xlink:href="#DejaVuSans-66" x="64.783203"/>
       <use xlink:href="#DejaVuSans-74" x="98.238281"/>
       <use xlink:href="#DejaVuSans-65" x="137.447266"/>
       <use xlink:href="#DejaVuSans-72" x="198.970703"/>
       <use xlink:href="#DejaVuSans-6e" x="238.333984"/>
       <use xlink:href="#DejaVuSans-6f" x="301.712891"/>
       <use xlink:href="#DejaVuSans-6f" x="362.894531"/>
       <use xlink:href="#DejaVuSans-6e" x="424.076172"/>
      </g>
     </g>
    </g>
   </g>
   <g id="matplotlib.axis_2">
    <g id="ytick_1">
     <g id="line2d_3">
      <path d="M 26.925 462.17267 
L 584.925 462.17267 
" clip-path="url(#p8c57219165)" style="fill: none; stroke: #dad8d7; stroke-opacity: 0.5; stroke-width: 0.8; stroke-linecap: square"/>
     </g>
     <g id="line2d_4">
      <defs>
       <path id="m6b5e3bfa48" d="M 0 0 
L -3.5 0 
" style="stroke: #000000; stroke-width: 0.8"/>
      </defs>
      <g>
       <use xlink:href="#m6b5e3bfa48" x="26.925" y="462.17267" style="stroke: #000000; stroke-width: 0.8"/>
      </g>
     </g>
     <g id="text_3">
      <!-- 0 -->
      <g transform="translate(13.5625 465.971889) scale(0.1 -0.1)">
       <defs>
        <path id="DejaVuSans-30" d="M 2034 4250 
Q 1547 4250 1301 3770 
Q 1056 3291 1056 2328 
Q 1056 1369 1301 889 
Q 1547 409 2034 409 
Q 2525 409 2770 889 
Q 3016 1369 3016 2328 
Q 3016 3291 2770 3770 
Q 2525 4250 2034 4250 
z
M 2034 4750 
Q 2819 4750 3233 4129 
Q 3647 3509 3647 2328 
Q 3647 1150 3233 529 
Q 2819 -91 2034 -91 
Q 1250 -91 836 529 
Q 422 1150 422 2328 
Q 422 3509 836 4129 
Q 1250 4750 2034 4750 
z
" transform="scale(0.015625)"/>
       </defs>
       <use xlink:href="#DejaVuSans-30"/>
      </g>
     </g>
    </g>
    <g id="ytick_2">
     <g id="line2d_5">
      <path d="M 26.925 388.679847 
L 584.925 388.679847 
" clip-path="url(#p8c57219165)" style="fill: none; stroke: #dad8d7; stroke-opacity: 0.5; stroke-width: 0.8; stroke-linecap: square"/>
     </g>
     <g id="line2d_6">
      <g>
       <use xlink:href="#m6b5e3bfa48" x="26.925" y="388.679847" style="stroke: #000000; stroke-width: 0.8"/>
      </g>
     </g>
     <g id="text_4">
      <!-- 10 -->
      <g transform="translate(7.2 392.479066) scale(0.1 -0.1)">
       <defs>
        <path id="DejaVuSans-31" d="M 794 531 
L 1825 531 
L 1825 4091 
L 703 3866 
L 703 4441 
L 1819 4666 
L 2450 4666 
L 2450 531 
L 3481 531 
L 3481 0 
L 794 0 
L 794 531 
z
" transform="scale(0.015625)"/>
       </defs>
       <use xlink:href="#DejaVuSans-31"/>
       <use xlink:href="#DejaVuSans-30" x="63.623047"/>
      </g>
     </g>
    </g>
    <g id="ytick_3">
     <g id="line2d_7">
      <path d="M 26.925 315.187025 
L 584.925 315.187025 
" clip-path="url(#p8c57219165)" style="fill: none; stroke: #dad8d7; stroke-opacity: 0.5; stroke-width: 0.8; stroke-linecap: square"/>
     </g>
     <g id="line2d_8">
      <g>
       <use xlink:href="#m6b5e3bfa48" x="26.925" y="315.187025" style="stroke: #000000; stroke-width: 0.8"/>
      </g>
     </g>
     <g id="text_5">
      <!-- 20 -->
      <g transform="translate(7.2 318.986243) scale(0.1 -0.1)">
       <defs>
        <path id="DejaVuSans-32" d="M 1228 531 
L 3431 531 
L 3431 0 
L 469 0 
L 469 531 
Q 828 903 1448 1529 
Q 2069 2156 2228 2338 
Q 2531 2678 2651 2914 
Q 2772 3150 2772 3378 
Q 2772 3750 2511 3984 
Q 2250 4219 1831 4219 
Q 1534 4219 1204 4116 
Q 875 4013 500 3803 
L 500 4441 
Q 881 4594 1212 4672 
Q 1544 4750 1819 4750 
Q 2544 4750 2975 4387 
Q 3406 4025 3406 3419 
Q 3406 3131 3298 2873 
Q 3191 2616 2906 2266 
Q 2828 2175 2409 1742 
Q 1991 1309 1228 531 
z
" transform="scale(0.015625)"/>
       </defs>
       <use xlink:href="#DejaVuSans-32"/>
       <use xlink:href="#DejaVuSans-30" x="63.623047"/>
      </g>
     </g>
    </g>
    <g id="ytick_4">
     <g id="line2d_9">
      <path d="M 26.925 241.694202 
L 584.925 241.694202 
" clip-path="url(#p8c57219165)" style="fill: none; stroke: #dad8d7; stroke-opacity: 0.5; stroke-width: 0.8; stroke-linecap: square"/>
     </g>
     <g id="line2d_10">
      <g>
       <use xlink:href="#m6b5e3bfa48" x="26.925" y="241.694202" style="stroke: #000000; stroke-width: 0.8"/>
      </g>
     </g>
     <g id="text_6">
      <!-- 30 -->
      <g transform="translate(7.2 245.49342) scale(0.1 -0.1)">
       <defs>
        <path id="DejaVuSans-33" d="M 2597 2516 
Q 3050 2419 3304 2112 
Q 3559 1806 3559 1356 
Q 3559 666 3084 287 
Q 2609 -91 1734 -91 
Q 1441 -91 1130 -33 
Q 819 25 488 141 
L 488 750 
Q 750 597 1062 519 
Q 1375 441 1716 441 
Q 2309 441 2620 675 
Q 2931 909 2931 1356 
Q 2931 1769 2642 2001 
Q 2353 2234 1838 2234 
L 1294 2234 
L 1294 2753 
L 1863 2753 
Q 2328 2753 2575 2939 
Q 2822 3125 2822 3475 
Q 2822 3834 2567 4026 
Q 2313 4219 1838 4219 
Q 1578 4219 1281 4162 
Q 984 4106 628 3988 
L 628 4550 
Q 988 4650 1302 4700 
Q 1616 4750 1894 4750 
Q 2613 4750 3031 4423 
Q 3450 4097 3450 3541 
Q 3450 3153 3228 2886 
Q 3006 2619 2597 2516 
z
" transform="scale(0.015625)"/>
       </defs>
       <use xlink:href="#DejaVuSans-33"/>
       <use xlink:href="#DejaVuSans-30" x="63.623047"/>
      </g>
     </g>
    </g>
    <g id="ytick_5">
     <g id="line2d_11">
      <path d="M 26.925 168.201379 
L 584.925 168.201379 
" clip-path="url(#p8c57219165)" style="fill: none; stroke: #dad8d7; stroke-opacity: 0.5; stroke-width: 0.8; stroke-linecap: square"/>
     </g>
     <g id="line2d_12">
      <g>
       <use xlink:href="#m6b5e3bfa48" x="26.925" y="168.201379" style="stroke: #000000; stroke-width: 0.8"/>
      </g>
     </g>
     <g id="text_7">
      <!-- 40 -->
      <g transform="translate(7.2 172.000597) scale(0.1 -0.1)">
       <defs>
        <path id="DejaVuSans-34" d="M 2419 4116 
L 825 1625 
L 2419 1625 
L 2419 4116 
z
M 2253 4666 
L 3047 4666 
L 3047 1625 
L 3713 1625 
L 3713 1100 
L 3047 1100 
L 3047 0 
L 2419 0 
L 2419 1100 
L 313 1100 
L 313 1709 
L 2253 4666 
z
" transform="scale(0.015625)"/>
       </defs>
       <use xlink:href="#DejaVuSans-34"/>
       <use xlink:href="#DejaVuSans-30" x="63.623047"/>
      </g>
     </g>
    </g>
    <g id="ytick_6">
     <g id="line2d_13">
      <path d="M 26.925 94.708556 
L 584.925 94.708556 
" clip-path="url(#p8c57219165)" style="fill: none; stroke: #dad8d7; stroke-opacity: 0.5; stroke-width: 0.8; stroke-linecap: square"/>
     </g>
     <g id="line2d_14">
      <g>
       <use xlink:href="#m6b5e3bfa48" x="26.925" y="94.708556" style="stroke: #000000; stroke-width: 0.8"/>
      </g>
     </g>
     <g id="text_8">
      <!-- 50 -->
      <g transform="translate(7.2 98.507774) scale(0.1 -0.1)">
       <defs>
        <path id="DejaVuSans-35" d="M 691 4666 
L 3169 4666 
L 3169 4134 
L 1269 4134 
L 1269 2991 
Q 1406 3038 1543 3061 
Q 1681 3084 1819 3084 
Q 2600 3084 3056 2656 
Q 3513 2228 3513 1497 
Q 3513 744 3044 326 
Q 2575 -91 1722 -91 
Q 1428 -91 1123 -41 
Q 819 9 494 109 
L 494 744 
Q 775 591 1075 516 
Q 1375 441 1709 441 
Q 2250 441 2565 725 
Q 2881 1009 2881 1497 
Q 2881 1984 2565 2268 
Q 2250 2553 1709 2553 
Q 1456 2553 1204 2497 
Q 953 2441 691 2322 
L 691 4666 
z
" transform="scale(0.015625)"/>
       </defs>
       <use xlink:href="#DejaVuSans-35"/>
       <use xlink:href="#DejaVuSans-30" x="63.623047"/>
      </g>
     </g>
    </g>
   </g>
   <g id="LineCollection_1">
    <path d="M 94.561364 352.217855 
L 179.106818 352.217855 
" clip-path="url(#p8c57219165)" style="fill: none; stroke: #1f77b4; stroke-width: 1.5"/>
    <path d="M 432.743182 320.655384 
L 517.288636 320.655384 
" clip-path="url(#p8c57219165)" style="fill: none; stroke: #1f77b4; stroke-width: 1.5"/>
   </g>
   <g id="LineCollection_2">
    <path d="M 94.561364 351.933436 
L 179.106818 351.933436 
" clip-path="url(#p8c57219165)" style="fill: none; stroke: #1f77b4; stroke-width: 1.5"/>
    <path d="M 432.743182 322.536307 
L 517.288636 322.536307 
" clip-path="url(#p8c57219165)" style="fill: none; stroke: #1f77b4; stroke-width: 1.5"/>
   </g>
   <g id="patch_3">
    <path d="M 26.925 483.118125 
L 26.925 22.318125 
" style="fill: none; stroke: #000000; stroke-width: 1.1; stroke-linejoin: miter; stroke-linecap: square"/>
   </g>
   <g id="PolyCollection_1">
    <path d="M 145.653338 462.17267 
L 128.014843 462.17267 
L 125.45029 458.163971 
L 122.783447 454.155272 
L 120.130643 450.146572 
L 117.552099 446.137873 
L 114.973951 442.129173 
L 112.162207 438.120474 
L 108.773797 434.111774 
L 104.49339 430.103075 
L 99.267963 426.094376 
L 93.52752 422.085676 
L 88.116477 418.076977 
L 83.809977 414.068277 
L 80.761035 410.059578 
L 78.430673 406.050878 
L 76.091264 402.042179 
L 73.371826 398.03348 
L 70.340694 394.02478 
L 67.22151 390.016081 
L 64.168525 386.007381 
L 61.265633 381.998682 
L 58.616568 377.989982 
L 56.421491 373.981283 
L 54.990225 369.972583 
L 54.598352 365.963884 
L 55.23152 361.955185 
L 56.487838 357.946485 
L 57.784255 353.937786 
L 58.666106 349.929086 
L 58.957893 345.920387 
L 58.698883 341.911687 
L 57.945994 337.902988 
L 56.631778 333.894289 
L 54.751054 329.885589 
L 52.857782 325.87689 
L 52.288636 321.86819 
L 54.557661 317.859491 
L 60.265386 313.850791 
L 68.562273 309.842092 
L 77.706934 305.833393 
L 86.142715 301.824693 
L 93.139293 297.815994 
L 98.698375 293.807294 
L 103.134011 289.798595 
L 106.765905 285.789895 
L 109.809615 281.781196 
L 112.373421 277.772496 
L 114.506225 273.763797 
L 116.260961 269.755098 
L 117.730926 265.746398 
L 119.044852 261.737699 
L 120.329093 257.728999 
L 121.651792 253.7203 
L 122.995022 249.7116 
L 124.30271 245.702901 
L 125.566273 241.694202 
L 126.843308 237.685502 
L 128.179764 233.676803 
L 129.531711 229.668103 
L 130.782057 225.659404 
L 131.828496 221.650704 
L 132.646887 217.642005 
L 133.283613 213.633306 
L 133.809626 209.624606 
L 134.282282 205.615907 
L 134.727275 201.607207 
L 135.135333 197.598508 
L 135.473838 193.589808 
L 135.711759 189.581109 
L 135.843837 185.572409 
L 135.897576 181.56371 
L 135.919489 177.555011 
L 135.951666 173.546311 
L 136.014458 169.537612 
L 136.104047 165.528912 
L 136.20142 161.520213 
L 136.283453 157.511513 
L 136.331815 153.502814 
L 136.341235 149.494115 
L 136.325597 145.485415 
L 136.314597 141.476716 
L 136.338062 137.468016 
L 136.407594 133.459317 
L 136.510292 129.450617 
L 136.619077 125.441918 
L 136.709762 121.433219 
L 136.771614 117.424519 
L 136.806828 113.41582 
L 136.823741 109.40712 
L 136.830571 105.398421 
L 136.832627 101.389721 
L 136.832188 97.381022 
L 136.82921 93.372322 
L 136.821921 89.363623 
L 136.807523 85.354924 
L 136.78374 81.346224 
L 136.751303 77.337525 
L 136.715996 73.328825 
L 136.687945 69.320126 
L 136.677185 65.311426 
L 136.990997 65.311426 
L 136.990997 65.311426 
L 136.980237 69.320126 
L 136.952186 73.328825 
L 136.916879 77.337525 
L 136.884442 81.346224 
L 136.860659 85.354924 
L 136.846261 89.363623 
L 136.838971 93.372322 
L 136.835994 97.381022 
L 136.835555 101.389721 
L 136.837611 105.398421 
L 136.844441 109.40712 
L 136.861354 113.41582 
L 136.896568 117.424519 
L 136.95842 121.433219 
L 137.049104 125.441918 
L 137.15789 129.450617 
L 137.260588 133.459317 
L 137.330119 137.468016 
L 137.353584 141.476716 
L 137.342585 145.485415 
L 137.326947 149.494115 
L 137.336367 153.502814 
L 137.384729 157.511513 
L 137.466762 161.520213 
L 137.564135 165.528912 
L 137.653724 169.537612 
L 137.716516 173.546311 
L 137.748693 177.555011 
L 137.770606 181.56371 
L 137.824345 185.572409 
L 137.956423 189.581109 
L 138.194344 193.589808 
L 138.532849 197.598508 
L 138.940906 201.607207 
L 139.385899 205.615907 
L 139.858555 209.624606 
L 140.384569 213.633306 
L 141.021295 217.642005 
L 141.839686 221.650704 
L 142.886125 225.659404 
L 144.136471 229.668103 
L 145.488417 233.676803 
L 146.824874 237.685502 
L 148.101909 241.694202 
L 149.365472 245.702901 
L 150.67316 249.7116 
L 152.01639 253.7203 
L 153.339089 257.728999 
L 154.623329 261.737699 
L 155.937255 265.746398 
L 157.407221 269.755098 
L 159.161957 273.763797 
L 161.29476 277.772496 
L 163.858567 281.781196 
L 166.902276 285.789895 
L 170.534171 289.798595 
L 174.969807 293.807294 
L 180.528888 297.815994 
L 187.525466 301.824693 
L 195.961248 305.833393 
L 205.105908 309.842092 
L 213.402796 313.850791 
L 219.110521 317.859491 
L 221.379545 321.86819 
L 220.8104 325.87689 
L 218.917128 329.885589 
L 217.036404 333.894289 
L 215.722188 337.902988 
L 214.969299 341.911687 
L 214.710289 345.920387 
L 215.002076 349.929086 
L 215.883927 353.937786 
L 217.180344 357.946485 
L 218.436661 361.955185 
L 219.069829 365.963884 
L 218.677957 369.972583 
L 217.24669 373.981283 
L 215.051614 377.989982 
L 212.402549 381.998682 
L 209.499656 386.007381 
L 206.446671 390.016081 
L 203.327488 394.02478 
L 200.296356 398.03348 
L 197.576918 402.042179 
L 195.237508 406.050878 
L 192.907147 410.059578 
L 189.858205 414.068277 
L 185.551705 418.076977 
L 180.140662 422.085676 
L 174.400218 426.094376 
L 169.174792 430.103075 
L 164.894385 434.111774 
L 161.505975 438.120474 
L 158.69423 442.129173 
L 156.116083 446.137873 
L 153.537539 450.146572 
L 150.884735 454.155272 
L 148.217892 458.163971 
L 145.653338 462.17267 
z
" clip-path="url(#p8c57219165)" style="fill: #990d35"/>
   </g>
   <g id="PolyCollection_2">
    <path d="M 477.074105 462.17267 
L 472.957713 462.17267 
L 472.258853 457.941265 
L 471.49213 453.709861 
L 470.675385 449.478456 
L 469.786912 445.247051 
L 468.734935 441.015646 
L 467.355551 436.784241 
L 465.4638 432.552836 
L 462.963878 428.321431 
L 459.974397 424.090026 
L 456.862257 419.858621 
L 454.098624 415.627216 
L 452.001843 411.395811 
L 450.573691 407.164406 
L 449.567118 402.933001 
L 448.691646 398.701596 
L 447.74793 394.470191 
L 446.614372 390.238786 
L 445.18451 386.007381 
L 443.361421 381.775976 
L 441.109031 377.544571 
L 438.493429 373.313166 
L 435.655675 369.081761 
L 432.716611 364.850356 
L 429.689795 360.618951 
L 426.484465 356.387546 
L 422.988821 352.156142 
L 419.147385 347.924737 
L 414.961089 343.693332 
L 410.410848 339.461927 
L 405.421397 335.230522 
L 400.053606 330.999117 
L 394.899378 326.767712 
L 391.232994 322.536307 
L 390.470455 318.304902 
L 393.189891 314.073497 
L 398.595576 309.842092 
L 404.971554 305.610687 
L 410.709561 301.379282 
L 415.056363 297.147877 
L 418.17458 292.916472 
L 420.728959 288.685067 
L 423.386462 284.453662 
L 426.487639 280.222257 
L 429.993445 275.990852 
L 433.653014 271.759447 
L 437.211462 267.528042 
L 440.511475 263.296637 
L 443.483544 259.065232 
L 446.100127 254.833827 
L 448.365638 250.602423 
L 450.367927 246.371018 
L 452.326494 242.139613 
L 454.522421 237.908208 
L 457.106171 233.676803 
L 459.951126 229.445398 
L 462.710895 225.213993 
L 465.035591 220.982588 
L 466.758044 216.751183 
L 467.925995 212.519778 
L 468.709654 208.288373 
L 469.283584 204.056968 
L 469.752849 199.825563 
L 470.142856 195.594158 
L 470.438359 191.362753 
L 470.637637 187.131348 
L 470.785283 182.899943 
L 470.963433 178.668538 
L 471.248239 174.437133 
L 471.663065 170.205728 
L 472.164528 165.974323 
L 472.671456 161.742918 
L 473.111354 157.511513 
L 473.450181 153.280108 
L 473.692647 149.048704 
L 473.86358 144.817299 
L 473.987638 140.585894 
L 474.079511 136.354489 
L 474.147073 132.123084 
L 474.199683 127.891679 
L 474.250809 123.660274 
L 474.312319 119.428869 
L 474.387868 115.197464 
L 474.472718 110.966059 
L 474.55907 106.734654 
L 474.641154 102.503249 
L 474.71671 98.271844 
L 474.785592 94.040439 
L 474.847619 89.809034 
L 474.901311 85.577629 
L 474.944289 81.346224 
L 474.974709 77.114819 
L 474.99223 72.883414 
L 474.997621 68.652009 
L 474.991768 64.420604 
L 474.975584 60.189199 
L 474.951383 55.957794 
L 474.924509 51.726389 
L 474.903074 47.494985 
L 474.894851 43.26358 
L 475.136967 43.26358 
L 475.136967 43.26358 
L 475.128744 47.494985 
L 475.107309 51.726389 
L 475.080435 55.957794 
L 475.056234 60.189199 
L 475.040051 64.420604 
L 475.034198 68.652009 
L 475.039588 72.883414 
L 475.057109 77.114819 
L 475.087529 81.346224 
L 475.130507 85.577629 
L 475.184199 89.809034 
L 475.246226 94.040439 
L 475.315109 98.271844 
L 475.390664 102.503249 
L 475.472749 106.734654 
L 475.559101 110.966059 
L 475.64395 115.197464 
L 475.719499 119.428869 
L 475.781009 123.660274 
L 475.832136 127.891679 
L 475.884745 132.123084 
L 475.952307 136.354489 
L 476.04418 140.585894 
L 476.168238 144.817299 
L 476.339171 149.048704 
L 476.581637 153.280108 
L 476.920464 157.511513 
L 477.360362 161.742918 
L 477.86729 165.974323 
L 478.368753 170.205728 
L 478.783579 174.437133 
L 479.068385 178.668538 
L 479.246535 182.899943 
L 479.394181 187.131348 
L 479.593459 191.362753 
L 479.888962 195.594158 
L 480.278969 199.825563 
L 480.748234 204.056968 
L 481.322164 208.288373 
L 482.105823 212.519778 
L 483.273774 216.751183 
L 484.996227 220.982588 
L 487.320923 225.213993 
L 490.080692 229.445398 
L 492.925647 233.676803 
L 495.509397 237.908208 
L 497.705324 242.139613 
L 499.663891 246.371018 
L 501.66618 250.602423 
L 503.931691 254.833827 
L 506.548274 259.065232 
L 509.520343 263.296637 
L 512.820356 267.528042 
L 516.378804 271.759447 
L 520.038373 275.990852 
L 523.544179 280.222257 
L 526.645357 284.453662 
L 529.302859 288.685067 
L 531.857238 292.916472 
L 534.975455 297.147877 
L 539.322257 301.379282 
L 545.060264 305.610687 
L 551.436242 309.842092 
L 556.841927 314.073497 
L 559.561364 318.304902 
L 558.798824 322.536307 
L 555.13244 326.767712 
L 549.978212 330.999117 
L 544.610421 335.230522 
L 539.62097 339.461927 
L 535.070729 343.693332 
L 530.884434 347.924737 
L 527.042997 352.156142 
L 523.547353 356.387546 
L 520.342023 360.618951 
L 517.315207 364.850356 
L 514.376143 369.081761 
L 511.538389 373.313166 
L 508.922788 377.544571 
L 506.670397 381.775976 
L 504.847309 386.007381 
L 503.417447 390.238786 
L 502.283889 394.470191 
L 501.340172 398.701596 
L 500.464701 402.933001 
L 499.458127 407.164406 
L 498.029975 411.395811 
L 495.933194 415.627216 
L 493.169561 419.858621 
L 490.057421 424.090026 
L 487.06794 428.321431 
L 484.568018 432.552836 
L 482.676267 436.784241 
L 481.296883 441.015646 
L 480.244906 445.247051 
L 479.356433 449.478456 
L 478.539688 453.709861 
L 477.772965 457.941265 
L 477.074105 462.17267 
z
" clip-path="url(#p8c57219165)" style="fill: #565a5c"/>
   </g>
   <g id="PathCollection_1">
    <defs>
     <path id="mcf6fdb5a16" d="M 0 1.936492 
C 0.513564 1.936492 1.006162 1.732451 1.369306 1.369306 
C 1.732451 1.006162 1.936492 0.513564 1.936492 0 
C 1.936492 -0.513564 1.732451 -1.006162 1.369306 -1.369306 
C 1.006162 -1.732451 0.513564 -1.936492 0 -1.936492 
C -0.513564 -1.936492 -1.006162 -1.732451 -1.369306 -1.369306 
C -1.732451 -1.006162 -1.936492 -0.513564 -1.936492 0 
C -1.936492 0.513564 -1.732451 1.006162 -1.369306 1.369306 
C -1.006162 1.732451 -0.513564 1.936492 0 1.936492 
z
" style="stroke: #000000"/>
    </defs>
    <g clip-path="url(#p8c57219165)">
     <use xlink:href="#mcf6fdb5a16" x="136.834091" y="462.17267" style="stroke: #000000"/>
     <use xlink:href="#mcf6fdb5a16" x="475.015909" y="462.17267" style="stroke: #000000"/>
    </g>
   </g>
   <g id="PathCollection_2">
    <g clip-path="url(#p8c57219165)">
     <use xlink:href="#mcf6fdb5a16" x="136.834091" y="65.311426" style="stroke: #000000"/>
     <use xlink:href="#mcf6fdb5a16" x="475.015909" y="43.26358" style="stroke: #000000"/>
    </g>
   </g>
   <g id="PathCollection_3">
    <g clip-path="url(#p8c57219165)">
     <use xlink:href="#mcf6fdb5a16" x="136.834091" y="396.02913" style="stroke: #000000"/>
     <use xlink:href="#mcf6fdb5a16" x="475.015909" y="351.933436" style="stroke: #000000"/>
    </g>
   </g>
   <g id="PathCollection_4">
    <g clip-path="url(#p8c57219165)">
     <use xlink:href="#mcf6fdb5a16" x="136.834091" y="315.187025" style="stroke: #000000"/>
     <use xlink:href="#mcf6fdb5a16" x="475.015909" y="285.789895" style="stroke: #000000"/>
    </g>
   </g>
   <g id="text_9">
    <!-- Source: https://www.kaggle.com/datasets/jsphyg/weather-dataset-rattle-package -->
    <g style="opacity: 0.7" transform="translate(8.925 526.318125) scale(0.1 -0.1)">
     <defs>
      <path id="DejaVuSans-53" d="M 3425 4513 
L 3425 3897 
Q 3066 4069 2747 4153 
Q 2428 4238 2131 4238 
Q 1616 4238 1336 4038 
Q 1056 3838 1056 3469 
Q 1056 3159 1242 3001 
Q 1428 2844 1947 2747 
L 2328 2669 
Q 3034 2534 3370 2195 
Q 3706 1856 3706 1288 
Q 3706 609 3251 259 
Q 2797 -91 1919 -91 
Q 1588 -91 1214 -16 
Q 841 59 441 206 
L 441 856 
Q 825 641 1194 531 
Q 1563 422 1919 422 
Q 2459 422 2753 634 
Q 3047 847 3047 1241 
Q 3047 1584 2836 1778 
Q 2625 1972 2144 2069 
L 1759 2144 
Q 1053 2284 737 2584 
Q 422 2884 422 3419 
Q 422 4038 858 4394 
Q 1294 4750 2059 4750 
Q 2388 4750 2728 4690 
Q 3069 4631 3425 4513 
z
" transform="scale(0.015625)"/>
      <path id="DejaVuSans-75" d="M 544 1381 
L 544 3500 
L 1119 3500 
L 1119 1403 
Q 1119 906 1312 657 
Q 1506 409 1894 409 
Q 2359 409 2629 706 
Q 2900 1003 2900 1516 
L 2900 3500 
L 3475 3500 
L 3475 0 
L 2900 0 
L 2900 538 
Q 2691 219 2414 64 
Q 2138 -91 1772 -91 
Q 1169 -91 856 284 
Q 544 659 544 1381 
z
M 1991 3584 
L 1991 3584 
z
" transform="scale(0.015625)"/>
      <path id="DejaVuSans-63" d="M 3122 3366 
L 3122 2828 
Q 2878 2963 2633 3030 
Q 2388 3097 2138 3097 
Q 1578 3097 1268 2742 
Q 959 2388 959 1747 
Q 959 1106 1268 751 
Q 1578 397 2138 397 
Q 2388 397 2633 464 
Q 2878 531 3122 666 
L 3122 134 
Q 2881 22 2623 -34 
Q 2366 -91 2075 -91 
Q 1284 -91 818 406 
Q 353 903 353 1747 
Q 353 2603 823 3093 
Q 1294 3584 2113 3584 
Q 2378 3584 2631 3529 
Q 2884 3475 3122 3366 
z
" transform="scale(0.015625)"/>
      <path id="DejaVuSans-3a" d="M 750 794 
L 1409 794 
L 1409 0 
L 750 0 
L 750 794 
z
M 750 3309 
L 1409 3309 
L 1409 2516 
L 750 2516 
L 750 3309 
z
" transform="scale(0.015625)"/>
      <path id="DejaVuSans-20" transform="scale(0.015625)"/>
      <path id="DejaVuSans-68" d="M 3513 2113 
L 3513 0 
L 2938 0 
L 2938 2094 
Q 2938 2591 2744 2837 
Q 2550 3084 2163 3084 
Q 1697 3084 1428 2787 
Q 1159 2491 1159 1978 
L 1159 0 
L 581 0 
L 581 4863 
L 1159 4863 
L 1159 2956 
Q 1366 3272 1645 3428 
Q 1925 3584 2291 3584 
Q 2894 3584 3203 3211 
Q 3513 2838 3513 2113 
z
" transform="scale(0.015625)"/>
      <path id="DejaVuSans-70" d="M 1159 525 
L 1159 -1331 
L 581 -1331 
L 581 3500 
L 1159 3500 
L 1159 2969 
Q 1341 3281 1617 3432 
Q 1894 3584 2278 3584 
Q 2916 3584 3314 3078 
Q 3713 2572 3713 1747 
Q 3713 922 3314 415 
Q 2916 -91 2278 -91 
Q 1894 -91 1617 61 
Q 1341 213 1159 525 
z
M 3116 1747 
Q 3116 2381 2855 2742 
Q 2594 3103 2138 3103 
Q 1681 3103 1420 2742 
Q 1159 2381 1159 1747 
Q 1159 1113 1420 752 
Q 1681 391 2138 391 
Q 2594 391 2855 752 
Q 3116 1113 3116 1747 
z
" transform="scale(0.015625)"/>
      <path id="DejaVuSans-73" d="M 2834 3397 
L 2834 2853 
Q 2591 2978 2328 3040 
Q 2066 3103 1784 3103 
Q 1356 3103 1142 2972 
Q 928 2841 928 2578 
Q 928 2378 1081 2264 
Q 1234 2150 1697 2047 
L 1894 2003 
Q 2506 1872 2764 1633 
Q 3022 1394 3022 966 
Q 3022 478 2636 193 
Q 2250 -91 1575 -91 
Q 1294 -91 989 -36 
Q 684 19 347 128 
L 347 722 
Q 666 556 975 473 
Q 1284 391 1588 391 
Q 1994 391 2212 530 
Q 2431 669 2431 922 
Q 2431 1156 2273 1281 
Q 2116 1406 1581 1522 
L 1381 1569 
Q 847 1681 609 1914 
Q 372 2147 372 2553 
Q 372 3047 722 3315 
Q 1072 3584 1716 3584 
Q 2034 3584 2315 3537 
Q 2597 3491 2834 3397 
z
" transform="scale(0.015625)"/>
      <path id="DejaVuSans-2f" d="M 1625 4666 
L 2156 4666 
L 531 -594 
L 0 -594 
L 1625 4666 
z
" transform="scale(0.015625)"/>
      <path id="DejaVuSans-77" d="M 269 3500 
L 844 3500 
L 1563 769 
L 2278 3500 
L 2956 3500 
L 3675 769 
L 4391 3500 
L 4966 3500 
L 4050 0 
L 3372 0 
L 2619 2869 
L 1863 0 
L 1184 0 
L 269 3500 
z
" transform="scale(0.015625)"/>
      <path id="DejaVuSans-2e" d="M 684 794 
L 1344 794 
L 1344 0 
L 684 0 
L 684 794 
z
" transform="scale(0.015625)"/>
      <path id="DejaVuSans-6b" d="M 581 4863 
L 1159 4863 
L 1159 1991 
L 2875 3500 
L 3609 3500 
L 1753 1863 
L 3688 0 
L 2938 0 
L 1159 1709 
L 1159 0 
L 581 0 
L 581 4863 
z
" transform="scale(0.015625)"/>
      <path id="DejaVuSans-61" d="M 2194 1759 
Q 1497 1759 1228 1600 
Q 959 1441 959 1056 
Q 959 750 1161 570 
Q 1363 391 1709 391 
Q 2188 391 2477 730 
Q 2766 1069 2766 1631 
L 2766 1759 
L 2194 1759 
z
M 3341 1997 
L 3341 0 
L 2766 0 
L 2766 531 
Q 2569 213 2275 61 
Q 1981 -91 1556 -91 
Q 1019 -91 701 211 
Q 384 513 384 1019 
Q 384 1609 779 1909 
Q 1175 2209 1959 2209 
L 2766 2209 
L 2766 2266 
Q 2766 2663 2505 2880 
Q 2244 3097 1772 3097 
Q 1472 3097 1187 3025 
Q 903 2953 641 2809 
L 641 3341 
Q 956 3463 1253 3523 
Q 1550 3584 1831 3584 
Q 2591 3584 2966 3190 
Q 3341 2797 3341 1997 
z
" transform="scale(0.015625)"/>
      <path id="DejaVuSans-6c" d="M 603 4863 
L 1178 4863 
L 1178 0 
L 603 0 
L 603 4863 
z
" transform="scale(0.015625)"/>
      <path id="DejaVuSans-6d" d="M 3328 2828 
Q 3544 3216 3844 3400 
Q 4144 3584 4550 3584 
Q 5097 3584 5394 3201 
Q 5691 2819 5691 2113 
L 5691 0 
L 5113 0 
L 5113 2094 
Q 5113 2597 4934 2840 
Q 4756 3084 4391 3084 
Q 3944 3084 3684 2787 
Q 3425 2491 3425 1978 
L 3425 0 
L 2847 0 
L 2847 2094 
Q 2847 2600 2669 2842 
Q 2491 3084 2119 3084 
Q 1678 3084 1418 2786 
Q 1159 2488 1159 1978 
L 1159 0 
L 581 0 
L 581 3500 
L 1159 3500 
L 1159 2956 
Q 1356 3278 1631 3431 
Q 1906 3584 2284 3584 
Q 2666 3584 2933 3390 
Q 3200 3197 3328 2828 
z
" transform="scale(0.015625)"/>
      <path id="DejaVuSans-64" d="M 2906 2969 
L 2906 4863 
L 3481 4863 
L 3481 0 
L 2906 0 
L 2906 525 
Q 2725 213 2448 61 
Q 2172 -91 1784 -91 
Q 1150 -91 751 415 
Q 353 922 353 1747 
Q 353 2572 751 3078 
Q 1150 3584 1784 3584 
Q 2172 3584 2448 3432 
Q 2725 3281 2906 2969 
z
M 947 1747 
Q 947 1113 1208 752 
Q 1469 391 1925 391 
Q 2381 391 2643 752 
Q 2906 1113 2906 1747 
Q 2906 2381 2643 2742 
Q 2381 3103 1925 3103 
Q 1469 3103 1208 2742 
Q 947 2381 947 1747 
z
" transform="scale(0.015625)"/>
      <path id="DejaVuSans-6a" d="M 603 3500 
L 1178 3500 
L 1178 -63 
Q 1178 -731 923 -1031 
Q 669 -1331 103 -1331 
L -116 -1331 
L -116 -844 
L 38 -844 
Q 366 -844 484 -692 
Q 603 -541 603 -63 
L 603 3500 
z
M 603 4863 
L 1178 4863 
L 1178 4134 
L 603 4134 
L 603 4863 
z
" transform="scale(0.015625)"/>
      <path id="DejaVuSans-79" d="M 2059 -325 
Q 1816 -950 1584 -1140 
Q 1353 -1331 966 -1331 
L 506 -1331 
L 506 -850 
L 844 -850 
Q 1081 -850 1212 -737 
Q 1344 -625 1503 -206 
L 1606 56 
L 191 3500 
L 800 3500 
L 1894 763 
L 2988 3500 
L 3597 3500 
L 2059 -325 
z
" transform="scale(0.015625)"/>
      <path id="DejaVuSans-2d" d="M 313 2009 
L 1997 2009 
L 1997 1497 
L 313 1497 
L 313 2009 
z
" transform="scale(0.015625)"/>
     </defs>
     <use xlink:href="#DejaVuSans-53"/>
     <use xlink:href="#DejaVuSans-6f" x="63.476562"/>
     <use xlink:href="#DejaVuSans-75" x="124.658203"/>
     <use xlink:href="#DejaVuSans-72" x="188.037109"/>
     <use xlink:href="#DejaVuSans-63" x="226.900391"/>
     <use xlink:href="#DejaVuSans-65" x="281.880859"/>
     <use xlink:href="#DejaVuSans-3a" x="343.404297"/>
     <use xlink:href="#DejaVuSans-20" x="377.095703"/>
     <use xlink:href="#DejaVuSans-68" x="408.882812"/>
     <use xlink:href="#DejaVuSans-74" x="472.261719"/>
     <use xlink:href="#DejaVuSans-74" x="511.470703"/>
     <use xlink:href="#DejaVuSans-70" x="550.679688"/>
     <use xlink:href="#DejaVuSans-73" x="614.15625"/>
     <use xlink:href="#DejaVuSans-3a" x="666.255859"/>
     <use xlink:href="#DejaVuSans-2f" x="699.947266"/>
     <use xlink:href="#DejaVuSans-2f" x="733.638672"/>
     <use xlink:href="#DejaVuSans-77" x="767.330078"/>
     <use xlink:href="#DejaVuSans-77" x="849.117188"/>
     <use xlink:href="#DejaVuSans-77" x="930.904297"/>
     <use xlink:href="#DejaVuSans-2e" x="1003.566406"/>
     <use xlink:href="#DejaVuSans-6b" x="1035.353516"/>
     <use xlink:href="#DejaVuSans-61" x="1091.513672"/>
     <use xlink:href="#DejaVuSans-67" x="1152.792969"/>
     <use xlink:href="#DejaVuSans-67" x="1216.269531"/>
     <use xlink:href="#DejaVuSans-6c" x="1279.746094"/>
     <use xlink:href="#DejaVuSans-65" x="1307.529297"/>
     <use xlink:href="#DejaVuSans-2e" x="1369.052734"/>
     <use xlink:href="#DejaVuSans-63" x="1400.839844"/>
     <use xlink:href="#DejaVuSans-6f" x="1455.820312"/>
     <use xlink:href="#DejaVuSans-6d" x="1517.001953"/>
     <use xlink:href="#DejaVuSans-2f" x="1614.414062"/>
     <use xlink:href="#DejaVuSans-64" x="1648.105469"/>
     <use xlink:href="#DejaVuSans-61" x="1711.582031"/>
     <use xlink:href="#DejaVuSans-74" x="1772.861328"/>
     <use xlink:href="#DejaVuSans-61" x="1812.070312"/>
     <use xlink:href="#DejaVuSans-73" x="1873.349609"/>
     <use xlink:href="#DejaVuSans-65" x="1925.449219"/>
     <use xlink:href="#DejaVuSans-74" x="1986.972656"/>
     <use xlink:href="#DejaVuSans-73" x="2026.181641"/>
     <use xlink:href="#DejaVuSans-2f" x="2078.28125"/>
     <use xlink:href="#DejaVuSans-6a" x="2111.972656"/>
     <use xlink:href="#DejaVuSans-73" x="2139.755859"/>
     <use xlink:href="#DejaVuSans-70" x="2191.855469"/>
     <use xlink:href="#DejaVuSans-68" x="2255.332031"/>
     <use xlink:href="#DejaVuSans-79" x="2318.710938"/>
     <use xlink:href="#DejaVuSans-67" x="2377.890625"/>
     <use xlink:href="#DejaVuSans-2f" x="2441.367188"/>
     <use xlink:href="#DejaVuSans-77" x="2475.058594"/>
     <use xlink:href="#DejaVuSans-65" x="2556.845703"/>
     <use xlink:href="#DejaVuSans-61" x="2618.369141"/>
     <use xlink:href="#DejaVuSans-74" x="2679.648438"/>
     <use xlink:href="#DejaVuSans-68" x="2718.857422"/>
     <use xlink:href="#DejaVuSans-65" x="2782.236328"/>
     <use xlink:href="#DejaVuSans-72" x="2843.759766"/>
     <use xlink:href="#DejaVuSans-2d" x="2878.498047"/>
     <use xlink:href="#DejaVuSans-64" x="2914.582031"/>
     <use xlink:href="#DejaVuSans-61" x="2978.058594"/>
     <use xlink:href="#DejaVuSans-74" x="3039.337891"/>
     <use xlink:href="#DejaVuSans-61" x="3078.546875"/>
     <use xlink:href="#DejaVuSans-73" x="3139.826172"/>
     <use xlink:href="#DejaVuSans-65" x="3191.925781"/>
     <use xlink:href="#DejaVuSans-74" x="3253.449219"/>
     <use xlink:href="#DejaVuSans-2d" x="3292.658203"/>
     <use xlink:href="#DejaVuSans-72" x="3328.742188"/>
     <use xlink:href="#DejaVuSans-61" x="3369.855469"/>
     <use xlink:href="#DejaVuSans-74" x="3431.134766"/>
     <use xlink:href="#DejaVuSans-74" x="3470.34375"/>
     <use xlink:href="#DejaVuSans-6c" x="3509.552734"/>
     <use xlink:href="#DejaVuSans-65" x="3537.335938"/>
     <use xlink:href="#DejaVuSans-2d" x="3598.859375"/>
     <use xlink:href="#DejaVuSans-70" x="3634.943359"/>
     <use xlink:href="#DejaVuSans-61" x="3698.419922"/>
     <use xlink:href="#DejaVuSans-63" x="3759.699219"/>
     <use xlink:href="#DejaVuSans-6b" x="3814.679688"/>
     <use xlink:href="#DejaVuSans-61" x="3870.839844"/>
     <use xlink:href="#DejaVuSans-67" x="3932.119141"/>
     <use xlink:href="#DejaVuSans-65" x="3995.595703"/>
    </g>
   </g>
   <g id="text_10">
    <!-- Sydney Wind Speeds by Time of Day -->
    <g transform="translate(195.584063 16.318125) scale(0.12 -0.12)">
     <defs>
      <path id="DejaVuSans-57" d="M 213 4666 
L 850 4666 
L 1831 722 
L 2809 4666 
L 3519 4666 
L 4500 722 
L 5478 4666 
L 6119 4666 
L 4947 0 
L 4153 0 
L 3169 4050 
L 2175 0 
L 1381 0 
L 213 4666 
z
" transform="scale(0.015625)"/>
      <path id="DejaVuSans-62" d="M 3116 1747 
Q 3116 2381 2855 2742 
Q 2594 3103 2138 3103 
Q 1681 3103 1420 2742 
Q 1159 2381 1159 1747 
Q 1159 1113 1420 752 
Q 1681 391 2138 391 
Q 2594 391 2855 752 
Q 3116 1113 3116 1747 
z
M 1159 2969 
Q 1341 3281 1617 3432 
Q 1894 3584 2278 3584 
Q 2916 3584 3314 3078 
Q 3713 2572 3713 1747 
Q 3713 922 3314 415 
Q 2916 -91 2278 -91 
Q 1894 -91 1617 61 
Q 1341 213 1159 525 
L 1159 0 
L 581 0 
L 581 4863 
L 1159 4863 
L 1159 2969 
z
" transform="scale(0.015625)"/>
      <path id="DejaVuSans-54" d="M -19 4666 
L 3928 4666 
L 3928 4134 
L 2272 4134 
L 2272 0 
L 1638 0 
L 1638 4134 
L -19 4134 
L -19 4666 
z
" transform="scale(0.015625)"/>
      <path id="DejaVuSans-44" d="M 1259 4147 
L 1259 519 
L 2022 519 
Q 2988 519 3436 956 
Q 3884 1394 3884 2338 
Q 3884 3275 3436 3711 
Q 2988 4147 2022 4147 
L 1259 4147 
z
M 628 4666 
L 1925 4666 
Q 3281 4666 3915 4102 
Q 4550 3538 4550 2338 
Q 4550 1131 3912 565 
Q 3275 0 1925 0 
L 628 0 
L 628 4666 
z
" transform="scale(0.015625)"/>
     </defs>
     <use xlink:href="#DejaVuSans-53"/>
     <use xlink:href="#DejaVuSans-79" x="63.476562"/>
     <use xlink:href="#DejaVuSans-64" x="122.65625"/>
     <use xlink:href="#DejaVuSans-6e" x="186.132812"/>
     <use xlink:href="#DejaVuSans-65" x="249.511719"/>
     <use xlink:href="#DejaVuSans-79" x="311.035156"/>
     <use xlink:href="#DejaVuSans-20" x="370.214844"/>
     <use xlink:href="#DejaVuSans-57" x="402.001953"/>
     <use xlink:href="#DejaVuSans-69" x="498.628906"/>
     <use xlink:href="#DejaVuSans-6e" x="526.412109"/>
     <use xlink:href="#DejaVuSans-64" x="589.791016"/>
     <use xlink:href="#DejaVuSans-20" x="653.267578"/>
     <use xlink:href="#DejaVuSans-53" x="685.054688"/>
     <use xlink:href="#DejaVuSans-70" x="748.53125"/>
     <use xlink:href="#DejaVuSans-65" x="812.007812"/>
     <use xlink:href="#DejaVuSans-65" x="873.53125"/>
     <use xlink:href="#DejaVuSans-64" x="935.054688"/>
     <use xlink:href="#DejaVuSans-73" x="998.53125"/>
     <use xlink:href="#DejaVuSans-20" x="1050.630859"/>
     <use xlink:href="#DejaVuSans-62" x="1082.417969"/>
     <use xlink:href="#DejaVuSans-79" x="1145.894531"/>
     <use xlink:href="#DejaVuSans-20" x="1205.074219"/>
     <use xlink:href="#DejaVuSans-54" x="1236.861328"/>
     <use xlink:href="#DejaVuSans-69" x="1294.820312"/>
     <use xlink:href="#DejaVuSans-6d" x="1322.603516"/>
     <use xlink:href="#DejaVuSans-65" x="1420.015625"/>
     <use xlink:href="#DejaVuSans-20" x="1481.539062"/>
     <use xlink:href="#DejaVuSans-6f" x="1513.326172"/>
     <use xlink:href="#DejaVuSans-66" x="1574.507812"/>
     <use xlink:href="#DejaVuSans-20" x="1609.712891"/>
     <use xlink:href="#DejaVuSans-44" x="1641.5"/>
     <use xlink:href="#DejaVuSans-61" x="1718.501953"/>
     <use xlink:href="#DejaVuSans-79" x="1779.78125"/>
    </g>
   </g>
  </g>
 </g>
 <defs>
  <clipPath id="p8c57219165">
   <rect x="26.925" y="22.318125" width="558" height="460.8"/>
  </clipPath>
 </defs>
</svg>
