<?xml version="1.0" encoding="utf-8" standalone="no"?>
<!DOCTYPE svg PUBLIC "-//W3C//DTD SVG 1.1//EN"
  "http://www.w3.org/Graphics/SVG/1.1/DTD/svg11.dtd">
<svg xmlns:xlink="http://www.w3.org/1999/xlink" width="601.701193pt" height="387.999687pt" viewBox="0 0 601.701193 387.999687" xmlns="http://www.w3.org/2000/svg" version="1.1">
 <metadata>
  <rdf:RDF xmlns:dc="http://purl.org/dc/elements/1.1/" xmlns:cc="http://creativecommons.org/ns#" xmlns:rdf="http://www.w3.org/1999/02/22-rdf-syntax-ns#">
   <cc:Work>
    <dc:type rdf:resource="http://purl.org/dc/dcmitype/StillImage"/>
    <dc:date>2024-03-08T13:44:12.798502</dc:date>
    <dc:format>image/svg+xml</dc:format>
    <dc:creator>
     <cc:Agent>
      <dc:title>Matplotlib v3.8.0, https://matplotlib.org/</dc:title>
     </cc:Agent>
    </dc:creator>
   </cc:Work>
  </rdf:RDF>
 </metadata>
 <defs>
  <style type="text/css">*{stroke-linejoin: round; stroke-linecap: butt}</style>
 </defs>
 <g id="figure_1">
  <g id="patch_1">
   <path d="M 0 387.999687 
L 601.701193 387.999687 
L 601.701193 0 
L 0 0 
z
" style="fill: #ffffff"/>
  </g>
  <g id="axes_1">
   <g id="patch_2">
    <path d="M 272.978182 201.6 
C 272.978182 185.715678 269.849317 169.985812 263.77065 155.310612 
C 257.691983 140.635412 248.78173 127.300275 237.549818 116.068364 
C 226.317907 104.836452 212.982769 95.926198 198.30757 89.847532 
C 183.63237 83.768865 167.902503 80.64 152.018182 80.64 
C 136.13386 80.64 120.403994 83.768865 105.728794 89.847532 
C 91.053594 95.926198 77.718457 104.836452 66.486546 116.068364 
C 55.254634 127.300275 46.34438 140.635412 40.265714 155.310612 
C 34.187047 169.985812 31.058182 185.715678 31.058182 201.6 
C 31.058182 217.484322 34.187047 233.214188 40.265714 247.889388 
C 46.34438 262.564588 55.254634 275.899725 66.486546 287.131636 
C 77.718457 298.363548 91.053594 307.273802 105.728794 313.352468 
C 120.403994 319.431135 136.13386 322.56 152.018182 322.56 
C 167.902503 322.56 183.63237 319.431135 198.30757 313.352468 
C 212.982769 307.273802 226.317907 298.363548 237.549818 287.131636 
C 248.78173 275.899725 257.691983 262.564588 263.77065 247.889388 
C 269.849317 233.214188 272.978182 217.484322 272.978182 201.6 
M 152.018182 201.6 
C 152.018182 201.6 152.018182 201.6 152.018182 201.6 
C 152.018182 201.6 152.018182 201.6 152.018182 201.6 
C 152.018182 201.6 152.018182 201.6 152.018182 201.6 
C 152.018182 201.6 152.018182 201.6 152.018182 201.6 
C 152.018182 201.6 152.018182 201.6 152.018182 201.6 
C 152.018182 201.6 152.018182 201.6 152.018182 201.6 
C 152.018182 201.6 152.018182 201.6 152.018182 201.6 
C 152.018182 201.6 152.018182 201.6 152.018182 201.6 
C 152.018182 201.6 152.018182 201.6 152.018182 201.6 
C 152.018182 201.6 152.018182 201.6 152.018182 201.6 
C 152.018182 201.6 152.018182 201.6 152.018182 201.6 
C 152.018182 201.6 152.018182 201.6 152.018182 201.6 
C 152.018182 201.6 152.018182 201.6 152.018182 201.6 
C 152.018182 201.6 152.018182 201.6 152.018182 201.6 
C 152.018182 201.6 152.018182 201.6 152.018182 201.6 
C 152.018182 201.6 152.018182 201.6 152.018182 201.6 
z
" style="fill: #ffffff"/>
   </g>
   <g id="matplotlib.axis_1">
    <g id="xtick_1">
     <g id="line2d_1">
      <path d="M 152.018182 201.6 
L 152.018182 80.64 
" clip-path="url(#p11fcb22b86)" style="fill: none; stroke: #dad8d7; stroke-opacity: 0.5; stroke-width: 0.8; stroke-linecap: square"/>
     </g>
     <g id="text_1">
      <!-- N -->
      <g transform="translate(148.277557 69.399375) scale(0.1 -0.1)">
       <defs>
        <path id="DejaVuSans-4e" d="M 628 4666 
L 1478 4666 
L 3547 763 
L 3547 4666 
L 4159 4666 
L 4159 0 
L 3309 0 
L 1241 3903 
L 1241 0 
L 628 0 
L 628 4666 
z
" transform="scale(0.015625)"/>
       </defs>
       <use xlink:href="#DejaVuSans-4e"/>
      </g>
     </g>
    </g>
    <g id="xtick_2">
     <g id="line2d_2">
      <path d="M 152.018182 201.6 
L 237.549818 116.068364 
" clip-path="url(#p11fcb22b86)" style="fill: none; stroke: #dad8d7; stroke-opacity: 0.5; stroke-width: 0.8; stroke-linecap: square"/>
     </g>
     <g id="text_2">
      <!-- NE -->
      <g transform="translate(240.549313 108.928244) scale(0.1 -0.1)">
       <defs>
        <path id="DejaVuSans-45" d="M 628 4666 
L 3578 4666 
L 3578 4134 
L 1259 4134 
L 1259 2753 
L 3481 2753 
L 3481 2222 
L 1259 2222 
L 1259 531 
L 3634 531 
L 3634 0 
L 628 0 
L 628 4666 
z
" transform="scale(0.015625)"/>
       </defs>
       <use xlink:href="#DejaVuSans-4e"/>
       <use xlink:href="#DejaVuSans-45" x="74.804688"/>
      </g>
     </g>
    </g>
    <g id="xtick_3">
     <g id="line2d_3">
      <path d="M 152.018182 201.6 
L 272.978182 201.6 
" clip-path="url(#p11fcb22b86)" style="fill: none; stroke: #dad8d7; stroke-opacity: 0.5; stroke-width: 0.8; stroke-linecap: square"/>
     </g>
     <g id="text_3">
      <!-- E -->
      <g transform="translate(283.818807 204.359375) scale(0.1 -0.1)">
       <use xlink:href="#DejaVuSans-45"/>
      </g>
     </g>
    </g>
    <g id="xtick_4">
     <g id="line2d_4">
      <path d="M 152.018182 201.6 
L 237.549818 287.131636 
" clip-path="url(#p11fcb22b86)" style="fill: none; stroke: #dad8d7; stroke-opacity: 0.5; stroke-width: 0.8; stroke-linecap: square"/>
     </g>
     <g id="text_4">
      <!-- SE -->
      <g transform="translate(241.115719 299.790506) scale(0.1 -0.1)">
       <defs>
        <path id="DejaVuSans-53" d="M 3425 4513 
L 3425 3897 
Q 3066 4069 2747 4153 
Q 2428 4238 2131 4238 
Q 1616 4238 1336 4038 
Q 1056 3838 1056 3469 
Q 1056 3159 1242 3001 
Q 1428 2844 1947 2747 
L 2328 2669 
Q 3034 2534 3370 2195 
Q 3706 1856 3706 1288 
Q 3706 609 3251 259 
Q 2797 -91 1919 -91 
Q 1588 -91 1214 -16 
Q 841 59 441 206 
L 441 856 
Q 825 641 1194 531 
Q 1563 422 1919 422 
Q 2459 422 2753 634 
Q 3047 847 3047 1241 
Q 3047 1584 2836 1778 
Q 2625 1972 2144 2069 
L 1759 2144 
Q 1053 2284 737 2584 
Q 422 2884 422 3419 
Q 422 4038 858 4394 
Q 1294 4750 2059 4750 
Q 2388 4750 2728 4690 
Q 3069 4631 3425 4513 
z
" transform="scale(0.015625)"/>
       </defs>
       <use xlink:href="#DejaVuSans-53"/>
       <use xlink:href="#DejaVuSans-45" x="63.476562"/>
      </g>
     </g>
    </g>
    <g id="xtick_5">
     <g id="line2d_5">
      <path d="M 152.018182 201.6 
L 152.018182 322.56 
" clip-path="url(#p11fcb22b86)" style="fill: none; stroke: #dad8d7; stroke-opacity: 0.5; stroke-width: 0.8; stroke-linecap: square"/>
     </g>
     <g id="text_5">
      <!-- S -->
      <g transform="translate(148.843963 339.319375) scale(0.1 -0.1)">
       <use xlink:href="#DejaVuSans-53"/>
      </g>
     </g>
    </g>
    <g id="xtick_6">
     <g id="line2d_6">
      <path d="M 152.018182 201.6 
L 66.486546 287.131636 
" clip-path="url(#p11fcb22b86)" style="fill: none; stroke: #dad8d7; stroke-opacity: 0.5; stroke-width: 0.8; stroke-linecap: square"/>
     </g>
     <g id="text_6">
      <!-- SW -->
      <g transform="translate(48.469082 299.790506) scale(0.1 -0.1)">
       <defs>
        <path id="DejaVuSans-57" d="M 213 4666 
L 850 4666 
L 1831 722 
L 2809 4666 
L 3519 4666 
L 4500 722 
L 5478 4666 
L 6119 4666 
L 4947 0 
L 4153 0 
L 3169 4050 
L 2175 0 
L 1381 0 
L 213 4666 
z
" transform="scale(0.015625)"/>
       </defs>
       <use xlink:href="#DejaVuSans-53"/>
       <use xlink:href="#DejaVuSans-57" x="63.476562"/>
      </g>
     </g>
    </g>
    <g id="xtick_7">
     <g id="line2d_7">
      <path d="M 152.018182 201.6 
L 31.058182 201.6 
" clip-path="url(#p11fcb22b86)" style="fill: none; stroke: #dad8d7; stroke-opacity: 0.5; stroke-width: 0.8; stroke-linecap: square"/>
     </g>
     <g id="text_7">
      <!-- W -->
      <g transform="translate(12.114432 204.359375) scale(0.1 -0.1)">
       <use xlink:href="#DejaVuSans-57"/>
      </g>
     </g>
    </g>
    <g id="xtick_8">
     <g id="line2d_8">
      <path d="M 152.018182 201.6 
L 66.486546 116.068364 
" clip-path="url(#p11fcb22b86)" style="fill: none; stroke: #dad8d7; stroke-opacity: 0.5; stroke-width: 0.8; stroke-linecap: square"/>
     </g>
     <g id="text_8">
      <!-- NW -->
      <g transform="translate(47.902676 108.928244) scale(0.1 -0.1)">
       <use xlink:href="#DejaVuSans-4e"/>
       <use xlink:href="#DejaVuSans-57" x="74.804688"/>
      </g>
     </g>
    </g>
   </g>
   <g id="matplotlib.axis_2">
    <g id="ytick_1">
     <g id="line2d_9">
      <path d="M 152.018182 141.12 
C 159.960343 141.12 167.825276 142.684433 175.162876 145.723766 
C 182.500476 148.763099 189.168044 153.218226 194.784 158.834182 
C 200.399956 164.450138 204.855083 171.117706 207.894416 178.455306 
C 210.933749 185.792906 212.498182 193.657839 212.498182 201.6 
C 212.498182 209.542161 210.933749 217.407094 207.894416 224.744694 
C 204.855083 232.082294 200.399956 238.749862 194.784 244.365818 
C 189.168044 249.981774 182.500476 254.436901 175.162876 257.476234 
C 167.825276 260.515567 159.960343 262.08 152.018182 262.08 
C 144.076021 262.08 136.211088 260.515567 128.873488 257.476234 
C 121.535888 254.436901 114.868319 249.981774 109.252364 244.365818 
C 103.636408 238.749862 99.181281 232.082294 96.141948 224.744694 
C 93.102614 217.407094 91.538182 209.542161 91.538182 201.6 
C 91.538182 193.657839 93.102614 185.792906 96.141948 178.455306 
C 99.181281 171.117706 103.636408 164.450138 109.252364 158.834182 
C 114.868319 153.218226 121.535888 148.763099 128.873488 145.723766 
C 136.211088 142.684433 144.076021 141.12 152.018182 141.12 
" clip-path="url(#p11fcb22b86)" style="fill: none; stroke: #dad8d7; stroke-opacity: 0.5; stroke-width: 0.8; stroke-linecap: square"/>
     </g>
     <g id="text_9">
      <!-- 25% -->
      <g transform="translate(175.162876 143.644078) scale(0.1 -0.1)">
       <defs>
        <path id="DejaVuSans-32" d="M 1228 531 
L 3431 531 
L 3431 0 
L 469 0 
L 469 531 
Q 828 903 1448 1529 
Q 2069 2156 2228 2338 
Q 2531 2678 2651 2914 
Q 2772 3150 2772 3378 
Q 2772 3750 2511 3984 
Q 2250 4219 1831 4219 
Q 1534 4219 1204 4116 
Q 875 4013 500 3803 
L 500 4441 
Q 881 4594 1212 4672 
Q 1544 4750 1819 4750 
Q 2544 4750 2975 4387 
Q 3406 4025 3406 3419 
Q 3406 3131 3298 2873 
Q 3191 2616 2906 2266 
Q 2828 2175 2409 1742 
Q 1991 1309 1228 531 
z
" transform="scale(0.015625)"/>
        <path id="DejaVuSans-35" d="M 691 4666 
L 3169 4666 
L 3169 4134 
L 1269 4134 
L 1269 2991 
Q 1406 3038 1543 3061 
Q 1681 3084 1819 3084 
Q 2600 3084 3056 2656 
Q 3513 2228 3513 1497 
Q 3513 744 3044 326 
Q 2575 -91 1722 -91 
Q 1428 -91 1123 -41 
Q 819 9 494 109 
L 494 744 
Q 775 591 1075 516 
Q 1375 441 1709 441 
Q 2250 441 2565 725 
Q 2881 1009 2881 1497 
Q 2881 1984 2565 2268 
Q 2250 2553 1709 2553 
Q 1456 2553 1204 2497 
Q 953 2441 691 2322 
L 691 4666 
z
" transform="scale(0.015625)"/>
        <path id="DejaVuSans-25" d="M 4653 2053 
Q 4381 2053 4226 1822 
Q 4072 1591 4072 1178 
Q 4072 772 4226 539 
Q 4381 306 4653 306 
Q 4919 306 5073 539 
Q 5228 772 5228 1178 
Q 5228 1588 5073 1820 
Q 4919 2053 4653 2053 
z
M 4653 2450 
Q 5147 2450 5437 2106 
Q 5728 1763 5728 1178 
Q 5728 594 5436 251 
Q 5144 -91 4653 -91 
Q 4153 -91 3862 251 
Q 3572 594 3572 1178 
Q 3572 1766 3864 2108 
Q 4156 2450 4653 2450 
z
M 1428 4353 
Q 1159 4353 1004 4120 
Q 850 3888 850 3481 
Q 850 3069 1003 2837 
Q 1156 2606 1428 2606 
Q 1700 2606 1854 2837 
Q 2009 3069 2009 3481 
Q 2009 3884 1853 4118 
Q 1697 4353 1428 4353 
z
M 4250 4750 
L 4750 4750 
L 1831 -91 
L 1331 -91 
L 4250 4750 
z
M 1428 4750 
Q 1922 4750 2215 4408 
Q 2509 4066 2509 3481 
Q 2509 2891 2217 2550 
Q 1925 2209 1428 2209 
Q 931 2209 642 2551 
Q 353 2894 353 3481 
Q 353 4063 643 4406 
Q 934 4750 1428 4750 
z
" transform="scale(0.015625)"/>
       </defs>
       <use xlink:href="#DejaVuSans-32"/>
       <use xlink:href="#DejaVuSans-35" x="63.623047"/>
       <use xlink:href="#DejaVuSans-25" x="127.246094"/>
      </g>
     </g>
    </g>
    <g id="ytick_2">
     <g id="line2d_10">
      <path d="M 152.018182 80.64 
C 167.902503 80.64 183.63237 83.768865 198.30757 89.847532 
C 212.982769 95.926198 226.317907 104.836452 237.549818 116.068364 
C 248.78173 127.300275 257.691983 140.635412 263.77065 155.310612 
C 269.849317 169.985812 272.978182 185.715678 272.978182 201.6 
C 272.978182 217.484322 269.849317 233.214188 263.77065 247.889388 
C 257.691983 262.564588 248.78173 275.899725 237.549818 287.131636 
C 226.317907 298.363548 212.982769 307.273802 198.30757 313.352468 
C 183.63237 319.431135 167.902503 322.56 152.018182 322.56 
C 136.13386 322.56 120.403994 319.431135 105.728794 313.352468 
C 91.053594 307.273802 77.718457 298.363548 66.486546 287.131636 
C 55.254634 275.899725 46.34438 262.564588 40.265714 247.889388 
C 34.187047 233.214188 31.058182 217.484322 31.058182 201.6 
C 31.058182 185.715678 34.187047 169.985812 40.265714 155.310612 
C 46.34438 140.635412 55.254634 127.300275 66.486546 116.068364 
C 77.718457 104.836452 91.053594 95.926198 105.728794 89.847532 
C 120.403994 83.768865 136.13386 80.64 152.018182 80.64 
" clip-path="url(#p11fcb22b86)" style="fill: none; stroke: #dad8d7; stroke-opacity: 0.5; stroke-width: 0.8; stroke-linecap: square"/>
     </g>
     <g id="text_10">
      <!-- 50% -->
      <g transform="translate(198.30757 87.767844) scale(0.1 -0.1)">
       <defs>
        <path id="DejaVuSans-30" d="M 2034 4250 
Q 1547 4250 1301 3770 
Q 1056 3291 1056 2328 
Q 1056 1369 1301 889 
Q 1547 409 2034 409 
Q 2525 409 2770 889 
Q 3016 1369 3016 2328 
Q 3016 3291 2770 3770 
Q 2525 4250 2034 4250 
z
M 2034 4750 
Q 2819 4750 3233 4129 
Q 3647 3509 3647 2328 
Q 3647 1150 3233 529 
Q 2819 -91 2034 -91 
Q 1250 -91 836 529 
Q 422 1150 422 2328 
Q 422 3509 836 4129 
Q 1250 4750 2034 4750 
z
" transform="scale(0.015625)"/>
       </defs>
       <use xlink:href="#DejaVuSans-35"/>
       <use xlink:href="#DejaVuSans-30" x="63.623047"/>
       <use xlink:href="#DejaVuSans-25" x="127.246094"/>
      </g>
     </g>
    </g>
   </g>
   <g id="patch_3">
    <path d="M 152.018182 201.6 
C 152.018182 201.6 152.018182 201.6 152.018182 201.6 
C 152.018182 201.6 152.018182 201.6 152.018182 201.6 
L 153.481091 194.245457 
C 152.999351 194.149633 152.50936 194.101373 152.018182 194.101373 
C 151.527004 194.101373 151.037012 194.149633 150.555272 194.245457 
z
" clip-path="url(#p11fcb22b86)" style="fill: #cfb87c"/>
   </g>
   <g id="patch_4">
    <path d="M 152.018182 201.6 
C 152.018182 201.6 152.018182 201.6 152.018182 201.6 
C 152.018182 201.6 152.018182 201.6 152.018182 201.6 
L 155.886624 195.810468 
C 155.507395 195.557076 155.104186 195.341556 154.682811 195.167017 
C 154.261435 194.992477 153.823928 194.859761 153.376598 194.770781 
z
" clip-path="url(#p11fcb22b86)" style="fill: #cfb87c"/>
   </g>
   <g id="patch_5">
    <path d="M 152.018182 201.6 
C 152.018182 201.6 152.018182 201.6 152.018182 201.6 
C 152.018182 201.6 152.018182 201.6 152.018182 201.6 
L 156.991241 198.277108 
C 156.773584 197.951361 156.524447 197.647786 156.247421 197.37076 
C 155.970396 197.093735 155.666821 196.844598 155.341074 196.62694 
z
" clip-path="url(#p11fcb22b86)" style="fill: #cfb87c"/>
   </g>
   <g id="patch_6">
    <path d="M 152.018182 201.6 
C 152.018182 201.6 152.018182 201.6 152.018182 201.6 
C 152.018182 201.6 152.018182 201.6 152.018182 201.6 
L 157.271427 200.555065 
C 157.202981 200.210965 157.100892 199.874421 156.966631 199.550285 
C 156.832369 199.22615 156.666585 198.91599 156.471668 198.624276 
z
" clip-path="url(#p11fcb22b86)" style="fill: #cfb87c"/>
   </g>
   <g id="patch_7">
    <path d="M 152.018182 201.6 
C 152.018182 201.6 152.018182 201.6 152.018182 201.6 
C 152.018182 201.6 152.018182 201.6 152.018182 201.6 
L 162.086902 203.602793 
C 162.218089 202.943268 162.28416 202.272446 162.28416 201.6 
C 162.28416 200.927554 162.218089 200.256732 162.086902 199.597207 
z
" clip-path="url(#p11fcb22b86)" style="fill: #cfb87c"/>
   </g>
   <g id="patch_8">
    <path d="M 152.018182 201.6 
C 152.018182 201.6 152.018182 201.6 152.018182 201.6 
C 152.018182 201.6 152.018182 201.6 152.018182 201.6 
L 159.960232 206.906708 
C 160.307834 206.386485 160.603483 205.833365 160.842915 205.255324 
C 161.082348 204.677283 161.264408 204.077113 161.386469 203.463468 
z
" clip-path="url(#p11fcb22b86)" style="fill: #cfb87c"/>
   </g>
   <g id="patch_9">
    <path d="M 152.018182 201.6 
C 152.018182 201.6 152.018182 201.6 152.018182 201.6 
C 152.018182 201.6 152.018182 201.6 152.018182 201.6 
L 155.936219 207.463757 
C 156.320309 207.207116 156.678255 206.913357 157.004897 206.586715 
C 157.331539 206.260074 157.625298 205.902127 157.881939 205.518037 
z
" clip-path="url(#p11fcb22b86)" style="fill: #cfb87c"/>
   </g>
   <g id="patch_10">
    <path d="M 152.018182 201.6 
C 152.018182 201.6 152.018182 201.6 152.018182 201.6 
C 152.018182 201.6 152.018182 201.6 152.018182 201.6 
L 153.620416 209.654976 
C 154.148036 209.550026 154.66407 209.393489 155.161078 209.187621 
C 155.658085 208.981754 156.133665 208.727552 156.580959 208.428679 
z
" clip-path="url(#p11fcb22b86)" style="fill: #cfb87c"/>
   </g>
   <g id="patch_11">
    <path d="M 152.018182 201.6 
C 152.018182 201.6 152.018182 201.6 152.018182 201.6 
C 152.018182 201.6 152.018182 201.6 152.018182 201.6 
L 149.701908 213.244694 
C 150.464663 213.396415 151.240484 213.472827 152.018182 213.472827 
C 152.79588 213.472827 153.5717 213.396415 154.334455 213.244694 
z
" clip-path="url(#p11fcb22b86)" style="fill: #cfb87c"/>
   </g>
   <g id="patch_12">
    <path d="M 152.018182 201.6 
C 152.018182 201.6 152.018182 201.6 152.018182 201.6 
C 152.018182 201.6 152.018182 201.6 152.018182 201.6 
L 144.826848 212.362592 
C 145.531823 212.833641 146.281378 213.234287 147.064705 213.558751 
C 147.848031 213.883216 148.661346 214.129932 149.492921 214.295343 
z
" clip-path="url(#p11fcb22b86)" style="fill: #cfb87c"/>
   </g>
   <g id="patch_13">
    <path d="M 152.018182 201.6 
C 152.018182 201.6 152.018182 201.6 152.018182 201.6 
C 152.018182 201.6 152.018182 201.6 152.018182 201.6 
L 148.455393 203.980579 
C 148.611326 204.213951 148.789813 204.431437 148.988279 204.629903 
C 149.186745 204.828369 149.404231 205.006855 149.637602 205.162789 
z
" clip-path="url(#p11fcb22b86)" style="fill: #cfb87c"/>
   </g>
   <g id="patch_14">
    <path d="M 152.018182 201.6 
C 152.018182 201.6 152.018182 201.6 152.018182 201.6 
C 152.018182 201.6 152.018182 201.6 152.018182 201.6 
L 144.751193 203.045494 
C 144.845876 203.521499 144.9871 203.987052 145.172828 204.435439 
C 145.358556 204.883825 145.587891 205.312881 145.857526 205.716419 
z
" clip-path="url(#p11fcb22b86)" style="fill: #cfb87c"/>
   </g>
   <g id="patch_15">
    <path d="M 152.018182 201.6 
C 152.018182 201.6 152.018182 201.6 152.018182 201.6 
C 152.018182 201.6 152.018182 201.6 152.018182 201.6 
L 60.173945 183.331045 
C 58.977285 189.347061 58.37461 195.466124 58.37461 201.6 
C 58.37461 207.733876 58.977285 213.852939 60.173945 219.868955 
z
" clip-path="url(#p11fcb22b86)" style="fill: #cfb87c"/>
   </g>
   <g id="patch_16">
    <path d="M 152.018182 201.6 
C 152.018182 201.6 152.018182 201.6 152.018182 201.6 
C 152.018182 201.6 152.018182 201.6 152.018182 201.6 
L 121.660251 181.315479 
C 120.331566 183.303995 119.20147 185.418258 118.286256 187.627779 
C 117.371042 189.8373 116.675132 192.131408 116.20856 194.477023 
z
" clip-path="url(#p11fcb22b86)" style="fill: #cfb87c"/>
   </g>
   <g id="patch_17">
    <path d="M 152.018182 201.6 
C 152.018182 201.6 152.018182 201.6 152.018182 201.6 
C 152.018182 201.6 152.018182 201.6 152.018182 201.6 
L 148.447313 196.255817 
C 148.097256 196.489717 147.771026 196.757447 147.473327 197.055146 
C 147.175629 197.352844 146.907899 197.679074 146.673998 198.029131 
z
" clip-path="url(#p11fcb22b86)" style="fill: #cfb87c"/>
   </g>
   <g id="patch_18">
    <path d="M 152.018182 201.6 
C 152.018182 201.6 152.018182 201.6 152.018182 201.6 
C 152.018182 201.6 152.018182 201.6 152.018182 201.6 
L 150.468194 193.807686 
C 149.957779 193.909214 149.458572 194.060647 148.977772 194.259801 
C 148.496971 194.458955 148.0369 194.704869 147.604191 194.993995 
z
" clip-path="url(#p11fcb22b86)" style="fill: #cfb87c"/>
   </g>
   <g id="text_11">
    <!-- Morning Wind Direction -->
    <g transform="translate(81.735682 55.800937) scale(0.12 -0.12)">
     <defs>
      <path id="DejaVuSans-4d" d="M 628 4666 
L 1569 4666 
L 2759 1491 
L 3956 4666 
L 4897 4666 
L 4897 0 
L 4281 0 
L 4281 4097 
L 3078 897 
L 2444 897 
L 1241 4097 
L 1241 0 
L 628 0 
L 628 4666 
z
" transform="scale(0.015625)"/>
      <path id="DejaVuSans-6f" d="M 1959 3097 
Q 1497 3097 1228 2736 
Q 959 2375 959 1747 
Q 959 1119 1226 758 
Q 1494 397 1959 397 
Q 2419 397 2687 759 
Q 2956 1122 2956 1747 
Q 2956 2369 2687 2733 
Q 2419 3097 1959 3097 
z
M 1959 3584 
Q 2709 3584 3137 3096 
Q 3566 2609 3566 1747 
Q 3566 888 3137 398 
Q 2709 -91 1959 -91 
Q 1206 -91 779 398 
Q 353 888 353 1747 
Q 353 2609 779 3096 
Q 1206 3584 1959 3584 
z
" transform="scale(0.015625)"/>
      <path id="DejaVuSans-72" d="M 2631 2963 
Q 2534 3019 2420 3045 
Q 2306 3072 2169 3072 
Q 1681 3072 1420 2755 
Q 1159 2438 1159 1844 
L 1159 0 
L 581 0 
L 581 3500 
L 1159 3500 
L 1159 2956 
Q 1341 3275 1631 3429 
Q 1922 3584 2338 3584 
Q 2397 3584 2469 3576 
Q 2541 3569 2628 3553 
L 2631 2963 
z
" transform="scale(0.015625)"/>
      <path id="DejaVuSans-6e" d="M 3513 2113 
L 3513 0 
L 2938 0 
L 2938 2094 
Q 2938 2591 2744 2837 
Q 2550 3084 2163 3084 
Q 1697 3084 1428 2787 
Q 1159 2491 1159 1978 
L 1159 0 
L 581 0 
L 581 3500 
L 1159 3500 
L 1159 2956 
Q 1366 3272 1645 3428 
Q 1925 3584 2291 3584 
Q 2894 3584 3203 3211 
Q 3513 2838 3513 2113 
z
" transform="scale(0.015625)"/>
      <path id="DejaVuSans-69" d="M 603 3500 
L 1178 3500 
L 1178 0 
L 603 0 
L 603 3500 
z
M 603 4863 
L 1178 4863 
L 1178 4134 
L 603 4134 
L 603 4863 
z
" transform="scale(0.015625)"/>
      <path id="DejaVuSans-67" d="M 2906 1791 
Q 2906 2416 2648 2759 
Q 2391 3103 1925 3103 
Q 1463 3103 1205 2759 
Q 947 2416 947 1791 
Q 947 1169 1205 825 
Q 1463 481 1925 481 
Q 2391 481 2648 825 
Q 2906 1169 2906 1791 
z
M 3481 434 
Q 3481 -459 3084 -895 
Q 2688 -1331 1869 -1331 
Q 1566 -1331 1297 -1286 
Q 1028 -1241 775 -1147 
L 775 -588 
Q 1028 -725 1275 -790 
Q 1522 -856 1778 -856 
Q 2344 -856 2625 -561 
Q 2906 -266 2906 331 
L 2906 616 
Q 2728 306 2450 153 
Q 2172 0 1784 0 
Q 1141 0 747 490 
Q 353 981 353 1791 
Q 353 2603 747 3093 
Q 1141 3584 1784 3584 
Q 2172 3584 2450 3431 
Q 2728 3278 2906 2969 
L 2906 3500 
L 3481 3500 
L 3481 434 
z
" transform="scale(0.015625)"/>
      <path id="DejaVuSans-20" transform="scale(0.015625)"/>
      <path id="DejaVuSans-64" d="M 2906 2969 
L 2906 4863 
L 3481 4863 
L 3481 0 
L 2906 0 
L 2906 525 
Q 2725 213 2448 61 
Q 2172 -91 1784 -91 
Q 1150 -91 751 415 
Q 353 922 353 1747 
Q 353 2572 751 3078 
Q 1150 3584 1784 3584 
Q 2172 3584 2448 3432 
Q 2725 3281 2906 2969 
z
M 947 1747 
Q 947 1113 1208 752 
Q 1469 391 1925 391 
Q 2381 391 2643 752 
Q 2906 1113 2906 1747 
Q 2906 2381 2643 2742 
Q 2381 3103 1925 3103 
Q 1469 3103 1208 2742 
Q 947 2381 947 1747 
z
" transform="scale(0.015625)"/>
      <path id="DejaVuSans-44" d="M 1259 4147 
L 1259 519 
L 2022 519 
Q 2988 519 3436 956 
Q 3884 1394 3884 2338 
Q 3884 3275 3436 3711 
Q 2988 4147 2022 4147 
L 1259 4147 
z
M 628 4666 
L 1925 4666 
Q 3281 4666 3915 4102 
Q 4550 3538 4550 2338 
Q 4550 1131 3912 565 
Q 3275 0 1925 0 
L 628 0 
L 628 4666 
z
" transform="scale(0.015625)"/>
      <path id="DejaVuSans-65" d="M 3597 1894 
L 3597 1613 
L 953 1613 
Q 991 1019 1311 708 
Q 1631 397 2203 397 
Q 2534 397 2845 478 
Q 3156 559 3463 722 
L 3463 178 
Q 3153 47 2828 -22 
Q 2503 -91 2169 -91 
Q 1331 -91 842 396 
Q 353 884 353 1716 
Q 353 2575 817 3079 
Q 1281 3584 2069 3584 
Q 2775 3584 3186 3129 
Q 3597 2675 3597 1894 
z
M 3022 2063 
Q 3016 2534 2758 2815 
Q 2500 3097 2075 3097 
Q 1594 3097 1305 2825 
Q 1016 2553 972 2059 
L 3022 2063 
z
" transform="scale(0.015625)"/>
      <path id="DejaVuSans-63" d="M 3122 3366 
L 3122 2828 
Q 2878 2963 2633 3030 
Q 2388 3097 2138 3097 
Q 1578 3097 1268 2742 
Q 959 2388 959 1747 
Q 959 1106 1268 751 
Q 1578 397 2138 397 
Q 2388 397 2633 464 
Q 2878 531 3122 666 
L 3122 134 
Q 2881 22 2623 -34 
Q 2366 -91 2075 -91 
Q 1284 -91 818 406 
Q 353 903 353 1747 
Q 353 2603 823 3093 
Q 1294 3584 2113 3584 
Q 2378 3584 2631 3529 
Q 2884 3475 3122 3366 
z
" transform="scale(0.015625)"/>
      <path id="DejaVuSans-74" d="M 1172 4494 
L 1172 3500 
L 2356 3500 
L 2356 3053 
L 1172 3053 
L 1172 1153 
Q 1172 725 1289 603 
Q 1406 481 1766 481 
L 2356 481 
L 2356 0 
L 1766 0 
Q 1100 0 847 248 
Q 594 497 594 1153 
L 594 3053 
L 172 3053 
L 172 3500 
L 594 3500 
L 594 4494 
L 1172 4494 
z
" transform="scale(0.015625)"/>
     </defs>
     <use xlink:href="#DejaVuSans-4d"/>
     <use xlink:href="#DejaVuSans-6f" x="86.279297"/>
     <use xlink:href="#DejaVuSans-72" x="147.460938"/>
     <use xlink:href="#DejaVuSans-6e" x="186.824219"/>
     <use xlink:href="#DejaVuSans-69" x="250.203125"/>
     <use xlink:href="#DejaVuSans-6e" x="277.986328"/>
     <use xlink:href="#DejaVuSans-67" x="341.365234"/>
     <use xlink:href="#DejaVuSans-20" x="404.841797"/>
     <use xlink:href="#DejaVuSans-57" x="436.628906"/>
     <use xlink:href="#DejaVuSans-69" x="533.255859"/>
     <use xlink:href="#DejaVuSans-6e" x="561.039062"/>
     <use xlink:href="#DejaVuSans-64" x="624.417969"/>
     <use xlink:href="#DejaVuSans-20" x="687.894531"/>
     <use xlink:href="#DejaVuSans-44" x="719.681641"/>
     <use xlink:href="#DejaVuSans-69" x="796.683594"/>
     <use xlink:href="#DejaVuSans-72" x="824.466797"/>
     <use xlink:href="#DejaVuSans-65" x="863.330078"/>
     <use xlink:href="#DejaVuSans-63" x="924.853516"/>
     <use xlink:href="#DejaVuSans-74" x="979.833984"/>
     <use xlink:href="#DejaVuSans-69" x="1019.042969"/>
     <use xlink:href="#DejaVuSans-6f" x="1046.826172"/>
     <use xlink:href="#DejaVuSans-6e" x="1108.007812"/>
    </g>
   </g>
  </g>
  <g id="axes_2">
   <g id="patch_19">
    <path d="M 577.341818 201.6 
C 577.341818 185.715678 574.212953 169.985812 568.134286 155.310612 
C 562.05562 140.635412 553.145366 127.300275 541.913454 116.068364 
C 530.681543 104.836452 517.346406 95.926198 502.671206 89.847532 
C 487.996006 83.768865 472.26614 80.64 456.381818 80.64 
C 440.497497 80.64 424.76763 83.768865 410.09243 89.847532 
C 395.417231 95.926198 382.082093 104.836452 370.850182 116.068364 
C 359.61827 127.300275 350.708017 140.635412 344.62935 155.310612 
C 338.550683 169.985812 335.421818 185.715678 335.421818 201.6 
C 335.421818 217.484322 338.550683 233.214188 344.62935 247.889388 
C 350.708017 262.564588 359.61827 275.899725 370.850182 287.131636 
C 382.082093 298.363548 395.417231 307.273802 410.09243 313.352468 
C 424.76763 319.431135 440.497497 322.56 456.381818 322.56 
C 472.26614 322.56 487.996006 319.431135 502.671206 313.352468 
C 517.346406 307.273802 530.681543 298.363548 541.913454 287.131636 
C 553.145366 275.899725 562.05562 262.564588 568.134286 247.889388 
C 574.212953 233.214188 577.341818 217.484322 577.341818 201.6 
M 456.381818 201.6 
C 456.381818 201.6 456.381818 201.6 456.381818 201.6 
C 456.381818 201.6 456.381818 201.6 456.381818 201.6 
C 456.381818 201.6 456.381818 201.6 456.381818 201.6 
C 456.381818 201.6 456.381818 201.6 456.381818 201.6 
C 456.381818 201.6 456.381818 201.6 456.381818 201.6 
C 456.381818 201.6 456.381818 201.6 456.381818 201.6 
C 456.381818 201.6 456.381818 201.6 456.381818 201.6 
C 456.381818 201.6 456.381818 201.6 456.381818 201.6 
C 456.381818 201.6 456.381818 201.6 456.381818 201.6 
C 456.381818 201.6 456.381818 201.6 456.381818 201.6 
C 456.381818 201.6 456.381818 201.6 456.381818 201.6 
C 456.381818 201.6 456.381818 201.6 456.381818 201.6 
C 456.381818 201.6 456.381818 201.6 456.381818 201.6 
C 456.381818 201.6 456.381818 201.6 456.381818 201.6 
C 456.381818 201.6 456.381818 201.6 456.381818 201.6 
C 456.381818 201.6 456.381818 201.6 456.381818 201.6 
z
" style="fill: #ffffff"/>
   </g>
   <g id="matplotlib.axis_3">
    <g id="xtick_9">
     <g id="line2d_11">
      <path d="M 456.381818 201.6 
L 456.381818 80.64 
" clip-path="url(#p413617b2ef)" style="fill: none; stroke: #dad8d7; stroke-opacity: 0.5; stroke-width: 0.8; stroke-linecap: square"/>
     </g>
     <g id="text_12">
      <!-- N -->
      <g transform="translate(452.641193 69.399375) scale(0.1 -0.1)">
       <use xlink:href="#DejaVuSans-4e"/>
      </g>
     </g>
    </g>
    <g id="xtick_10">
     <g id="line2d_12">
      <path d="M 456.381818 201.6 
L 541.913454 116.068364 
" clip-path="url(#p413617b2ef)" style="fill: none; stroke: #dad8d7; stroke-opacity: 0.5; stroke-width: 0.8; stroke-linecap: square"/>
     </g>
     <g id="text_13">
      <!-- NE -->
      <g transform="translate(544.912949 108.928244) scale(0.1 -0.1)">
       <use xlink:href="#DejaVuSans-4e"/>
       <use xlink:href="#DejaVuSans-45" x="74.804688"/>
      </g>
     </g>
    </g>
    <g id="xtick_11">
     <g id="line2d_13">
      <path d="M 456.381818 201.6 
L 577.341818 201.6 
" clip-path="url(#p413617b2ef)" style="fill: none; stroke: #dad8d7; stroke-opacity: 0.5; stroke-width: 0.8; stroke-linecap: square"/>
     </g>
     <g id="text_14">
      <!-- E -->
      <g transform="translate(588.182443 204.359375) scale(0.1 -0.1)">
       <use xlink:href="#DejaVuSans-45"/>
      </g>
     </g>
    </g>
    <g id="xtick_12">
     <g id="line2d_14">
      <path d="M 456.381818 201.6 
L 541.913454 287.131636 
" clip-path="url(#p413617b2ef)" style="fill: none; stroke: #dad8d7; stroke-opacity: 0.5; stroke-width: 0.8; stroke-linecap: square"/>
     </g>
     <g id="text_15">
      <!-- SE -->
      <g transform="translate(545.479356 299.790506) scale(0.1 -0.1)">
       <use xlink:href="#DejaVuSans-53"/>
       <use xlink:href="#DejaVuSans-45" x="63.476562"/>
      </g>
     </g>
    </g>
    <g id="xtick_13">
     <g id="line2d_15">
      <path d="M 456.381818 201.6 
L 456.381818 322.56 
" clip-path="url(#p413617b2ef)" style="fill: none; stroke: #dad8d7; stroke-opacity: 0.5; stroke-width: 0.8; stroke-linecap: square"/>
     </g>
     <g id="text_16">
      <!-- S -->
      <g transform="translate(453.207599 339.319375) scale(0.1 -0.1)">
       <use xlink:href="#DejaVuSans-53"/>
      </g>
     </g>
    </g>
    <g id="xtick_14">
     <g id="line2d_16">
      <path d="M 456.381818 201.6 
L 370.850182 287.131636 
" clip-path="url(#p413617b2ef)" style="fill: none; stroke: #dad8d7; stroke-opacity: 0.5; stroke-width: 0.8; stroke-linecap: square"/>
     </g>
     <g id="text_17">
      <!-- SW -->
      <g transform="translate(352.832718 299.790506) scale(0.1 -0.1)">
       <use xlink:href="#DejaVuSans-53"/>
       <use xlink:href="#DejaVuSans-57" x="63.476562"/>
      </g>
     </g>
    </g>
    <g id="xtick_15">
     <g id="line2d_17">
      <path d="M 456.381818 201.6 
L 335.421818 201.6 
" clip-path="url(#p413617b2ef)" style="fill: none; stroke: #dad8d7; stroke-opacity: 0.5; stroke-width: 0.8; stroke-linecap: square"/>
     </g>
     <g id="text_18">
      <!-- W -->
      <g transform="translate(316.478068 204.359375) scale(0.1 -0.1)">
       <use xlink:href="#DejaVuSans-57"/>
      </g>
     </g>
    </g>
    <g id="xtick_16">
     <g id="line2d_18">
      <path d="M 456.381818 201.6 
L 370.850182 116.068364 
" clip-path="url(#p413617b2ef)" style="fill: none; stroke: #dad8d7; stroke-opacity: 0.5; stroke-width: 0.8; stroke-linecap: square"/>
     </g>
     <g id="text_19">
      <!-- NW -->
      <g transform="translate(352.266312 108.928244) scale(0.1 -0.1)">
       <use xlink:href="#DejaVuSans-4e"/>
       <use xlink:href="#DejaVuSans-57" x="74.804688"/>
      </g>
     </g>
    </g>
   </g>
   <g id="matplotlib.axis_4">
    <g id="ytick_3">
     <g id="line2d_19">
      <path d="M 456.381818 141.12 
C 464.323979 141.12 472.188912 142.684433 479.526512 145.723766 
C 486.864112 148.763099 493.531681 153.218226 499.147636 158.834182 
C 504.763592 164.450138 509.218719 171.117706 512.258052 178.455306 
C 515.297386 185.792906 516.861818 193.657839 516.861818 201.6 
C 516.861818 209.542161 515.297386 217.407094 512.258052 224.744694 
C 509.218719 232.082294 504.763592 238.749862 499.147636 244.365818 
C 493.531681 249.981774 486.864112 254.436901 479.526512 257.476234 
C 472.188912 260.515567 464.323979 262.08 456.381818 262.08 
C 448.439657 262.08 440.574724 260.515567 433.237124 257.476234 
C 425.899524 254.436901 419.231956 249.981774 413.616 244.365818 
C 408.000044 238.749862 403.544917 232.082294 400.505584 224.744694 
C 397.466251 217.407094 395.901818 209.542161 395.901818 201.6 
C 395.901818 193.657839 397.466251 185.792906 400.505584 178.455306 
C 403.544917 171.117706 408.000044 164.450138 413.616 158.834182 
C 419.231956 153.218226 425.899524 148.763099 433.237124 145.723766 
C 440.574724 142.684433 448.439657 141.12 456.381818 141.12 
" clip-path="url(#p413617b2ef)" style="fill: none; stroke: #dad8d7; stroke-opacity: 0.5; stroke-width: 0.8; stroke-linecap: square"/>
     </g>
     <g id="text_20">
      <!-- 25% -->
      <g transform="translate(479.526512 143.644078) scale(0.1 -0.1)">
       <use xlink:href="#DejaVuSans-32"/>
       <use xlink:href="#DejaVuSans-35" x="63.623047"/>
       <use xlink:href="#DejaVuSans-25" x="127.246094"/>
      </g>
     </g>
    </g>
    <g id="ytick_4">
     <g id="line2d_20">
      <path d="M 456.381818 80.64 
C 472.26614 80.64 487.996006 83.768865 502.671206 89.847532 
C 517.346406 95.926198 530.681543 104.836452 541.913454 116.068364 
C 553.145366 127.300275 562.05562 140.635412 568.134286 155.310612 
C 574.212953 169.985812 577.341818 185.715678 577.341818 201.6 
C 577.341818 217.484322 574.212953 233.214188 568.134286 247.889388 
C 562.05562 262.564588 553.145366 275.899725 541.913454 287.131636 
C 530.681543 298.363548 517.346406 307.273802 502.671206 313.352468 
C 487.996006 319.431135 472.26614 322.56 456.381818 322.56 
C 440.497497 322.56 424.76763 319.431135 410.09243 313.352468 
C 395.417231 307.273802 382.082093 298.363548 370.850182 287.131636 
C 359.61827 275.899725 350.708017 262.564588 344.62935 247.889388 
C 338.550683 233.214188 335.421818 217.484322 335.421818 201.6 
C 335.421818 185.715678 338.550683 169.985812 344.62935 155.310612 
C 350.708017 140.635412 359.61827 127.300275 370.850182 116.068364 
C 382.082093 104.836452 395.417231 95.926198 410.09243 89.847532 
C 424.76763 83.768865 440.497497 80.64 456.381818 80.64 
" clip-path="url(#p413617b2ef)" style="fill: none; stroke: #dad8d7; stroke-opacity: 0.5; stroke-width: 0.8; stroke-linecap: square"/>
     </g>
     <g id="text_21">
      <!-- 50% -->
      <g transform="translate(502.671206 87.767844) scale(0.1 -0.1)">
       <use xlink:href="#DejaVuSans-35"/>
       <use xlink:href="#DejaVuSans-30" x="63.623047"/>
       <use xlink:href="#DejaVuSans-25" x="127.246094"/>
      </g>
     </g>
    </g>
   </g>
   <g id="patch_20">
    <path d="M 456.381818 201.6 
C 456.381818 201.6 456.381818 201.6 456.381818 201.6 
C 456.381818 201.6 456.381818 201.6 456.381818 201.6 
L 457.235182 197.30985 
C 456.954167 197.253952 456.668339 197.225801 456.381818 197.225801 
C 456.095298 197.225801 455.809469 197.253952 455.528454 197.30985 
z
" clip-path="url(#p413617b2ef)" style="fill: #565a5c"/>
   </g>
   <g id="patch_21">
    <path d="M 456.381818 201.6 
C 456.381818 201.6 456.381818 201.6 456.381818 201.6 
C 456.381818 201.6 456.381818 201.6 456.381818 201.6 
L 458.712802 198.111436 
C 458.484293 197.958751 458.241334 197.828886 457.987428 197.723715 
C 457.733522 197.618544 457.469896 197.538574 457.200351 197.484958 
z
" clip-path="url(#p413617b2ef)" style="fill: #565a5c"/>
   </g>
   <g id="patch_22">
    <path d="M 456.381818 201.6 
C 456.381818 201.6 456.381818 201.6 456.381818 201.6 
C 456.381818 201.6 456.381818 201.6 456.381818 201.6 
L 477.535878 187.465309 
C 476.610022 186.079668 475.550258 184.788342 474.371867 183.609951 
C 473.193476 182.43156 471.90215 181.371796 470.516509 180.44594 
z
" clip-path="url(#p413617b2ef)" style="fill: #565a5c"/>
   </g>
   <g id="patch_23">
    <path d="M 456.381818 201.6 
C 456.381818 201.6 456.381818 201.6 456.381818 201.6 
C 456.381818 201.6 456.381818 201.6 456.381818 201.6 
L 481.684949 196.566894 
C 481.355269 194.909479 480.863538 193.288459 480.216846 191.727208 
C 479.570155 190.165957 478.771627 188.672016 477.832777 187.266928 
z
" clip-path="url(#p413617b2ef)" style="fill: #565a5c"/>
   </g>
   <g id="patch_24">
    <path d="M 456.381818 201.6 
C 456.381818 201.6 456.381818 201.6 456.381818 201.6 
C 456.381818 201.6 456.381818 201.6 456.381818 201.6 
L 499.458429 210.168471 
C 500.019684 207.34685 500.30235 204.476899 500.30235 201.6 
C 500.30235 198.723101 500.019684 195.85315 499.458429 193.031529 
z
" clip-path="url(#p413617b2ef)" style="fill: #565a5c"/>
   </g>
   <g id="patch_25">
    <path d="M 456.381818 201.6 
C 456.381818 201.6 456.381818 201.6 456.381818 201.6 
C 456.381818 201.6 456.381818 201.6 456.381818 201.6 
L 476.79363 215.238737 
C 477.687 213.901715 478.446845 212.480145 479.062208 210.994525 
C 479.677572 209.508906 480.145482 207.966413 480.459192 206.389287 
z
" clip-path="url(#p413617b2ef)" style="fill: #565a5c"/>
   </g>
   <g id="patch_26">
    <path d="M 456.381818 201.6 
C 456.381818 201.6 456.381818 201.6 456.381818 201.6 
C 456.381818 201.6 456.381818 201.6 456.381818 201.6 
L 464.862633 214.292436 
C 465.694017 213.736922 466.468813 213.101064 467.175848 212.394029 
C 467.882882 211.686995 468.518741 210.912199 469.074254 210.080814 
z
" clip-path="url(#p413617b2ef)" style="fill: #565a5c"/>
   </g>
   <g id="patch_27">
    <path d="M 456.381818 201.6 
C 456.381818 201.6 456.381818 201.6 456.381818 201.6 
C 456.381818 201.6 456.381818 201.6 456.381818 201.6 
L 460.352573 221.562332 
C 461.660153 221.302238 462.93902 220.914298 464.170734 220.404105 
C 465.402447 219.893913 466.581058 219.263932 467.689571 218.523248 
z
" clip-path="url(#p413617b2ef)" style="fill: #565a5c"/>
   </g>
   <g id="patch_28">
    <path d="M 456.381818 201.6 
C 456.381818 201.6 456.381818 201.6 456.381818 201.6 
C 456.381818 201.6 456.381818 201.6 456.381818 201.6 
L 452.794207 219.636142 
C 453.975617 219.871139 455.177263 219.989491 456.381818 219.989491 
C 457.586373 219.989491 458.78802 219.871139 459.96943 219.636142 
z
" clip-path="url(#p413617b2ef)" style="fill: #565a5c"/>
   </g>
   <g id="patch_29">
    <path d="M 456.381818 201.6 
C 456.381818 201.6 456.381818 201.6 456.381818 201.6 
C 456.381818 201.6 456.381818 201.6 456.381818 201.6 
L 449.984011 211.174995 
C 450.611196 211.594067 451.278041 211.950503 451.974932 212.239165 
C 452.671822 212.527826 453.395392 212.747319 454.135207 212.894477 
z
" clip-path="url(#p413617b2ef)" style="fill: #565a5c"/>
   </g>
   <g id="patch_30">
    <path d="M 456.381818 201.6 
C 456.381818 201.6 456.381818 201.6 456.381818 201.6 
C 456.381818 201.6 456.381818 201.6 456.381818 201.6 
L 453.932401 203.236648 
C 454.039605 203.397091 454.162315 203.546613 454.29876 203.683058 
C 454.435205 203.819504 454.584727 203.942213 454.74517 204.049417 
z
" clip-path="url(#p413617b2ef)" style="fill: #565a5c"/>
   </g>
   <g id="patch_31">
    <path d="M 456.381818 201.6 
C 456.381818 201.6 456.381818 201.6 456.381818 201.6 
C 456.381818 201.6 456.381818 201.6 456.381818 201.6 
L 448.151734 203.237066 
C 448.258966 203.776156 448.418906 204.303408 448.629248 204.81122 
C 448.839591 205.319031 449.09932 205.80495 449.40469 206.261968 
z
" clip-path="url(#p413617b2ef)" style="fill: #565a5c"/>
   </g>
   <g id="patch_32">
    <path d="M 456.381818 201.6 
C 456.381818 201.6 456.381818 201.6 456.381818 201.6 
C 456.381818 201.6 456.381818 201.6 456.381818 201.6 
L 442.110502 198.761259 
C 441.924558 199.696064 441.83091 200.646881 441.83091 201.6 
C 441.83091 202.553119 441.924558 203.503936 442.110502 204.438741 
z
" clip-path="url(#p413617b2ef)" style="fill: #565a5c"/>
   </g>
   <g id="patch_33">
    <path d="M 456.381818 201.6 
C 456.381818 201.6 456.381818 201.6 456.381818 201.6 
C 456.381818 201.6 456.381818 201.6 456.381818 201.6 
L 444.060506 193.367163 
C 443.521236 194.174238 443.062566 195.032349 442.69111 195.929123 
C 442.319654 196.825897 442.037206 197.757002 441.84784 198.709012 
z
" clip-path="url(#p413617b2ef)" style="fill: #565a5c"/>
   </g>
   <g id="patch_34">
    <path d="M 456.381818 201.6 
C 456.381818 201.6 456.381818 201.6 456.381818 201.6 
C 456.381818 201.6 456.381818 201.6 456.381818 201.6 
L 453.902048 197.888761 
C 453.658953 198.051192 453.432404 198.237116 453.225669 198.443851 
C 453.018934 198.650586 452.83301 198.877135 452.67058 199.12023 
z
" clip-path="url(#p413617b2ef)" style="fill: #565a5c"/>
   </g>
   <g id="patch_35">
    <path d="M 456.381818 201.6 
C 456.381818 201.6 456.381818 201.6 456.381818 201.6 
C 456.381818 201.6 456.381818 201.6 456.381818 201.6 
L 455.807104 198.710715 
C 455.617849 198.74836 455.432749 198.80451 455.254475 198.878353 
C 455.076201 198.952197 454.905612 199.043378 454.74517 199.150583 
z
" clip-path="url(#p413617b2ef)" style="fill: #565a5c"/>
   </g>
   <g id="text_22">
    <!-- Afternoon Wind Direction -->
    <g transform="translate(381.142756 55.800937) scale(0.12 -0.12)">
     <defs>
      <path id="DejaVuSans-41" d="M 2188 4044 
L 1331 1722 
L 3047 1722 
L 2188 4044 
z
M 1831 4666 
L 2547 4666 
L 4325 0 
L 3669 0 
L 3244 1197 
L 1141 1197 
L 716 0 
L 50 0 
L 1831 4666 
z
" transform="scale(0.015625)"/>
      <path id="DejaVuSans-66" d="M 2375 4863 
L 2375 4384 
L 1825 4384 
Q 1516 4384 1395 4259 
Q 1275 4134 1275 3809 
L 1275 3500 
L 2222 3500 
L 2222 3053 
L 1275 3053 
L 1275 0 
L 697 0 
L 697 3053 
L 147 3053 
L 147 3500 
L 697 3500 
L 697 3744 
Q 697 4328 969 4595 
Q 1241 4863 1831 4863 
L 2375 4863 
z
" transform="scale(0.015625)"/>
     </defs>
     <use xlink:href="#DejaVuSans-41"/>
     <use xlink:href="#DejaVuSans-66" x="64.783203"/>
     <use xlink:href="#DejaVuSans-74" x="98.238281"/>
     <use xlink:href="#DejaVuSans-65" x="137.447266"/>
     <use xlink:href="#DejaVuSans-72" x="198.970703"/>
     <use xlink:href="#DejaVuSans-6e" x="238.333984"/>
     <use xlink:href="#DejaVuSans-6f" x="301.712891"/>
     <use xlink:href="#DejaVuSans-6f" x="362.894531"/>
     <use xlink:href="#DejaVuSans-6e" x="424.076172"/>
     <use xlink:href="#DejaVuSans-20" x="487.455078"/>
     <use xlink:href="#DejaVuSans-57" x="519.242188"/>
     <use xlink:href="#DejaVuSans-69" x="615.869141"/>
     <use xlink:href="#DejaVuSans-6e" x="643.652344"/>
     <use xlink:href="#DejaVuSans-64" x="707.03125"/>
     <use xlink:href="#DejaVuSans-20" x="770.507812"/>
     <use xlink:href="#DejaVuSans-44" x="802.294922"/>
     <use xlink:href="#DejaVuSans-69" x="879.296875"/>
     <use xlink:href="#DejaVuSans-72" x="907.080078"/>
     <use xlink:href="#DejaVuSans-65" x="945.943359"/>
     <use xlink:href="#DejaVuSans-63" x="1007.466797"/>
     <use xlink:href="#DejaVuSans-74" x="1062.447266"/>
     <use xlink:href="#DejaVuSans-69" x="1101.65625"/>
     <use xlink:href="#DejaVuSans-6f" x="1129.439453"/>
     <use xlink:href="#DejaVuSans-6e" x="1190.621094"/>
    </g>
   </g>
  </g>
  <g id="text_23">
   <!-- Wind Direction in Sydney from February 2008 to June 2017 -->
   <g transform="translate(88.467031 17.837812) scale(0.14 -0.14)">
    <defs>
     <path id="DejaVuSans-79" d="M 2059 -325 
Q 1816 -950 1584 -1140 
Q 1353 -1331 966 -1331 
L 506 -1331 
L 506 -850 
L 844 -850 
Q 1081 -850 1212 -737 
Q 1344 -625 1503 -206 
L 1606 56 
L 191 3500 
L 800 3500 
L 1894 763 
L 2988 3500 
L 3597 3500 
L 2059 -325 
z
" transform="scale(0.015625)"/>
     <path id="DejaVuSans-6d" d="M 3328 2828 
Q 3544 3216 3844 3400 
Q 4144 3584 4550 3584 
Q 5097 3584 5394 3201 
Q 5691 2819 5691 2113 
L 5691 0 
L 5113 0 
L 5113 2094 
Q 5113 2597 4934 2840 
Q 4756 3084 4391 3084 
Q 3944 3084 3684 2787 
Q 3425 2491 3425 1978 
L 3425 0 
L 2847 0 
L 2847 2094 
Q 2847 2600 2669 2842 
Q 2491 3084 2119 3084 
Q 1678 3084 1418 2786 
Q 1159 2488 1159 1978 
L 1159 0 
L 581 0 
L 581 3500 
L 1159 3500 
L 1159 2956 
Q 1356 3278 1631 3431 
Q 1906 3584 2284 3584 
Q 2666 3584 2933 3390 
Q 3200 3197 3328 2828 
z
" transform="scale(0.015625)"/>
     <path id="DejaVuSans-46" d="M 628 4666 
L 3309 4666 
L 3309 4134 
L 1259 4134 
L 1259 2759 
L 3109 2759 
L 3109 2228 
L 1259 2228 
L 1259 0 
L 628 0 
L 628 4666 
z
" transform="scale(0.015625)"/>
     <path id="DejaVuSans-62" d="M 3116 1747 
Q 3116 2381 2855 2742 
Q 2594 3103 2138 3103 
Q 1681 3103 1420 2742 
Q 1159 2381 1159 1747 
Q 1159 1113 1420 752 
Q 1681 391 2138 391 
Q 2594 391 2855 752 
Q 3116 1113 3116 1747 
z
M 1159 2969 
Q 1341 3281 1617 3432 
Q 1894 3584 2278 3584 
Q 2916 3584 3314 3078 
Q 3713 2572 3713 1747 
Q 3713 922 3314 415 
Q 2916 -91 2278 -91 
Q 1894 -91 1617 61 
Q 1341 213 1159 525 
L 1159 0 
L 581 0 
L 581 4863 
L 1159 4863 
L 1159 2969 
z
" transform="scale(0.015625)"/>
     <path id="DejaVuSans-75" d="M 544 1381 
L 544 3500 
L 1119 3500 
L 1119 1403 
Q 1119 906 1312 657 
Q 1506 409 1894 409 
Q 2359 409 2629 706 
Q 2900 1003 2900 1516 
L 2900 3500 
L 3475 3500 
L 3475 0 
L 2900 0 
L 2900 538 
Q 2691 219 2414 64 
Q 2138 -91 1772 -91 
Q 1169 -91 856 284 
Q 544 659 544 1381 
z
M 1991 3584 
L 1991 3584 
z
" transform="scale(0.015625)"/>
     <path id="DejaVuSans-61" d="M 2194 1759 
Q 1497 1759 1228 1600 
Q 959 1441 959 1056 
Q 959 750 1161 570 
Q 1363 391 1709 391 
Q 2188 391 2477 730 
Q 2766 1069 2766 1631 
L 2766 1759 
L 2194 1759 
z
M 3341 1997 
L 3341 0 
L 2766 0 
L 2766 531 
Q 2569 213 2275 61 
Q 1981 -91 1556 -91 
Q 1019 -91 701 211 
Q 384 513 384 1019 
Q 384 1609 779 1909 
Q 1175 2209 1959 2209 
L 2766 2209 
L 2766 2266 
Q 2766 2663 2505 2880 
Q 2244 3097 1772 3097 
Q 1472 3097 1187 3025 
Q 903 2953 641 2809 
L 641 3341 
Q 956 3463 1253 3523 
Q 1550 3584 1831 3584 
Q 2591 3584 2966 3190 
Q 3341 2797 3341 1997 
z
" transform="scale(0.015625)"/>
     <path id="DejaVuSans-38" d="M 2034 2216 
Q 1584 2216 1326 1975 
Q 1069 1734 1069 1313 
Q 1069 891 1326 650 
Q 1584 409 2034 409 
Q 2484 409 2743 651 
Q 3003 894 3003 1313 
Q 3003 1734 2745 1975 
Q 2488 2216 2034 2216 
z
M 1403 2484 
Q 997 2584 770 2862 
Q 544 3141 544 3541 
Q 544 4100 942 4425 
Q 1341 4750 2034 4750 
Q 2731 4750 3128 4425 
Q 3525 4100 3525 3541 
Q 3525 3141 3298 2862 
Q 3072 2584 2669 2484 
Q 3125 2378 3379 2068 
Q 3634 1759 3634 1313 
Q 3634 634 3220 271 
Q 2806 -91 2034 -91 
Q 1263 -91 848 271 
Q 434 634 434 1313 
Q 434 1759 690 2068 
Q 947 2378 1403 2484 
z
M 1172 3481 
Q 1172 3119 1398 2916 
Q 1625 2713 2034 2713 
Q 2441 2713 2670 2916 
Q 2900 3119 2900 3481 
Q 2900 3844 2670 4047 
Q 2441 4250 2034 4250 
Q 1625 4250 1398 4047 
Q 1172 3844 1172 3481 
z
" transform="scale(0.015625)"/>
     <path id="DejaVuSans-4a" d="M 628 4666 
L 1259 4666 
L 1259 325 
Q 1259 -519 939 -900 
Q 619 -1281 -91 -1281 
L -331 -1281 
L -331 -750 
L -134 -750 
Q 284 -750 456 -515 
Q 628 -281 628 325 
L 628 4666 
z
" transform="scale(0.015625)"/>
     <path id="DejaVuSans-31" d="M 794 531 
L 1825 531 
L 1825 4091 
L 703 3866 
L 703 4441 
L 1819 4666 
L 2450 4666 
L 2450 531 
L 3481 531 
L 3481 0 
L 794 0 
L 794 531 
z
" transform="scale(0.015625)"/>
     <path id="DejaVuSans-37" d="M 525 4666 
L 3525 4666 
L 3525 4397 
L 1831 0 
L 1172 0 
L 2766 4134 
L 525 4134 
L 525 4666 
z
" transform="scale(0.015625)"/>
    </defs>
    <use xlink:href="#DejaVuSans-57"/>
    <use xlink:href="#DejaVuSans-69" x="96.626953"/>
    <use xlink:href="#DejaVuSans-6e" x="124.410156"/>
    <use xlink:href="#DejaVuSans-64" x="187.789062"/>
    <use xlink:href="#DejaVuSans-20" x="251.265625"/>
    <use xlink:href="#DejaVuSans-44" x="283.052734"/>
    <use xlink:href="#DejaVuSans-69" x="360.054688"/>
    <use xlink:href="#DejaVuSans-72" x="387.837891"/>
    <use xlink:href="#DejaVuSans-65" x="426.701172"/>
    <use xlink:href="#DejaVuSans-63" x="488.224609"/>
    <use xlink:href="#DejaVuSans-74" x="543.205078"/>
    <use xlink:href="#DejaVuSans-69" x="582.414062"/>
    <use xlink:href="#DejaVuSans-6f" x="610.197266"/>
    <use xlink:href="#DejaVuSans-6e" x="671.378906"/>
    <use xlink:href="#DejaVuSans-20" x="734.757812"/>
    <use xlink:href="#DejaVuSans-69" x="766.544922"/>
    <use xlink:href="#DejaVuSans-6e" x="794.328125"/>
    <use xlink:href="#DejaVuSans-20" x="857.707031"/>
    <use xlink:href="#DejaVuSans-53" x="889.494141"/>
    <use xlink:href="#DejaVuSans-79" x="952.970703"/>
    <use xlink:href="#DejaVuSans-64" x="1012.150391"/>
    <use xlink:href="#DejaVuSans-6e" x="1075.626953"/>
    <use xlink:href="#DejaVuSans-65" x="1139.005859"/>
    <use xlink:href="#DejaVuSans-79" x="1200.529297"/>
    <use xlink:href="#DejaVuSans-20" x="1259.708984"/>
    <use xlink:href="#DejaVuSans-66" x="1291.496094"/>
    <use xlink:href="#DejaVuSans-72" x="1326.701172"/>
    <use xlink:href="#DejaVuSans-6f" x="1365.564453"/>
    <use xlink:href="#DejaVuSans-6d" x="1426.746094"/>
    <use xlink:href="#DejaVuSans-20" x="1524.158203"/>
    <use xlink:href="#DejaVuSans-46" x="1555.945312"/>
    <use xlink:href="#DejaVuSans-65" x="1607.964844"/>
    <use xlink:href="#DejaVuSans-62" x="1669.488281"/>
    <use xlink:href="#DejaVuSans-72" x="1732.964844"/>
    <use xlink:href="#DejaVuSans-75" x="1774.078125"/>
    <use xlink:href="#DejaVuSans-61" x="1837.457031"/>
    <use xlink:href="#DejaVuSans-72" x="1898.736328"/>
    <use xlink:href="#DejaVuSans-79" x="1939.849609"/>
    <use xlink:href="#DejaVuSans-20" x="1999.029297"/>
    <use xlink:href="#DejaVuSans-32" x="2030.816406"/>
    <use xlink:href="#DejaVuSans-30" x="2094.439453"/>
    <use xlink:href="#DejaVuSans-30" x="2158.0625"/>
    <use xlink:href="#DejaVuSans-38" x="2221.685547"/>
    <use xlink:href="#DejaVuSans-20" x="2285.308594"/>
    <use xlink:href="#DejaVuSans-74" x="2317.095703"/>
    <use xlink:href="#DejaVuSans-6f" x="2356.304688"/>
    <use xlink:href="#DejaVuSans-20" x="2417.486328"/>
    <use xlink:href="#DejaVuSans-4a" x="2449.273438"/>
    <use xlink:href="#DejaVuSans-75" x="2478.765625"/>
    <use xlink:href="#DejaVuSans-6e" x="2542.144531"/>
    <use xlink:href="#DejaVuSans-65" x="2605.523438"/>
    <use xlink:href="#DejaVuSans-20" x="2667.046875"/>
    <use xlink:href="#DejaVuSans-32" x="2698.833984"/>
    <use xlink:href="#DejaVuSans-30" x="2762.457031"/>
    <use xlink:href="#DejaVuSans-31" x="2826.080078"/>
    <use xlink:href="#DejaVuSans-37" x="2889.703125"/>
   </g>
  </g>
  <g id="text_24">
   <!-- Source: https://www.kaggle.com/datasets/jsphyg/weather-dataset-rattle-package -->
   <g style="opacity: 0.7" transform="translate(7.2 378.72) scale(0.1 -0.1)">
    <defs>
     <path id="DejaVuSans-3a" d="M 750 794 
L 1409 794 
L 1409 0 
L 750 0 
L 750 794 
z
M 750 3309 
L 1409 3309 
L 1409 2516 
L 750 2516 
L 750 3309 
z
" transform="scale(0.015625)"/>
     <path id="DejaVuSans-68" d="M 3513 2113 
L 3513 0 
L 2938 0 
L 2938 2094 
Q 2938 2591 2744 2837 
Q 2550 3084 2163 3084 
Q 1697 3084 1428 2787 
Q 1159 2491 1159 1978 
L 1159 0 
L 581 0 
L 581 4863 
L 1159 4863 
L 1159 2956 
Q 1366 3272 1645 3428 
Q 1925 3584 2291 3584 
Q 2894 3584 3203 3211 
Q 3513 2838 3513 2113 
z
" transform="scale(0.015625)"/>
     <path id="DejaVuSans-70" d="M 1159 525 
L 1159 -1331 
L 581 -1331 
L 581 3500 
L 1159 3500 
L 1159 2969 
Q 1341 3281 1617 3432 
Q 1894 3584 2278 3584 
Q 2916 3584 3314 3078 
Q 3713 2572 3713 1747 
Q 3713 922 3314 415 
Q 2916 -91 2278 -91 
Q 1894 -91 1617 61 
Q 1341 213 1159 525 
z
M 3116 1747 
Q 3116 2381 2855 2742 
Q 2594 3103 2138 3103 
Q 1681 3103 1420 2742 
Q 1159 2381 1159 1747 
Q 1159 1113 1420 752 
Q 1681 391 2138 391 
Q 2594 391 2855 752 
Q 3116 1113 3116 1747 
z
" transform="scale(0.015625)"/>
     <path id="DejaVuSans-73" d="M 2834 3397 
L 2834 2853 
Q 2591 2978 2328 3040 
Q 2066 3103 1784 3103 
Q 1356 3103 1142 2972 
Q 928 2841 928 2578 
Q 928 2378 1081 2264 
Q 1234 2150 1697 2047 
L 1894 2003 
Q 2506 1872 2764 1633 
Q 3022 1394 3022 966 
Q 3022 478 2636 193 
Q 2250 -91 1575 -91 
Q 1294 -91 989 -36 
Q 684 19 347 128 
L 347 722 
Q 666 556 975 473 
Q 1284 391 1588 391 
Q 1994 391 2212 530 
Q 2431 669 2431 922 
Q 2431 1156 2273 1281 
Q 2116 1406 1581 1522 
L 1381 1569 
Q 847 1681 609 1914 
Q 372 2147 372 2553 
Q 372 3047 722 3315 
Q 1072 3584 1716 3584 
Q 2034 3584 2315 3537 
Q 2597 3491 2834 3397 
z
" transform="scale(0.015625)"/>
     <path id="DejaVuSans-2f" d="M 1625 4666 
L 2156 4666 
L 531 -594 
L 0 -594 
L 1625 4666 
z
" transform="scale(0.015625)"/>
     <path id="DejaVuSans-77" d="M 269 3500 
L 844 3500 
L 1563 769 
L 2278 3500 
L 2956 3500 
L 3675 769 
L 4391 3500 
L 4966 3500 
L 4050 0 
L 3372 0 
L 2619 2869 
L 1863 0 
L 1184 0 
L 269 3500 
z
" transform="scale(0.015625)"/>
     <path id="DejaVuSans-2e" d="M 684 794 
L 1344 794 
L 1344 0 
L 684 0 
L 684 794 
z
" transform="scale(0.015625)"/>
     <path id="DejaVuSans-6b" d="M 581 4863 
L 1159 4863 
L 1159 1991 
L 2875 3500 
L 3609 3500 
L 1753 1863 
L 3688 0 
L 2938 0 
L 1159 1709 
L 1159 0 
L 581 0 
L 581 4863 
z
" transform="scale(0.015625)"/>
     <path id="DejaVuSans-6c" d="M 603 4863 
L 1178 4863 
L 1178 0 
L 603 0 
L 603 4863 
z
" transform="scale(0.015625)"/>
     <path id="DejaVuSans-6a" d="M 603 3500 
L 1178 3500 
L 1178 -63 
Q 1178 -731 923 -1031 
Q 669 -1331 103 -1331 
L -116 -1331 
L -116 -844 
L 38 -844 
Q 366 -844 484 -692 
Q 603 -541 603 -63 
L 603 3500 
z
M 603 4863 
L 1178 4863 
L 1178 4134 
L 603 4134 
L 603 4863 
z
" transform="scale(0.015625)"/>
     <path id="DejaVuSans-2d" d="M 313 2009 
L 1997 2009 
L 1997 1497 
L 313 1497 
L 313 2009 
z
" transform="scale(0.015625)"/>
    </defs>
    <use xlink:href="#DejaVuSans-53"/>
    <use xlink:href="#DejaVuSans-6f" x="63.476562"/>
    <use xlink:href="#DejaVuSans-75" x="124.658203"/>
    <use xlink:href="#DejaVuSans-72" x="188.037109"/>
    <use xlink:href="#DejaVuSans-63" x="226.900391"/>
    <use xlink:href="#DejaVuSans-65" x="281.880859"/>
    <use xlink:href="#DejaVuSans-3a" x="343.404297"/>
    <use xlink:href="#DejaVuSans-20" x="377.095703"/>
    <use xlink:href="#DejaVuSans-68" x="408.882812"/>
    <use xlink:href="#DejaVuSans-74" x="472.261719"/>
    <use xlink:href="#DejaVuSans-74" x="511.470703"/>
    <use xlink:href="#DejaVuSans-70" x="550.679688"/>
    <use xlink:href="#DejaVuSans-73" x="614.15625"/>
    <use xlink:href="#DejaVuSans-3a" x="666.255859"/>
    <use xlink:href="#DejaVuSans-2f" x="699.947266"/>
    <use xlink:href="#DejaVuSans-2f" x="733.638672"/>
    <use xlink:href="#DejaVuSans-77" x="767.330078"/>
    <use xlink:href="#DejaVuSans-77" x="849.117188"/>
    <use xlink:href="#DejaVuSans-77" x="930.904297"/>
    <use xlink:href="#DejaVuSans-2e" x="1003.566406"/>
    <use xlink:href="#DejaVuSans-6b" x="1035.353516"/>
    <use xlink:href="#DejaVuSans-61" x="1091.513672"/>
    <use xlink:href="#DejaVuSans-67" x="1152.792969"/>
    <use xlink:href="#DejaVuSans-67" x="1216.269531"/>
    <use xlink:href="#DejaVuSans-6c" x="1279.746094"/>
    <use xlink:href="#DejaVuSans-65" x="1307.529297"/>
    <use xlink:href="#DejaVuSans-2e" x="1369.052734"/>
    <use xlink:href="#DejaVuSans-63" x="1400.839844"/>
    <use xlink:href="#DejaVuSans-6f" x="1455.820312"/>
    <use xlink:href="#DejaVuSans-6d" x="1517.001953"/>
    <use xlink:href="#DejaVuSans-2f" x="1614.414062"/>
    <use xlink:href="#DejaVuSans-64" x="1648.105469"/>
    <use xlink:href="#DejaVuSans-61" x="1711.582031"/>
    <use xlink:href="#DejaVuSans-74" x="1772.861328"/>
    <use xlink:href="#DejaVuSans-61" x="1812.070312"/>
    <use xlink:href="#DejaVuSans-73" x="1873.349609"/>
    <use xlink:href="#DejaVuSans-65" x="1925.449219"/>
    <use xlink:href="#DejaVuSans-74" x="1986.972656"/>
    <use xlink:href="#DejaVuSans-73" x="2026.181641"/>
    <use xlink:href="#DejaVuSans-2f" x="2078.28125"/>
    <use xlink:href="#DejaVuSans-6a" x="2111.972656"/>
    <use xlink:href="#DejaVuSans-73" x="2139.755859"/>
    <use xlink:href="#DejaVuSans-70" x="2191.855469"/>
    <use xlink:href="#DejaVuSans-68" x="2255.332031"/>
    <use xlink:href="#DejaVuSans-79" x="2318.710938"/>
    <use xlink:href="#DejaVuSans-67" x="2377.890625"/>
    <use xlink:href="#DejaVuSans-2f" x="2441.367188"/>
    <use xlink:href="#DejaVuSans-77" x="2475.058594"/>
    <use xlink:href="#DejaVuSans-65" x="2556.845703"/>
    <use xlink:href="#DejaVuSans-61" x="2618.369141"/>
    <use xlink:href="#DejaVuSans-74" x="2679.648438"/>
    <use xlink:href="#DejaVuSans-68" x="2718.857422"/>
    <use xlink:href="#DejaVuSans-65" x="2782.236328"/>
    <use xlink:href="#DejaVuSans-72" x="2843.759766"/>
    <use xlink:href="#DejaVuSans-2d" x="2878.498047"/>
    <use xlink:href="#DejaVuSans-64" x="2914.582031"/>
    <use xlink:href="#DejaVuSans-61" x="2978.058594"/>
    <use xlink:href="#DejaVuSans-74" x="3039.337891"/>
    <use xlink:href="#DejaVuSans-61" x="3078.546875"/>
    <use xlink:href="#DejaVuSans-73" x="3139.826172"/>
    <use xlink:href="#DejaVuSans-65" x="3191.925781"/>
    <use xlink:href="#DejaVuSans-74" x="3253.449219"/>
    <use xlink:href="#DejaVuSans-2d" x="3292.658203"/>
    <use xlink:href="#DejaVuSans-72" x="3328.742188"/>
    <use xlink:href="#DejaVuSans-61" x="3369.855469"/>
    <use xlink:href="#DejaVuSans-74" x="3431.134766"/>
    <use xlink:href="#DejaVuSans-74" x="3470.34375"/>
    <use xlink:href="#DejaVuSans-6c" x="3509.552734"/>
    <use xlink:href="#DejaVuSans-65" x="3537.335938"/>
    <use xlink:href="#DejaVuSans-2d" x="3598.859375"/>
    <use xlink:href="#DejaVuSans-70" x="3634.943359"/>
    <use xlink:href="#DejaVuSans-61" x="3698.419922"/>
    <use xlink:href="#DejaVuSans-63" x="3759.699219"/>
    <use xlink:href="#DejaVuSans-6b" x="3814.679688"/>
    <use xlink:href="#DejaVuSans-61" x="3870.839844"/>
    <use xlink:href="#DejaVuSans-67" x="3932.119141"/>
    <use xlink:href="#DejaVuSans-65" x="3995.595703"/>
   </g>
  </g>
 </g>
 <defs>
  <clipPath id="p11fcb22b86">
   <path d="M 272.978182 201.6 
C 272.978182 185.715678 269.849317 169.985812 263.77065 155.310612 
C 257.691983 140.635412 248.78173 127.300275 237.549818 116.068364 
C 226.317907 104.836452 212.982769 95.926198 198.30757 89.847532 
C 183.63237 83.768865 167.902503 80.64 152.018182 80.64 
C 136.13386 80.64 120.403994 83.768865 105.728794 89.847532 
C 91.053594 95.926198 77.718457 104.836452 66.486546 116.068364 
C 55.254634 127.300275 46.34438 140.635412 40.265714 155.310612 
C 34.187047 169.985812 31.058182 185.715678 31.058182 201.6 
C 31.058182 217.484322 34.187047 233.214188 40.265714 247.889388 
C 46.34438 262.564588 55.254634 275.899725 66.486546 287.131636 
C 77.718457 298.363548 91.053594 307.273802 105.728794 313.352468 
C 120.403994 319.431135 136.13386 322.56 152.018182 322.56 
C 167.902503 322.56 183.63237 319.431135 198.30757 313.352468 
C 212.982769 307.273802 226.317907 298.363548 237.549818 287.131636 
C 248.78173 275.899725 257.691983 262.564588 263.77065 247.889388 
C 269.849317 233.214188 272.978182 217.484322 272.978182 201.6 
M 152.018182 201.6 
C 152.018182 201.6 152.018182 201.6 152.018182 201.6 
C 152.018182 201.6 152.018182 201.6 152.018182 201.6 
C 152.018182 201.6 152.018182 201.6 152.018182 201.6 
C 152.018182 201.6 152.018182 201.6 152.018182 201.6 
C 152.018182 201.6 152.018182 201.6 152.018182 201.6 
C 152.018182 201.6 152.018182 201.6 152.018182 201.6 
C 152.018182 201.6 152.018182 201.6 152.018182 201.6 
C 152.018182 201.6 152.018182 201.6 152.018182 201.6 
C 152.018182 201.6 152.018182 201.6 152.018182 201.6 
C 152.018182 201.6 152.018182 201.6 152.018182 201.6 
C 152.018182 201.6 152.018182 201.6 152.018182 201.6 
C 152.018182 201.6 152.018182 201.6 152.018182 201.6 
C 152.018182 201.6 152.018182 201.6 152.018182 201.6 
C 152.018182 201.6 152.018182 201.6 152.018182 201.6 
C 152.018182 201.6 152.018182 201.6 152.018182 201.6 
C 152.018182 201.6 152.018182 201.6 152.018182 201.6 
z
"/>
  </clipPath>
  <clipPath id="p413617b2ef">
   <path d="M 577.341818 201.6 
C 577.341818 185.715678 574.212953 169.985812 568.134286 155.310612 
C 562.05562 140.635412 553.145366 127.300275 541.913454 116.068364 
C 530.681543 104.836452 517.346406 95.926198 502.671206 89.847532 
C 487.996006 83.768865 472.26614 80.64 456.381818 80.64 
C 440.497497 80.64 424.76763 83.768865 410.09243 89.847532 
C 395.417231 95.926198 382.082093 104.836452 370.850182 116.068364 
C 359.61827 127.300275 350.708017 140.635412 344.62935 155.310612 
C 338.550683 169.985812 335.421818 185.715678 335.421818 201.6 
C 335.421818 217.484322 338.550683 233.214188 344.62935 247.889388 
C 350.708017 262.564588 359.61827 275.899725 370.850182 287.131636 
C 382.082093 298.363548 395.417231 307.273802 410.09243 313.352468 
C 424.76763 319.431135 440.497497 322.56 456.381818 322.56 
C 472.26614 322.56 487.996006 319.431135 502.671206 313.352468 
C 517.346406 307.273802 530.681543 298.363548 541.913454 287.131636 
C 553.145366 275.899725 562.05562 262.564588 568.134286 247.889388 
C 574.212953 233.214188 577.341818 217.484322 577.341818 201.6 
M 456.381818 201.6 
C 456.381818 201.6 456.381818 201.6 456.381818 201.6 
C 456.381818 201.6 456.381818 201.6 456.381818 201.6 
C 456.381818 201.6 456.381818 201.6 456.381818 201.6 
C 456.381818 201.6 456.381818 201.6 456.381818 201.6 
C 456.381818 201.6 456.381818 201.6 456.381818 201.6 
C 456.381818 201.6 456.381818 201.6 456.381818 201.6 
C 456.381818 201.6 456.381818 201.6 456.381818 201.6 
C 456.381818 201.6 456.381818 201.6 456.381818 201.6 
C 456.381818 201.6 456.381818 201.6 456.381818 201.6 
C 456.381818 201.6 456.381818 201.6 456.381818 201.6 
C 456.381818 201.6 456.381818 201.6 456.381818 201.6 
C 456.381818 201.6 456.381818 201.6 456.381818 201.6 
C 456.381818 201.6 456.381818 201.6 456.381818 201.6 
C 456.381818 201.6 456.381818 201.6 456.381818 201.6 
C 456.381818 201.6 456.381818 201.6 456.381818 201.6 
C 456.381818 201.6 456.381818 201.6 456.381818 201.6 
z
"/>
  </clipPath>
 </defs>
</svg>
